<?xml version="1.0" encoding="UTF-8" standalone="no"?>
<svg
   xmlns:dc="http://purl.org/dc/elements/1.1/"
   xmlns:cc="http://creativecommons.org/ns#"
   xmlns:rdf="http://www.w3.org/1999/02/22-rdf-syntax-ns#"
   xmlns:svg="http://www.w3.org/2000/svg"
   xmlns="http://www.w3.org/2000/svg"
   xmlns:sodipodi="http://sodipodi.sourceforge.net/DTD/sodipodi-0.dtd"
   xmlns:inkscape="http://www.inkscape.org/namespaces/inkscape"
   width="210mm"
   height="297mm"
   viewBox="0 0 210 297"
   version="1.1"
   id="svg8"
   inkscape:version="1.0.1 (3bc2e813f5, 2020-09-07)"
   sodipodi:docname="brownbucketempty.svg">
  <defs
     id="defs2" />
  <sodipodi:namedview
     id="base"
     pagecolor="#ffffff"
     bordercolor="#666666"
     borderopacity="1.0"
     inkscape:pageopacity="0.0"
     inkscape:pageshadow="2"
     inkscape:zoom="0.32961249"
     inkscape:cx="-744.14917"
     inkscape:cy="53.633641"
     inkscape:document-units="mm"
     inkscape:current-layer="layer1"
     inkscape:document-rotation="0"
     showgrid="false"
     showguides="false"
     inkscape:window-width="1920"
     inkscape:window-height="1017"
     inkscape:window-x="-8"
     inkscape:window-y="-8"
     inkscape:window-maximized="1" />
  <metadata
     id="metadata5">
    <rdf:RDF>
      <cc:Work
         rdf:about="">
        <dc:format>image/svg+xml</dc:format>
        <dc:type
           rdf:resource="http://purl.org/dc/dcmitype/StillImage" />
        <dc:title />
      </cc:Work>
    </rdf:RDF>
  </metadata>
  <g
     inkscape:label="Layer 1"
     inkscape:groupmode="layer"
     id="layer1">
    <ellipse
       style="fill:#1d0f00;fill-opacity:1;stroke:none;stroke-width:9.02337;stroke-miterlimit:4;stroke-dasharray:none;stroke-opacity:1"
       id="path900"
       cx="104.26743"
       cy="143.62837"
       rx="97.895172"
       ry="13.738854"
       inkscape:export-xdpi="96"
       inkscape:export-ydpi="96" />
    <rect
       style="fill:#421a00;fill-opacity:1;stroke:none;stroke-width:9.83697;stroke-miterlimit:4;stroke-dasharray:none"
       id="rect946-9"
       width="12.211849"
       height="111.48334"
       x="151.63252"
       y="-29.883217"
       transform="matrix(0.92003768,0.39182989,-0.4938399,0.86955285,0,0)"
       inkscape:export-xdpi="96"
       inkscape:export-ydpi="96"
       ry="6.1059246" />
    <path
       id="path8310"
       style="color:#000000;font-style:normal;font-variant:normal;font-weight:normal;font-stretch:normal;font-size:medium;line-height:normal;font-family:sans-serif;font-variant-ligatures:normal;font-variant-position:normal;font-variant-caps:normal;font-variant-numeric:normal;font-variant-alternates:normal;font-variant-east-asian:normal;font-feature-settings:normal;font-variation-settings:normal;text-indent:0;text-align:start;text-decoration:none;text-decoration-line:none;text-decoration-style:solid;text-decoration-color:#000000;letter-spacing:normal;word-spacing:normal;text-transform:none;writing-mode:lr-tb;direction:ltr;text-orientation:mixed;dominant-baseline:auto;baseline-shift:baseline;text-anchor:start;white-space:normal;shape-padding:0;shape-margin:0;inline-size:0;clip-rule:nonzero;display:inline;overflow:visible;visibility:visible;opacity:1;isolation:auto;mix-blend-mode:normal;color-interpolation:sRGB;color-interpolation-filters:linearRGB;solid-color:#000000;solid-opacity:1;vector-effect:none;fill:#612600;fill-opacity:1;fill-rule:nonzero;stroke:none;stroke-width:9.02337;stroke-linecap:butt;stroke-linejoin:miter;stroke-miterlimit:4;stroke-dasharray:none;stroke-dashoffset:0;stroke-opacity:1;color-rendering:auto;image-rendering:auto;shape-rendering:auto;text-rendering:auto;enable-background:accumulate;stop-color:#000000;stop-opacity:1"
       d="m 104.27015,125.22987 c -27.204059,0 -51.818886,1.54523 -69.847263,4.07538 -9.014094,1.26506 -16.358391,2.74595 -21.778463,4.54435 -2.7100367,0.89921 -4.9518031,1.83815 -6.8461813,3.13739 -1.8632031,1.27781 -3.8211162,3.33682 -3.8867324,6.37181 H 13.345223 c 0.638415,-0.31441 1.079152,-0.60576 2.12931,-0.95417 4.487374,-1.48899 11.492221,-2.95124 20.193578,-4.17242 17.402793,-2.44234 41.740143,-3.97295 68.602039,-3.97295 26.8619,0 51.19393,1.53061 68.59673,3.97295 8.70135,1.22118 15.6845,2.68343 20.17198,4.17242 1.04641,0.34726 1.49569,0.63987 2.13474,0.95417 h 11.44987 c -0.0625,-3.03503 -2.04511,-5.094 -3.90832,-6.37181 -1.89439,-1.29924 -4.11455,-2.23818 -6.82459,-3.13739 -5.42007,-1.7984 -12.76437,-3.27929 -21.77845,-4.54435 -18.02839,-2.53015 -42.63779,-4.07538 -69.84196,-4.07538 z" />
    <rect
       style="fill:#612600;fill-opacity:1;stroke:none;stroke-width:11.4348;stroke-miterlimit:4;stroke-dasharray:none"
       id="rect946-9-9"
       width="13.200028"
       height="139.36465"
       x="153.70511"
       y="-53.278442"
       transform="matrix(0.85554345,0.51773102,-0.42617372,0.90464134,0,0)"
       ry="7.6329808"
       inkscape:export-xdpi="96"
       inkscape:export-ydpi="96" />
    <path
       id="path954"
       style="fill:#803800;fill-opacity:1;stroke-width:2.852"
       d="m 6.1998554,143.22201 6.2101676,129.27982 h 38.295509 l 3.746522,-117.04832 a 97.895172,13.738854 0 0 1 -48.0796614,-11.8272 97.895172,13.738854 0 0 1 0.041737,-0.40433 z" />
    <path
       id="path956"
       style="fill:#61310c;fill-opacity:1;stroke-width:2.852"
       d="m 16.868094,149.81485 5.891994,122.68698 h 38.29562 l 3.724934,-116.29901 a 97.895172,13.738854 0 0 1 -47.912548,-6.38797 z" />
    <path
       id="path958"
       style="fill:#6f3311;fill-opacity:1;stroke-width:2.852"
       d="m 34.280075,153.23255 5.730307,119.26928 h 38.295509 l 3.698021,-115.49579 a 97.895172,13.738854 0 0 1 -47.723837,-3.77349 z" />
    <path
       id="path960"
       style="fill:#803b00;fill-opacity:1;stroke-width:2.852"
       d="m 62.015208,156.01954 5.595532,116.48229 h 38.29562 l 3.68717,-115.15619 a 97.895172,13.738854 0 0 1 -5.32598,0.0219 97.895172,13.738854 0 0 1 -42.252342,-1.34767 z" />
    <path
       id="path962"
       style="fill:#693b17;fill-opacity:1;stroke-width:2.852"
       d="m 147.93765,155.9225 a 97.895172,13.738854 0 0 1 -43.6701,1.44471 97.895172,13.738854 0 0 1 -3.89216,-0.01 l 5.53097,115.14539 h 38.2955 z" />
    <path
       id="path964"
       style="fill:#5f2f14;fill-opacity:1;stroke-width:2.852"
       d="m 163.67848,154.54788 a 97.895172,13.738854 0 0 1 -47.61066,2.72231 l 5.53618,115.23164 h 38.29561 z" />
    <path
       id="path966"
       style="fill:#a14018;fill-opacity:1;stroke-width:2.852"
       d="m 202.11961,143.22201 a 97.895172,13.738854 0 0 1 0.0417,0.40434 97.895172,13.738854 0 0 1 -47.88554,11.81102 l 5.62246,117.0645 h 38.29561 l 4.14001,-129.27983 z" />
    <path
       id="rect1052"
       style="fill:#612600;fill-opacity:1;stroke:none;stroke-width:2.7236;stroke-opacity:1"
       d="m 200.7611,198.47133 a 11.789247,97.895151 89.938233 0 1 -96.59056,9.99158 11.789247,97.895151 89.938233 0 1 -95.7874491,-9.24221 l 1.3530972,24.10007 a 11.789247,97.895151 89.938233 0 0 94.3264719,8.52985 11.789247,97.895151 89.938233 0 0 0.01,0 11.789247,97.895151 89.938233 0 0 1.62806,0 11.789247,97.895151 89.938233 0 0 94.17012,-9.48274 z"
       inkscape:export-xdpi="96"
       inkscape:export-ydpi="96" />
    <path
       id="rect1052-7"
       style="fill:#612600;fill-opacity:1;stroke:none;stroke-width:2.92938;stroke-opacity:1"
       d="m 198.5641,260.90383 a 13.738854,97.176387 89.92708 0 1 -94.52762,10.68976 13.738854,97.176387 89.92708 0 1 -92.044664,-9.21271 l 0.55079,11.60618 a 13.738854,97.176387 89.92708 0 0 91.493464,8.9917 13.738854,97.176387 89.92708 0 0 94.15832,-10.47953 z"
       inkscape:export-xdpi="96"
       inkscape:export-ydpi="96" />
    <path
       id="path8308"
       style="color:#000000;font-style:normal;font-variant:normal;font-weight:normal;font-stretch:normal;font-size:medium;line-height:normal;font-family:sans-serif;font-variant-ligatures:normal;font-variant-position:normal;font-variant-caps:normal;font-variant-numeric:normal;font-variant-alternates:normal;font-variant-east-asian:normal;font-feature-settings:normal;font-variation-settings:normal;text-indent:0;text-align:start;text-decoration:none;text-decoration-line:none;text-decoration-style:solid;text-decoration-color:#000000;letter-spacing:normal;word-spacing:normal;text-transform:none;writing-mode:lr-tb;direction:ltr;text-orientation:mixed;dominant-baseline:auto;baseline-shift:baseline;text-anchor:start;white-space:normal;shape-padding:0;shape-margin:0;inline-size:0;clip-rule:nonzero;display:inline;overflow:visible;visibility:visible;opacity:1;isolation:auto;mix-blend-mode:normal;color-interpolation:sRGB;color-interpolation-filters:linearRGB;solid-color:#000000;solid-opacity:1;vector-effect:none;fill:#612600;fill-opacity:1;fill-rule:nonzero;stroke:none;stroke-width:9.02337;stroke-linecap:butt;stroke-linejoin:miter;stroke-miterlimit:4;stroke-dasharray:none;stroke-dashoffset:0;stroke-opacity:1;color-rendering:auto;image-rendering:auto;shape-rendering:auto;text-rendering:auto;enable-background:accumulate;stop-color:#000000;stop-opacity:1"
       d="M 206.62358,143.3588 H 195.1737 c 0.0835,0.0427 0.19612,0.0856 0.29105,0.12936 -0.79385,0.36605 -1.24043,0.66324 -2.42578,1.05658 -4.48748,1.48897 -11.47064,2.95662 -20.17199,4.17778 -17.4028,2.44236 -41.73481,3.99451 -68.59672,3.99452 -26.861906,-1e-5 -51.199246,-1.55216 -68.602049,-3.99452 -8.701347,-1.22116 -15.706193,-2.68881 -20.193579,-4.17778 -1.189837,-0.39474 -1.624628,-0.68954 -2.420459,-1.05658 0.09388,-0.0438 0.204466,-0.0866 0.29105,-0.12936 H 1.9115103 c -0.00111,0.0512 -0.041737,0.0783 -0.041737,0.12936 0,3.12021 2.0354192,5.18038 3.9298085,6.47962 1.8943893,1.29924 4.1361447,2.23819 6.8461812,3.13739 5.420083,1.79841 12.76427,3.29547 21.778364,4.56053 18.028377,2.53015 42.643315,4.05381 69.847373,4.05381 27.20417,0 51.81356,-1.52366 69.84195,-4.05381 9.01409,-1.26506 16.35839,-2.76212 21.77846,-4.56053 2.71004,-0.8992 4.9302,-1.83815 6.82459,-3.13739 1.89438,-1.29924 3.9514,-3.35941 3.9514,-6.47962 0,-0.0511 -0.0417,-0.0783 -0.0417,-0.12936 z" />
  </g>
</svg>
