<?xml version="1.0" encoding="UTF-8" standalone="no"?>
<svg
   xmlns:dc="http://purl.org/dc/elements/1.1/"
   xmlns:cc="http://creativecommons.org/ns#"
   xmlns:rdf="http://www.w3.org/1999/02/22-rdf-syntax-ns#"
   xmlns:svg="http://www.w3.org/2000/svg"
   xmlns="http://www.w3.org/2000/svg"
   xmlns:sodipodi="http://sodipodi.sourceforge.net/DTD/sodipodi-0.dtd"
   xmlns:inkscape="http://www.inkscape.org/namespaces/inkscape"
   width="210mm"
   height="297mm"
   viewBox="0 0 210 297"
   version="1.1"
   id="svg8"
   inkscape:version="1.0.1 (3bc2e813f5, 2020-09-07)"
   sodipodi:docname="bluebucketempty.svg">
  <defs
     id="defs2" />
  <sodipodi:namedview
     id="base"
     pagecolor="#ffffff"
     bordercolor="#666666"
     borderopacity="1.0"
     inkscape:pageopacity="0.0"
     inkscape:pageshadow="2"
     inkscape:zoom="0.2017594"
     inkscape:cx="-719.88829"
     inkscape:cy="46.809156"
     inkscape:document-units="mm"
     inkscape:current-layer="layer1"
     inkscape:document-rotation="0"
     showgrid="false"
     showguides="false"
     inkscape:window-width="1920"
     inkscape:window-height="1017"
     inkscape:window-x="-8"
     inkscape:window-y="-8"
     inkscape:window-maximized="1" />
  <metadata
     id="metadata5">
    <rdf:RDF>
      <cc:Work
         rdf:about="">
        <dc:format>image/svg+xml</dc:format>
        <dc:type
           rdf:resource="http://purl.org/dc/dcmitype/StillImage" />
        <dc:title />
      </cc:Work>
    </rdf:RDF>
  </metadata>
  <g
     inkscape:label="Layer 1"
     inkscape:groupmode="layer"
     id="layer1">
    <g
       id="g21759"
       transform="matrix(10.065407,0,0,10.065407,2045.8561,38.136047)">
      <ellipse
         style="fill:#000e1d;fill-opacity:1;stroke:none;stroke-width:0.865;stroke-miterlimit:4;stroke-dasharray:none;stroke-opacity:1"
         id="path900"
         cx="-193.00528"
         cy="10.787651"
         rx="9.3844423"
         ry="1.3170362"
         inkscape:export-xdpi="96"
         inkscape:export-ydpi="96" />
      <rect
         style="fill:#002750;fill-opacity:1;stroke:none;stroke-width:0.942993;stroke-miterlimit:4;stroke-dasharray:none"
         id="rect946-9"
         width="1.1706542"
         height="10.687033"
         x="-164.61642"
         y="74.435211"
         transform="matrix(0.92003768,0.39182989,-0.4938399,0.86955285,0,0)"
         inkscape:export-xdpi="96"
         inkscape:export-ydpi="96"
         ry="0.58532709" />
    </g>
    <path
       id="path8310"
       style="color:#000000;font-style:normal;font-variant:normal;font-weight:normal;font-stretch:normal;font-size:medium;line-height:normal;font-family:sans-serif;font-variant-ligatures:normal;font-variant-position:normal;font-variant-caps:normal;font-variant-numeric:normal;font-variant-alternates:normal;font-variant-east-asian:normal;font-feature-settings:normal;font-variation-settings:normal;text-indent:0;text-align:start;text-decoration:none;text-decoration-line:none;text-decoration-style:solid;text-decoration-color:#000000;letter-spacing:normal;word-spacing:normal;text-transform:none;writing-mode:lr-tb;direction:ltr;text-orientation:mixed;dominant-baseline:auto;baseline-shift:baseline;text-anchor:start;white-space:normal;shape-padding:0;shape-margin:0;inline-size:0;clip-rule:nonzero;display:inline;overflow:visible;visibility:visible;opacity:1;isolation:auto;mix-blend-mode:normal;color-interpolation:sRGB;color-interpolation-filters:linearRGB;solid-color:#000000;solid-opacity:1;vector-effect:none;fill:#003266;fill-opacity:1;fill-rule:nonzero;stroke:none;stroke-width:8.70656;stroke-linecap:butt;stroke-linejoin:miter;stroke-miterlimit:4;stroke-dasharray:none;stroke-dashoffset:0;stroke-opacity:1;color-rendering:auto;image-rendering:auto;shape-rendering:auto;text-rendering:auto;enable-background:accumulate;stop-color:#000000;stop-opacity:1"
       d="m 103.18204,128.9656 c -26.248974,0 -49.999617,1.49098 -67.395056,3.93229 -8.697612,1.22065 -15.784068,2.64955 -21.013851,4.38483 -2.614887,0.86762 -4.7779482,1.7736 -6.6058253,3.02723 -1.797782,1.23295 -3.6869622,3.21966 -3.7502723,6.1481 H 15.449329 c 0.616006,-0.30336 1.041264,-0.58449 2.05455,-0.92068 4.32984,-1.4367 11.088754,-2.84762 19.484619,-4.02591 16.791813,-2.3566 40.274709,-3.83347 66.193542,-3.83347 25.91883,0 49.39658,1.47687 66.18841,3.83347 8.39585,1.17829 15.13383,2.58921 19.46377,4.02591 1.00966,0.33508 1.44318,0.61742 2.05979,0.92068 h 11.04789 c -0.0604,-2.92848 -1.97333,-4.91515 -3.77111,-6.1481 -1.82788,-1.25363 -3.97009,-2.15961 -6.58499,-3.02723 -5.22978,-1.73528 -12.31623,-3.16418 -21.01385,-4.38483 -17.39544,-2.44131 -41.14084,-3.93229 -67.38991,-3.93229 z" />
    <rect
       style="fill:#003266;fill-opacity:1;stroke:none;stroke-width:11.0334;stroke-miterlimit:4;stroke-dasharray:none"
       id="rect946-9-9"
       width="12.736596"
       height="134.47179"
       x="154.13332"
       y="-45.751759"
       transform="matrix(0.85554345,0.51773102,-0.42617372,0.90464134,0,0)"
       ry="7.3649993"
       inkscape:export-xdpi="96"
       inkscape:export-ydpi="96" />
    <g
       id="g21755"
       transform="matrix(10.065407,0,0,10.065407,2045.8561,38.136047)">
      <g
         id="g19543">
        <path
           id="path954"
           style="fill:#008080;stroke-width:1.03332"
           d="m -765,40.625 2.25,46.839844 h 13.875 l 1.35742,-42.408203 a 35.468758,4.9777746 0 0 1 -17.41992,-4.285157 35.468758,4.9777746 0 0 1 0.0156,-0.146484 z"
           transform="scale(0.26458333)" />
        <path
           id="path956"
           style="fill:#0c6144;fill-opacity:1;stroke-width:1.03332"
           d="M -761.13477,43.013672 -759,87.464844 h 13.875 l 1.34961,-42.136719 a 35.468758,4.9777746 0 0 1 -17.35938,-2.314453 z"
           transform="scale(0.26458333)" />
        <path
           id="path958"
           style="fill:#11446f;fill-opacity:1;stroke-width:1.03332"
           d="m -754.82617,44.251953 2.07617,43.212891 h 13.875 l 1.33984,-41.845703 a 35.468758,4.9777746 0 0 1 -17.29101,-1.367188 z"
           transform="scale(0.26458333)" />
        <path
           id="path960"
           style="fill:#004e80;fill-opacity:1;stroke-width:1.03332"
           d="m -744.77734,45.261719 2.02734,42.203125 h 13.875 l 1.33594,-41.722656 a 35.468758,4.9777746 0 0 1 -1.92969,0.0078 35.468758,4.9777746 0 0 1 -15.30859,-0.488281 z"
           transform="scale(0.26458333)" />
        <path
           id="path962"
           style="fill:#171c69;fill-opacity:1;stroke-width:1.03332"
           d="m -713.64648,45.226562 a 35.468758,4.9777746 0 0 1 -15.82227,0.523438 35.468758,4.9777746 0 0 1 -1.41016,-0.0039 l 2.00391,41.71875 H -715 Z"
           transform="scale(0.26458333)" />
        <path
           id="path964"
           style="fill:#144d5f;fill-opacity:1;stroke-width:1.03332"
           d="m -707.94336,44.728516 a 35.468758,4.9777746 0 0 1 -17.25,0.986328 l 2.00586,41.75 h 13.875 z"
           transform="scale(0.26458333)" />
        <path
           id="path966"
           style="fill:#186ca1;fill-opacity:1;stroke-width:1.03332"
           d="m -694.01562,40.625 a 35.468758,4.9777746 0 0 1 0.0156,0.146484 35.468758,4.9777746 0 0 1 -17.34961,4.279297 l 2.03711,42.414063 h 13.875 l 1.5,-46.839844 z"
           transform="scale(0.26458333)" />
      </g>
      <path
         id="rect1052"
         style="fill:#003266;fill-opacity:1;stroke:none;stroke-width:0.26109;stroke-opacity:1"
         d="m -183.75519,16.045016 a 1.1301426,9.3844401 89.938233 0 1 -9.25938,0.957815 1.1301426,9.3844401 89.938233 0 1 -9.18239,-0.885979 l 0.12971,2.310285 a 1.1301426,9.3844401 89.938233 0 0 9.04234,0.81769 1.1301426,9.3844401 89.938233 0 0 0.001,0 1.1301426,9.3844401 89.938233 0 0 0.15607,0 1.1301426,9.3844401 89.938233 0 0 9.02735,-0.909036 z"
         inkscape:export-xdpi="96"
         inkscape:export-ydpi="96" />
      <path
         id="rect1052-7"
         style="fill:#003266;fill-opacity:1;stroke:none;stroke-width:0.280817;stroke-opacity:1"
         d="m -183.9658,22.02993 a 1.3170362,9.3155379 89.92708 0 1 -9.06162,1.024744 1.3170362,9.3155379 89.92708 0 1 -8.8236,-0.883151 l 0.0528,1.112594 a 1.3170362,9.3155379 89.92708 0 0 8.77076,0.861963 1.3170362,9.3155379 89.92708 0 0 9.02622,-1.00459 z"
         inkscape:export-xdpi="96"
         inkscape:export-ydpi="96" />
    </g>
    <path
       id="path8308"
       style="color:#000000;font-style:normal;font-variant:normal;font-weight:normal;font-stretch:normal;font-size:medium;line-height:normal;font-family:sans-serif;font-variant-ligatures:normal;font-variant-position:normal;font-variant-caps:normal;font-variant-numeric:normal;font-variant-alternates:normal;font-variant-east-asian:normal;font-feature-settings:normal;font-variation-settings:normal;text-indent:0;text-align:start;text-decoration:none;text-decoration-line:none;text-decoration-style:solid;text-decoration-color:#000000;letter-spacing:normal;word-spacing:normal;text-transform:none;writing-mode:lr-tb;direction:ltr;text-orientation:mixed;dominant-baseline:auto;baseline-shift:baseline;text-anchor:start;white-space:normal;shape-padding:0;shape-margin:0;inline-size:0;clip-rule:nonzero;display:inline;overflow:visible;visibility:visible;opacity:1;isolation:auto;mix-blend-mode:normal;color-interpolation:sRGB;color-interpolation-filters:linearRGB;solid-color:#000000;solid-opacity:1;vector-effect:none;fill:#003266;fill-opacity:1;fill-rule:nonzero;stroke:none;stroke-width:8.70656;stroke-linecap:butt;stroke-linejoin:miter;stroke-miterlimit:4;stroke-dasharray:none;stroke-dashoffset:0;stroke-opacity:1;color-rendering:auto;image-rendering:auto;shape-rendering:auto;text-rendering:auto;enable-background:accumulate;stop-color:#000000;stop-opacity:1"
       d="m 201.942,146.45805 h -11.04789 c 0.0805,0.0412 0.18923,0.0826 0.28082,0.12482 -0.76597,0.35319 -1.19687,0.63996 -2.3406,1.01948 -4.32994,1.4367 -11.06793,2.85283 -19.46379,4.03112 -16.79181,2.3566 -40.26958,3.85426 -66.18841,3.85427 -25.918822,-1e-5 -49.401718,-1.49767 -66.193531,-3.85427 -8.395864,-1.17829 -15.154787,-2.59442 -19.48462,-4.03112 -1.148063,-0.38087 -1.567584,-0.66532 -2.335472,-1.01948 0.09059,-0.0422 0.197277,-0.0835 0.280822,-0.12482 H 4.4170354 c -8.437e-4,0.0494 -0.040235,0.0755 -0.040235,0.12482 0,3.01066 1.963961,4.99852 3.7918387,6.25213 1.8278771,1.25364 3.9909385,2.1596 6.6058255,3.02724 5.229783,1.73528 12.316137,3.17976 21.013751,4.40042 17.395445,2.44132 41.146182,3.91149 67.395154,3.91149 26.24908,0 49.99447,-1.47017 67.38991,-3.91149 8.69762,-1.22066 15.78407,-2.66514 21.01385,-4.40042 2.6149,-0.86764 4.75712,-1.7736 6.585,-3.02724 1.82788,-1.25361 3.81268,-3.24147 3.81268,-6.25213 0,-0.0494 -0.0403,-0.0755 -0.0403,-0.12482 z" />
  </g>
</svg>
