<?xml version="1.0" encoding="UTF-8" standalone="no"?>
<svg
   xmlns:dc="http://purl.org/dc/elements/1.1/"
   xmlns:cc="http://creativecommons.org/ns#"
   xmlns:rdf="http://www.w3.org/1999/02/22-rdf-syntax-ns#"
   xmlns:svg="http://www.w3.org/2000/svg"
   xmlns="http://www.w3.org/2000/svg"
   xmlns:sodipodi="http://sodipodi.sourceforge.net/DTD/sodipodi-0.dtd"
   xmlns:inkscape="http://www.inkscape.org/namespaces/inkscape"
   width="210mm"
   height="297mm"
   viewBox="0 0 210 297"
   version="1.1"
   id="svg8"
   inkscape:version="1.0.1 (3bc2e813f5, 2020-09-07)"
   sodipodi:docname="goldbucketempty.svg">
  <defs
     id="defs2" />
  <sodipodi:namedview
     id="base"
     pagecolor="#ffffff"
     bordercolor="#666666"
     borderopacity="1.0"
     inkscape:pageopacity="0.0"
     inkscape:pageshadow="2"
     inkscape:zoom="0.087860286"
     inkscape:cx="-719.88829"
     inkscape:cy="47.053569"
     inkscape:document-units="mm"
     inkscape:current-layer="layer1"
     inkscape:document-rotation="0"
     showgrid="false"
     showguides="false"
     inkscape:window-width="1920"
     inkscape:window-height="1017"
     inkscape:window-x="-8"
     inkscape:window-y="-8"
     inkscape:window-maximized="1" />
  <metadata
     id="metadata5">
    <rdf:RDF>
      <cc:Work
         rdf:about="">
        <dc:format>image/svg+xml</dc:format>
        <dc:type
           rdf:resource="http://purl.org/dc/dcmitype/StillImage" />
        <dc:title />
      </cc:Work>
    </rdf:RDF>
  </metadata>
  <g
     inkscape:label="Layer 1"
     inkscape:groupmode="layer"
     id="layer1">
    <ellipse
       style="fill:#1d1c00;fill-opacity:1;stroke:none;stroke-width:7.95872;stroke-miterlimit:4;stroke-dasharray:none;stroke-opacity:1"
       id="path900"
       cx="107.32751"
       cy="136.12697"
       rx="86.344673"
       ry="12.117827"
       inkscape:export-xdpi="96"
       inkscape:export-ydpi="96" />
    <rect
       style="fill:#4a4600;fill-opacity:1;stroke:none;stroke-width:8.67632;stroke-miterlimit:4;stroke-dasharray:none"
       id="rect946-9"
       width="10.770992"
       height="98.32959"
       x="151.88193"
       y="-23.66954"
       transform="matrix(0.92003768,0.39182989,-0.4938399,0.86955285,0,0)"
       inkscape:export-xdpi="96"
       inkscape:export-ydpi="96"
       ry="5.3854961" />
    <path
       id="path8310"
       style="color:#000000;font-style:normal;font-variant:normal;font-weight:normal;font-stretch:normal;font-size:medium;line-height:normal;font-family:sans-serif;font-variant-ligatures:normal;font-variant-position:normal;font-variant-caps:normal;font-variant-numeric:normal;font-variant-alternates:normal;font-variant-east-asian:normal;font-feature-settings:normal;font-variation-settings:normal;text-indent:0;text-align:start;text-decoration:none;text-decoration-line:none;text-decoration-style:solid;text-decoration-color:#000000;letter-spacing:normal;word-spacing:normal;text-transform:none;writing-mode:lr-tb;direction:ltr;text-orientation:mixed;dominant-baseline:auto;baseline-shift:baseline;text-anchor:start;white-space:normal;shape-padding:0;shape-margin:0;inline-size:0;clip-rule:nonzero;display:inline;overflow:visible;visibility:visible;opacity:1;isolation:auto;mix-blend-mode:normal;color-interpolation:sRGB;color-interpolation-filters:linearRGB;solid-color:#000000;solid-opacity:1;vector-effect:none;fill:#666000;fill-opacity:1;fill-rule:nonzero;stroke:none;stroke-width:7.95872;stroke-linecap:butt;stroke-linejoin:miter;stroke-miterlimit:4;stroke-dasharray:none;stroke-dashoffset:0;stroke-opacity:1;color-rendering:auto;image-rendering:auto;shape-rendering:auto;text-rendering:auto;enable-background:accumulate;stop-color:#000000;stop-opacity:1"
       d="m 107.32989,119.89929 c -23.994299,0 -45.704859,1.36291 -61.606099,3.59452 -7.95053,1.11581 -14.42829,2.42196 -19.20886,4.00818 -2.39028,0.79311 -4.36754,1.62127 -6.03841,2.76721 -1.64336,1.12704 -3.37026,2.94311 -3.42814,5.62002 h 10.08467 c 0.56309,-0.27732 0.95182,-0.5343 1.87807,-0.8416 3.95792,-1.3133 10.13628,-2.60302 17.81097,-3.68012 15.34947,-2.15418 36.81529,-3.50418 60.507799,-3.50418 23.69251,0 45.15363,1.35 60.5031,3.50418 7.67469,1.0771 13.83391,2.36682 17.79193,3.68012 0.92293,0.30629 1.31921,0.56438 1.88286,0.8416 h 10.09892 c -0.0552,-2.67694 -1.80382,-4.49298 -3.44718,-5.62002 -1.67087,-1.14594 -3.62909,-1.9741 -6.01937,-2.76721 -4.78057,-1.58622 -11.25832,-2.89237 -19.20885,-4.00818 -15.90125,-2.23161 -37.60702,-3.59452 -61.60141,-3.59452 z" />
    <rect
       style="fill:#666000;fill-opacity:1;stroke:none;stroke-width:10.0857;stroke-miterlimit:4;stroke-dasharray:none"
       id="rect946-9-9"
       width="11.642577"
       height="122.92123"
       x="153.58965"
       y="-46.864418"
       transform="matrix(0.85554345,0.51773102,-0.42617372,0.90464134,0,0)"
       ry="6.7323775"
       inkscape:export-xdpi="96"
       inkscape:export-ydpi="96" />
    <path
       id="path954"
       style="fill:#806300;fill-opacity:1;stroke-width:2.5155"
       d="m 20.830751,135.76857 5.47744,114.02629 h 33.77708 l 3.30448,-103.23797 a 86.344671,12.117828 0 0 1 -42.40682,-10.43173 86.344671,12.117828 0 0 1 0.0368,-0.35662 z" />
    <path
       id="path956"
       style="fill:#5c610c;fill-opacity:1;stroke-width:2.5155"
       d="m 30.240261,141.58352 5.19681,108.21134 h 33.77718 l 3.28543,-102.57707 a 86.344671,12.117828 0 0 1 -42.25942,-5.63427 z" />
    <path
       id="path958"
       style="fill:#6d6f11;fill-opacity:1;stroke-width:2.5155"
       d="m 45.597831,144.59797 5.0542,105.19689 h 33.77708 l 3.26169,-101.86863 a 86.344671,12.117828 0 0 1 -42.09297,-3.32826 z" />
    <path
       id="path960"
       style="fill:#7b8000;fill-opacity:1;stroke-width:2.5155"
       d="m 70.060541,147.05613 4.93532,102.73873 h 33.777179 l 3.25212,-101.56908 a 86.344671,12.117828 0 0 1 -4.69757,0.0193 86.344671,12.117828 0 0 1 -37.267049,-1.18867 z" />
    <path
       id="path962"
       style="fill:#695617;fill-opacity:1;stroke-width:2.5155"
       d="m 145.84512,146.97054 a 86.344671,12.117828 0 0 1 -38.51753,1.27425 86.344671,12.117828 0 0 1 -3.43293,-0.009 l 4.87838,101.55957 h 33.77708 z" />
    <path
       id="path964"
       style="fill:#5f5214;fill-opacity:1;stroke-width:2.5155"
       d="m 159.72872,145.75811 a 86.344671,12.117828 0 0 1 -41.99315,2.40111 l 4.88297,101.63564 h 33.77718 z" />
    <path
       id="path966"
       style="fill:#a17b18;fill-opacity:1;stroke-width:2.5155"
       d="m 193.63424,135.76857 a 86.344671,12.117828 0 0 1 0.0368,0.35662 86.344671,12.117828 0 0 1 -42.23559,10.41747 l 4.95907,103.25223 h 33.77717 l 3.65153,-114.0263 z" />
    <path
       id="rect1052"
       style="fill:#666000;fill-opacity:1;stroke:none;stroke-width:2.40225;stroke-opacity:1"
       d="m 192.43602,184.4991 a 10.398252,86.344653 89.938233 0 1 -85.194,8.81269 10.398252,86.344653 89.938233 0 1 -84.485619,-8.15174 l 1.19344,21.25654 a 10.398252,86.344653 89.938233 0 0 83.197039,7.52343 10.398252,86.344653 89.938233 0 0 0.009,0 10.398252,86.344653 89.938233 0 0 1.43598,0 10.398252,86.344653 89.938233 0 0 83.05913,-8.36389 z"
       inkscape:export-xdpi="96"
       inkscape:export-ydpi="96" />
    <path
       id="rect1052-7"
       style="fill:#666000;fill-opacity:1;stroke:none;stroke-width:2.58375;stroke-opacity:1"
       d="m 190.49823,239.56528 a 12.117828,85.710695 89.92708 0 1 -83.37444,9.4285 12.117828,85.710695 89.92708 0 1 -81.184459,-8.12572 l 0.4858,10.23679 a 12.117828,85.710695 89.92708 0 0 80.698289,7.93077 12.117828,85.710695 89.92708 0 0 83.04873,-9.24306 z"
       inkscape:export-xdpi="96"
       inkscape:export-ydpi="96" />
    <path
       id="path8308"
       style="color:#000000;font-style:normal;font-variant:normal;font-weight:normal;font-stretch:normal;font-size:medium;line-height:normal;font-family:sans-serif;font-variant-ligatures:normal;font-variant-position:normal;font-variant-caps:normal;font-variant-numeric:normal;font-variant-alternates:normal;font-variant-east-asian:normal;font-feature-settings:normal;font-variation-settings:normal;text-indent:0;text-align:start;text-decoration:none;text-decoration-line:none;text-decoration-style:solid;text-decoration-color:#000000;letter-spacing:normal;word-spacing:normal;text-transform:none;writing-mode:lr-tb;direction:ltr;text-orientation:mixed;dominant-baseline:auto;baseline-shift:baseline;text-anchor:start;white-space:normal;shape-padding:0;shape-margin:0;inline-size:0;clip-rule:nonzero;display:inline;overflow:visible;visibility:visible;opacity:1;isolation:auto;mix-blend-mode:normal;color-interpolation:sRGB;color-interpolation-filters:linearRGB;solid-color:#000000;solid-opacity:1;vector-effect:none;fill:#666000;fill-opacity:1;fill-rule:nonzero;stroke:none;stroke-width:7.95872;stroke-linecap:butt;stroke-linejoin:miter;stroke-miterlimit:4;stroke-dasharray:none;stroke-dashoffset:0;stroke-opacity:1;color-rendering:auto;image-rendering:auto;shape-rendering:auto;text-rendering:auto;enable-background:accumulate;stop-color:#000000;stop-opacity:1"
       d="m 197.60679,135.88922 h -10.09892 c 0.0736,0.0377 0.17297,0.0755 0.2567,0.11409 -0.70018,0.32285 -1.09407,0.58499 -2.13956,0.93191 -3.95801,1.31329 -10.11724,2.60778 -17.79193,3.68486 -15.34947,2.15418 -36.81059,3.5232 -60.5031,3.52321 -23.692509,-1e-5 -45.158329,-1.36903 -60.507799,-3.52321 -7.67469,-1.07708 -13.85305,-2.37157 -17.81097,-3.68486 -1.04944,-0.34816 -1.43293,-0.60817 -2.13487,-0.93191 0.0828,-0.0386 0.18034,-0.0764 0.25671,-0.11409 h -10.08467 c -10e-4,0.0451 -0.0368,0.069 -0.0368,0.11409 0,2.75206 1.79527,4.56916 3.46614,5.7151 1.67087,1.14595 3.64813,1.97411 6.03841,2.76722 4.78057,1.58621 11.25823,2.90663 19.20876,4.02244 15.90125,2.23161 37.6119,3.5755 61.606189,3.5755 23.99439,0 45.70017,-1.34389 61.60141,-3.5755 7.95053,-1.11581 14.42829,-2.43623 19.20885,-4.02244 2.39029,-0.79311 4.3485,-1.62127 6.01937,-2.76722 1.67087,-1.14594 3.48519,-2.96304 3.48519,-5.7151 0,-0.0451 -0.0368,-0.069 -0.0368,-0.11409 z" />
  </g>
</svg>
