<?xml version="1.0" encoding="UTF-8" standalone="no"?>
<svg
   xmlns:dc="http://purl.org/dc/elements/1.1/"
   xmlns:cc="http://creativecommons.org/ns#"
   xmlns:rdf="http://www.w3.org/1999/02/22-rdf-syntax-ns#"
   xmlns:svg="http://www.w3.org/2000/svg"
   xmlns="http://www.w3.org/2000/svg"
   xmlns:sodipodi="http://sodipodi.sourceforge.net/DTD/sodipodi-0.dtd"
   xmlns:inkscape="http://www.inkscape.org/namespaces/inkscape"
   width="210mm"
   height="297mm"
   viewBox="0 0 210 297"
   version="1.1"
   id="svg8"
   inkscape:version="1.0.1 (3bc2e813f5, 2020-09-07)"
   sodipodi:docname="purplebucketempty.svg">
  <defs
     id="defs2" />
  <sodipodi:namedview
     id="base"
     pagecolor="#ffffff"
     bordercolor="#666666"
     borderopacity="1.0"
     inkscape:pageopacity="0.0"
     inkscape:pageshadow="2"
     inkscape:zoom="0.4665165"
     inkscape:cx="-231.03424"
     inkscape:cy="310.18715"
     inkscape:document-units="mm"
     inkscape:current-layer="layer1"
     inkscape:document-rotation="0"
     showgrid="false"
     showguides="false"
     inkscape:window-width="1920"
     inkscape:window-height="1017"
     inkscape:window-x="-8"
     inkscape:window-y="-8"
     inkscape:window-maximized="1" />
  <metadata
     id="metadata5">
    <rdf:RDF>
      <cc:Work
         rdf:about="">
        <dc:format>image/svg+xml</dc:format>
        <dc:type
           rdf:resource="http://purl.org/dc/dcmitype/StillImage" />
        <dc:title />
      </cc:Work>
    </rdf:RDF>
  </metadata>
  <g
     inkscape:label="Layer 1"
     inkscape:groupmode="layer"
     id="layer1">
    <ellipse
       style="fill:#0c001d;fill-opacity:1;stroke:none;stroke-width:9.01903;stroke-miterlimit:4;stroke-dasharray:none;stroke-opacity:1"
       id="path900"
       cx="104.83418"
       cy="124.60758"
       rx="97.848061"
       ry="13.732241"
       inkscape:export-xdpi="96"
       inkscape:export-ydpi="96" />
    <rect
       style="fill:#170042;fill-opacity:1;stroke:none;stroke-width:9.83225;stroke-miterlimit:4;stroke-dasharray:none"
       id="rect946-9"
       width="12.205972"
       height="111.4297"
       x="142.67938"
       y="-47.662048"
       transform="matrix(0.92003768,0.39182989,-0.4938399,0.86955285,0,0)"
       inkscape:export-xdpi="96"
       inkscape:export-ydpi="96"
       ry="6.1029859" />
    <path
       id="path8310"
       style="color:#000000;font-style:normal;font-variant:normal;font-weight:normal;font-stretch:normal;font-size:medium;line-height:normal;font-family:sans-serif;font-variant-ligatures:normal;font-variant-position:normal;font-variant-caps:normal;font-variant-numeric:normal;font-variant-alternates:normal;font-variant-east-asian:normal;font-feature-settings:normal;font-variation-settings:normal;text-indent:0;text-align:start;text-decoration:none;text-decoration-line:none;text-decoration-style:solid;text-decoration-color:#000000;letter-spacing:normal;word-spacing:normal;text-transform:none;writing-mode:lr-tb;direction:ltr;text-orientation:mixed;dominant-baseline:auto;baseline-shift:baseline;text-anchor:start;white-space:normal;shape-padding:0;shape-margin:0;inline-size:0;clip-rule:nonzero;display:inline;overflow:visible;visibility:visible;opacity:1;isolation:auto;mix-blend-mode:normal;color-interpolation:sRGB;color-interpolation-filters:linearRGB;solid-color:#000000;solid-opacity:1;vector-effect:none;fill:#240066;fill-opacity:1;fill-rule:nonzero;stroke:none;stroke-width:9.01903;stroke-linecap:butt;stroke-linejoin:miter;stroke-miterlimit:4;stroke-dasharray:none;stroke-dashoffset:0;stroke-opacity:1;color-rendering:auto;image-rendering:auto;shape-rendering:auto;text-rendering:auto;enable-background:accumulate;stop-color:#000000;stop-opacity:1"
       d="m 104.83689,106.21794 c -27.190978,0 -51.793951,1.5445 -69.813664,4.07342 -9.00975,1.26446 -16.350512,2.74463 -21.767982,4.54218 -2.708726,0.89876 -4.9494074,1.83725 -6.8428898,3.13587 -1.8622973,1.27719 -3.819265,3.3352 -3.8848511,6.36874 H 13.955712 c 0.638107,-0.31426 1.078628,-0.60547 2.128276,-0.95371 4.48522,-1.48827 11.486702,-2.94981 20.183858,-4.17041 17.394434,-2.44117 41.72006,-3.97104 68.569044,-3.97104 26.84897,0 51.16928,1.52987 68.56371,3.97104 8.69716,1.2206 15.67695,2.68214 20.16228,4.17041 1.04588,0.3471 1.49496,0.63956 2.13371,0.95371 h 11.44436 c -0.0626,-3.03357 -2.04414,-5.09155 -3.90644,-6.36874 -1.89348,-1.29862 -4.11258,-2.23711 -6.82131,-3.13587 -5.41747,-1.79755 -12.75823,-3.27772 -21.76798,-4.54218 -18.01971,-2.52892 -42.61727,-4.07342 -69.80833,-4.07342 z" />
    <rect
       style="fill:#240066;fill-opacity:1;stroke:none;stroke-width:11.4293;stroke-miterlimit:4;stroke-dasharray:none"
       id="rect946-9-9"
       width="13.193674"
       height="139.29759"
       x="146.07172"
       y="-69.87587"
       transform="matrix(0.85554345,0.51773102,-0.42617372,0.90464134,0,0)"
       ry="7.6293073"
       inkscape:export-xdpi="96"
       inkscape:export-ydpi="96" />
    <path
       id="path954"
       style="fill:#400080;fill-opacity:1;stroke-width:2.85062"
       d="M 6.8137808,124.20143 13.020962,253.41902 H 51.298039 L 55.042757,136.42705 A 97.848051,13.732242 0 0 1 6.9862418,124.60554 97.848051,13.732242 0 0 1 7.0279768,124.2014 Z" />
    <path
       id="path956"
       style="fill:#240c61;fill-opacity:1;stroke-width:2.85062"
       d="m 17.476884,130.79109 5.889168,122.62793 h 38.27718 l 3.723135,-116.24303 a 97.848051,13.732242 0 0 1 -47.889483,-6.3849 z" />
    <path
       id="path958"
       style="fill:#40116f;fill-opacity:1;stroke-width:2.85062"
       d="m 34.880482,134.20714 5.727554,119.21188 h 38.277078 l 3.696244,-115.44021 a 97.848051,13.732242 0 0 1 -47.700876,-3.77167 z" />
    <path
       id="path960"
       style="fill:#5f0080;fill-opacity:1;stroke-width:2.85062"
       d="m 62.60227,136.9928 5.592841,116.42622 H 106.4723 l 3.6854,-115.10075 a 97.848051,13.732242 0 0 1 -5.32342,0.022 97.848051,13.732242 0 0 1 -42.23201,-1.34703 z" />
    <path
       id="path962"
       style="fill:#421769;fill-opacity:1;stroke-width:2.85062"
       d="m 148.48336,136.89581 a 97.848051,13.732242 0 0 1 -43.64908,1.444 97.848051,13.732242 0 0 1 -3.89029,-0.0105 l 5.52831,115.08998 h 38.27708 z" />
    <path
       id="path964"
       style="fill:#2d145f;fill-opacity:1;stroke-width:2.85062"
       d="m 164.21662,135.52185 a 97.848051,13.732242 0 0 1 -47.58774,2.72099 l 5.53351,115.17618 h 38.27718 z" />
    <path
       id="path966"
       style="fill:#a11878;fill-opacity:1;stroke-width:2.85062"
       d="m 202.63926,124.20143 a 97.848051,13.732242 0 0 1 0.0417,0.40413 97.848051,13.732242 0 0 1 -47.86247,11.80535 l 5.61974,117.00815 h 38.27718 l 4.13801,-129.2176 z" />
    <path
       id="rect1052"
       style="fill:#240066;fill-opacity:1;stroke:none;stroke-width:2.72228;stroke-opacity:1"
       d="m 201.28139,179.42415 a 11.783572,97.848033 89.938233 0 1 -96.54408,9.98678 11.783572,97.848033 89.938233 0 1 -95.7413415,-9.23778 l 1.3524435,24.08849 a 11.783572,97.848033 89.938233 0 0 94.281088,8.52574 11.783572,97.848033 89.938233 0 0 0.0104,0 11.783572,97.848033 89.938233 0 0 1.62729,0 11.783572,97.848033 89.938233 0 0 94.12479,-9.47818 z"
       inkscape:export-xdpi="96"
       inkscape:export-ydpi="96" />
    <path
       id="rect1052-7"
       style="fill:#240066;fill-opacity:1;stroke:none;stroke-width:2.92797;stroke-opacity:1"
       d="m 199.08544,241.8266 a 13.732242,97.129616 89.92708 0 1 -94.48211,10.68462 13.732242,97.129616 89.92708 0 1 -92.000368,-9.20829 l 0.55052,11.60061 a 13.732242,97.129616 89.92708 0 0 91.449428,8.98736 13.732242,97.129616 89.92708 0 0 94.11301,-10.47448 z"
       inkscape:export-xdpi="96"
       inkscape:export-ydpi="96" />
    <path
       id="path8308"
       style="color:#000000;font-style:normal;font-variant:normal;font-weight:normal;font-stretch:normal;font-size:medium;line-height:normal;font-family:sans-serif;font-variant-ligatures:normal;font-variant-position:normal;font-variant-caps:normal;font-variant-numeric:normal;font-variant-alternates:normal;font-variant-east-asian:normal;font-feature-settings:normal;font-variation-settings:normal;text-indent:0;text-align:start;text-decoration:none;text-decoration-line:none;text-decoration-style:solid;text-decoration-color:#000000;letter-spacing:normal;word-spacing:normal;text-transform:none;writing-mode:lr-tb;direction:ltr;text-orientation:mixed;dominant-baseline:auto;baseline-shift:baseline;text-anchor:start;white-space:normal;shape-padding:0;shape-margin:0;inline-size:0;clip-rule:nonzero;display:inline;overflow:visible;visibility:visible;opacity:1;isolation:auto;mix-blend-mode:normal;color-interpolation:sRGB;color-interpolation-filters:linearRGB;solid-color:#000000;solid-opacity:1;vector-effect:none;fill:#240066;fill-opacity:1;fill-rule:nonzero;stroke:none;stroke-width:9.01903;stroke-linecap:butt;stroke-linejoin:miter;stroke-miterlimit:4;stroke-dasharray:none;stroke-dashoffset:0;stroke-opacity:1;color-rendering:auto;image-rendering:auto;shape-rendering:auto;text-rendering:auto;enable-background:accumulate;stop-color:#000000;stop-opacity:1"
       d="m 207.14104,124.33815 h -11.44436 c 0.0834,0.0427 0.19602,0.0855 0.29091,0.1293 -0.79347,0.36586 -1.23983,0.66292 -2.42461,1.05607 -4.48533,1.48826 -11.46512,2.95519 -20.16228,4.17577 -17.39442,2.44119 -41.71474,3.99259 -68.56371,3.9926 -26.848982,-1e-5 -51.174608,-1.55141 -68.569032,-3.9926 -8.697165,-1.22058 -15.698638,-2.68751 -20.183859,-4.17577 -1.189268,-0.39455 -1.62385,-0.68921 -2.419296,-1.05607 0.09384,-0.0438 0.204362,-0.0866 0.290909,-0.1293 H 2.5275031 c -9.295e-4,0.0511 -0.041735,0.0782 -0.041735,0.1293 0,3.11871 2.0344422,5.17789 3.9279152,6.47651 1.8934823,1.29861 4.1341636,2.23709 6.8428896,3.13588 5.417471,1.79753 12.758121,3.29386 21.767871,4.55833 18.019713,2.52892 42.622797,4.05185 69.813776,4.05185 27.19106,0 51.78862,-1.52293 69.80833,-4.05185 9.00975,-1.26447 16.35051,-2.7608 21.76797,-4.55833 2.70874,-0.89879 4.92783,-1.83727 6.82131,-3.13588 1.89349,-1.29862 3.94951,-3.3578 3.94951,-6.47651 0,-0.0511 -0.0417,-0.0782 -0.0417,-0.1293 z" />
  </g>
</svg>
