<svg version="1.1" xmlns="http://www.w3.org/2000/svg" xmlns:xlink="http://www.w3.org/1999/xlink" width="200.6997" height="246.38059" viewBox="0,0,200.6997,246.38059"><defs><linearGradient x1="214.85804" y1="254.85264" x2="217.97721" y2="280.63598" gradientUnits="userSpaceOnUse" id="color-1"><stop offset="0" stop-color="#47de21"/><stop offset="1" stop-color="#287d13"/></linearGradient><linearGradient x1="252.01201" y1="53.64597" x2="252.01201" y2="193.51352" gradientUnits="userSpaceOnUse" id="color-2"><stop offset="0" stop-color="#4caf33"/><stop offset="1" stop-color="#309516"/></linearGradient><linearGradient x1="254.91915" y1="112.66838" x2="254.91915" y2="288.48912" gradientUnits="userSpaceOnUse" id="color-3"><stop offset="0" stop-color="#c47c00"/><stop offset="1" stop-color="#643f00"/></linearGradient><linearGradient x1="202.03499" y1="61.8913" x2="202.03499" y2="72.66399" gradientUnits="userSpaceOnUse" id="color-4"><stop offset="0" stop-color="#52d930"/><stop offset="1" stop-color="#4ba634"/></linearGradient><linearGradient x1="219.61913" y1="87.91094" x2="208.89066" y2="86.93593" gradientUnits="userSpaceOnUse" id="color-5"><stop offset="0" stop-color="#52d930"/><stop offset="1" stop-color="#4ba634"/></linearGradient><linearGradient x1="179.16055" y1="86.66858" x2="188.56807" y2="81.41983" gradientUnits="userSpaceOnUse" id="color-6"><stop offset="0" stop-color="#52d930"/><stop offset="1" stop-color="#4ba634"/></linearGradient><linearGradient x1="188.76998" y1="69.47341" x2="193.14574" y2="79.31736" gradientUnits="userSpaceOnUse" id="color-7"><stop offset="0" stop-color="#52d930"/><stop offset="1" stop-color="#4ba634"/></linearGradient><linearGradient x1="203.19087" y1="92.61473" x2="200.04924" y2="82.31032" gradientUnits="userSpaceOnUse" id="color-8"><stop offset="0" stop-color="#52d930"/><stop offset="1" stop-color="#4ba634"/></linearGradient><linearGradient x1="184.41543" y1="66.58778" x2="194.96189" y2="64.39167" gradientUnits="userSpaceOnUse" id="color-9"><stop offset="0" stop-color="#52d930"/><stop offset="1" stop-color="#4ba634"/></linearGradient><linearGradient x1="221.59521" y1="67.24362" x2="214.12732" y2="75.00772" gradientUnits="userSpaceOnUse" id="color-10"><stop offset="0" stop-color="#52d930"/><stop offset="1" stop-color="#4ba634"/></linearGradient><linearGradient x1="209.16811" y1="79.74374" x2="202.11177" y2="71.60378" gradientUnits="userSpaceOnUse" id="color-11"><stop offset="0" stop-color="#52d930"/><stop offset="1" stop-color="#4ba634"/></linearGradient><linearGradient x1="160.18959" y1="112.2892" x2="170.83432" y2="113.94463" gradientUnits="userSpaceOnUse" id="color-12"><stop offset="0" stop-color="#52d930"/><stop offset="1" stop-color="#4ba634"/></linearGradient><linearGradient x1="188.60231" y1="98.91233" x2="185.99025" y2="109.36355" gradientUnits="userSpaceOnUse" id="color-13"><stop offset="0" stop-color="#52d930"/><stop offset="1" stop-color="#4ba634"/></linearGradient><linearGradient x1="181.15749" y1="138.69945" x2="177.41672" y2="128.5971" gradientUnits="userSpaceOnUse" id="color-14"><stop offset="0" stop-color="#52d930"/><stop offset="1" stop-color="#4ba634"/></linearGradient><linearGradient x1="165.64323" y1="126.5618" x2="176.04268" y2="123.75072" gradientUnits="userSpaceOnUse" id="color-15"><stop offset="0" stop-color="#52d930"/><stop offset="1" stop-color="#4ba634"/></linearGradient><linearGradient x1="190.72572" y1="115.86829" x2="180.06093" y2="117.38914" gradientUnits="userSpaceOnUse" id="color-16"><stop offset="0" stop-color="#52d930"/><stop offset="1" stop-color="#4ba634"/></linearGradient><linearGradient x1="162.12271" y1="130.4212" x2="161.57333" y2="119.66253" gradientUnits="userSpaceOnUse" id="color-17"><stop offset="0" stop-color="#52d930"/><stop offset="1" stop-color="#4ba634"/></linearGradient><linearGradient x1="168.48413" y1="93.7838" x2="175.00844" y2="102.35609" gradientUnits="userSpaceOnUse" id="color-18"><stop offset="0" stop-color="#52d930"/><stop offset="1" stop-color="#4ba634"/></linearGradient><linearGradient x1="178.92612" y1="107.98418" x2="169.79851" y2="113.70585" gradientUnits="userSpaceOnUse" id="color-19"><stop offset="0" stop-color="#52d930"/><stop offset="1" stop-color="#4ba634"/></linearGradient><linearGradient x1="294.55626" y1="168.43964" x2="294.95373" y2="157.67429" gradientUnits="userSpaceOnUse" id="color-20"><stop offset="0" stop-color="#52d930"/><stop offset="1" stop-color="#4ba634"/></linearGradient><linearGradient x1="277.94413" y1="141.78894" x2="288.62932" y2="143.15912" gradientUnits="userSpaceOnUse" id="color-21"><stop offset="0" stop-color="#52d930"/><stop offset="1" stop-color="#4ba634"/></linearGradient><linearGradient x1="318.3293" y1="144.52321" x2="308.73455" y2="149.42129" gradientUnits="userSpaceOnUse" id="color-22"><stop offset="0" stop-color="#52d930"/><stop offset="1" stop-color="#4ba634"/></linearGradient><linearGradient x1="308.09199" y1="161.35212" x2="304.08242" y2="151.35342" gradientUnits="userSpaceOnUse" id="color-23"><stop offset="0" stop-color="#52d930"/><stop offset="1" stop-color="#4ba634"/></linearGradient><linearGradient x1="294.53475" y1="137.69448" x2="297.29405" y2="148.1078" gradientUnits="userSpaceOnUse" id="color-24"><stop offset="0" stop-color="#52d930"/><stop offset="1" stop-color="#4ba634"/></linearGradient><linearGradient x1="312.33711" y1="164.39646" x2="301.7168" y2="166.20195" gradientUnits="userSpaceOnUse" id="color-25"><stop offset="0" stop-color="#52d930"/><stop offset="1" stop-color="#4ba634"/></linearGradient><linearGradient x1="275.20684" y1="162.36927" x2="282.95612" y2="154.88599" gradientUnits="userSpaceOnUse" id="color-26"><stop offset="0" stop-color="#52d930"/><stop offset="1" stop-color="#4ba634"/></linearGradient><linearGradient x1="288.08669" y1="150.33618" x2="294.83789" y2="158.73094" gradientUnits="userSpaceOnUse" id="color-27"><stop offset="0" stop-color="#52d930"/><stop offset="1" stop-color="#4ba634"/></linearGradient><linearGradient x1="338.23266" y1="119.62" x2="327.65626" y2="117.57295" gradientUnits="userSpaceOnUse" id="color-28"><stop offset="0" stop-color="#52d930"/><stop offset="1" stop-color="#4ba634"/></linearGradient><linearGradient x1="309.34574" y1="131.93944" x2="312.34162" y2="121.59171" gradientUnits="userSpaceOnUse" id="color-29"><stop offset="0" stop-color="#52d930"/><stop offset="1" stop-color="#4ba634"/></linearGradient><linearGradient x1="318.25347" y1="92.4541" x2="321.61896" y2="102.68758" gradientUnits="userSpaceOnUse" id="color-30"><stop offset="0" stop-color="#52d930"/><stop offset="1" stop-color="#4ba634"/></linearGradient><linearGradient x1="333.30933" y1="105.1559" x2="322.81326" y2="107.58137" gradientUnits="userSpaceOnUse" id="color-31"><stop offset="0" stop-color="#52d930"/><stop offset="1" stop-color="#4ba634"/></linearGradient><linearGradient x1="307.84938" y1="114.91668" x2="318.56303" y2="113.79035" gradientUnits="userSpaceOnUse" id="color-32"><stop offset="0" stop-color="#52d930"/><stop offset="1" stop-color="#4ba634"/></linearGradient><linearGradient x1="336.96986" y1="101.42902" x2="337.1219" y2="112.20064" gradientUnits="userSpaceOnUse" id="color-33"><stop offset="0" stop-color="#52d930"/><stop offset="1" stop-color="#4ba634"/></linearGradient><linearGradient x1="329.26099" y1="137.80676" x2="323.05741" y2="128.99958" gradientUnits="userSpaceOnUse" id="color-34"><stop offset="0" stop-color="#52d930"/><stop offset="1" stop-color="#4ba634"/></linearGradient><linearGradient x1="319.35005" y1="123.23078" x2="328.68255" y2="117.84978" gradientUnits="userSpaceOnUse" id="color-35"><stop offset="0" stop-color="#52d930"/><stop offset="1" stop-color="#4ba634"/></linearGradient><linearGradient x1="178.83254" y1="175.02373" x2="179.23001" y2="164.25838" gradientUnits="userSpaceOnUse" id="color-36"><stop offset="0" stop-color="#52d930"/><stop offset="1" stop-color="#4ba634"/></linearGradient><linearGradient x1="162.2204" y1="148.37302" x2="172.90559" y2="149.7432" gradientUnits="userSpaceOnUse" id="color-37"><stop offset="0" stop-color="#52d930"/><stop offset="1" stop-color="#4ba634"/></linearGradient><linearGradient x1="202.60559" y1="151.1073" x2="193.01082" y2="156.00537" gradientUnits="userSpaceOnUse" id="color-38"><stop offset="0" stop-color="#52d930"/><stop offset="1" stop-color="#4ba634"/></linearGradient><linearGradient x1="192.36827" y1="167.93621" x2="188.35869" y2="157.9375" gradientUnits="userSpaceOnUse" id="color-39"><stop offset="0" stop-color="#52d930"/><stop offset="1" stop-color="#4ba634"/></linearGradient><linearGradient x1="178.81103" y1="144.27856" x2="181.57032" y2="154.69188" gradientUnits="userSpaceOnUse" id="color-40"><stop offset="0" stop-color="#52d930"/><stop offset="1" stop-color="#4ba634"/></linearGradient><linearGradient x1="196.61339" y1="170.98054" x2="185.99308" y2="172.78604" gradientUnits="userSpaceOnUse" id="color-41"><stop offset="0" stop-color="#52d930"/><stop offset="1" stop-color="#4ba634"/></linearGradient><linearGradient x1="159.48312" y1="168.95335" x2="167.23239" y2="161.47007" gradientUnits="userSpaceOnUse" id="color-42"><stop offset="0" stop-color="#52d930"/><stop offset="1" stop-color="#4ba634"/></linearGradient><linearGradient x1="172.36297" y1="156.92026" x2="179.11417" y2="165.31503" gradientUnits="userSpaceOnUse" id="color-43"><stop offset="0" stop-color="#52d930"/><stop offset="1" stop-color="#4ba634"/></linearGradient><linearGradient x1="193.62201" y1="138.02352" x2="196.6179" y2="127.6758" gradientUnits="userSpaceOnUse" id="color-44"><stop offset="0" stop-color="#52d930"/><stop offset="1" stop-color="#4ba634"/></linearGradient><linearGradient x1="202.52975" y1="98.53818" x2="205.89524" y2="108.77167" gradientUnits="userSpaceOnUse" id="color-45"><stop offset="0" stop-color="#52d930"/><stop offset="1" stop-color="#4ba634"/></linearGradient><linearGradient x1="217.58562" y1="111.23999" x2="207.08953" y2="113.66545" gradientUnits="userSpaceOnUse" id="color-46"><stop offset="0" stop-color="#52d930"/><stop offset="1" stop-color="#4ba634"/></linearGradient><linearGradient x1="192.12565" y1="121.00076" x2="202.8393" y2="119.87444" gradientUnits="userSpaceOnUse" id="color-47"><stop offset="0" stop-color="#52d930"/><stop offset="1" stop-color="#4ba634"/></linearGradient><linearGradient x1="221.24614" y1="107.51311" x2="221.39817" y2="118.28472" gradientUnits="userSpaceOnUse" id="color-48"><stop offset="0" stop-color="#52d930"/><stop offset="1" stop-color="#4ba634"/></linearGradient><linearGradient x1="213.53726" y1="143.89084" x2="207.33369" y2="135.08367" gradientUnits="userSpaceOnUse" id="color-49"><stop offset="0" stop-color="#52d930"/><stop offset="1" stop-color="#4ba634"/></linearGradient><linearGradient x1="203.62632" y1="127.81487" x2="212.95883" y2="122.43387" gradientUnits="userSpaceOnUse" id="color-50"><stop offset="0" stop-color="#52d930"/><stop offset="1" stop-color="#4ba634"/></linearGradient><linearGradient x1="181.00894" y1="135.20408" x2="170.43253" y2="133.15703" gradientUnits="userSpaceOnUse" id="color-51"><stop offset="0" stop-color="#52d930"/><stop offset="1" stop-color="#4ba634"/></linearGradient><linearGradient x1="178.12201" y1="124.02352" x2="181.1179" y2="113.6758" gradientUnits="userSpaceOnUse" id="color-52"><stop offset="0" stop-color="#52d930"/><stop offset="1" stop-color="#4ba634"/></linearGradient><linearGradient x1="189.52975" y1="117.03818" x2="192.89524" y2="127.27167" gradientUnits="userSpaceOnUse" id="color-53"><stop offset="0" stop-color="#52d930"/><stop offset="1" stop-color="#4ba634"/></linearGradient><linearGradient x1="186.12565" y1="147.00076" x2="196.8393" y2="145.87444" gradientUnits="userSpaceOnUse" id="color-54"><stop offset="0" stop-color="#52d930"/><stop offset="1" stop-color="#4ba634"/></linearGradient><linearGradient x1="221.74614" y1="135.51311" x2="221.89817" y2="146.28472" gradientUnits="userSpaceOnUse" id="color-55"><stop offset="0" stop-color="#52d930"/><stop offset="1" stop-color="#4ba634"/></linearGradient><linearGradient x1="233.53726" y1="156.39084" x2="227.33369" y2="147.58367" gradientUnits="userSpaceOnUse" id="color-56"><stop offset="0" stop-color="#52d930"/><stop offset="1" stop-color="#4ba634"/></linearGradient><linearGradient x1="205.62632" y1="160.81487" x2="214.95883" y2="155.43387" gradientUnits="userSpaceOnUse" id="color-57"><stop offset="0" stop-color="#52d930"/><stop offset="1" stop-color="#4ba634"/></linearGradient><linearGradient x1="226.4479" y1="83.19876" x2="237.02651" y2="81.16314" gradientUnits="userSpaceOnUse" id="color-58"><stop offset="0" stop-color="#52d930"/><stop offset="1" stop-color="#4ba634"/></linearGradient><linearGradient x1="248.67605" y1="61.01471" x2="249.74588" y2="71.73413" gradientUnits="userSpaceOnUse" id="color-59"><stop offset="0" stop-color="#52d930"/><stop offset="1" stop-color="#4ba634"/></linearGradient><linearGradient x1="255.10119" y1="100.97916" x2="248.16934" y2="92.73294" gradientUnits="userSpaceOnUse" id="color-60"><stop offset="0" stop-color="#52d930"/><stop offset="1" stop-color="#4ba634"/></linearGradient><linearGradient x1="236.39999" y1="94.79207" x2="245.23975" y2="88.63502" gradientUnits="userSpaceOnUse" id="color-61"><stop offset="0" stop-color="#52d930"/><stop offset="1" stop-color="#4ba634"/></linearGradient><linearGradient x1="256.39941" y1="76.25817" x2="246.87428" y2="81.29034" gradientUnits="userSpaceOnUse" id="color-62"><stop offset="0" stop-color="#52d930"/><stop offset="1" stop-color="#4ba634"/></linearGradient><linearGradient x1="234.38918" y1="99.61345" x2="230.23976" y2="89.67197" gradientUnits="userSpaceOnUse" id="color-63"><stop offset="0" stop-color="#52d930"/><stop offset="1" stop-color="#4ba634"/></linearGradient><linearGradient x1="228.00767" y1="62.97955" x2="237.04304" y2="68.84579" gradientUnits="userSpaceOnUse" id="color-64"><stop offset="0" stop-color="#52d930"/><stop offset="1" stop-color="#4ba634"/></linearGradient><linearGradient x1="242.63083" y1="72.82073" x2="235.97089" y2="81.28808" gradientUnits="userSpaceOnUse" id="color-65"><stop offset="0" stop-color="#52d930"/><stop offset="1" stop-color="#4ba634"/></linearGradient><linearGradient x1="283.84501" y1="114.76705" x2="283.45917" y2="104.00127" gradientUnits="userSpaceOnUse" id="color-66"><stop offset="0" stop-color="#52d930"/><stop offset="1" stop-color="#4ba634"/></linearGradient><linearGradient x1="265.34022" y1="89.39391" x2="276.09674" y2="89.98403" gradientUnits="userSpaceOnUse" id="color-67"><stop offset="0" stop-color="#52d930"/><stop offset="1" stop-color="#4ba634"/></linearGradient><linearGradient x1="305.81735" y1="89.18638" x2="296.60386" y2="94.76871" gradientUnits="userSpaceOnUse" id="color-68"><stop offset="0" stop-color="#52d930"/><stop offset="1" stop-color="#4ba634"/></linearGradient><linearGradient x1="296.82995" y1="106.71469" x2="292.10442" y2="97.03378" gradientUnits="userSpaceOnUse" id="color-69"><stop offset="0" stop-color="#52d930"/><stop offset="1" stop-color="#4ba634"/></linearGradient><linearGradient x1="281.58948" y1="84.10473" x2="285.09816" y2="94.29001" gradientUnits="userSpaceOnUse" id="color-70"><stop offset="0" stop-color="#52d930"/><stop offset="1" stop-color="#4ba634"/></linearGradient><linearGradient x1="301.28506" y1="109.44251" x2="290.82403" y2="112.01495" gradientUnits="userSpaceOnUse" id="color-71"><stop offset="0" stop-color="#52d930"/><stop offset="1" stop-color="#4ba634"/></linearGradient><linearGradient x1="264.10564" y1="110.11874" x2="271.29067" y2="102.09214" gradientUnits="userSpaceOnUse" id="color-72"><stop offset="0" stop-color="#52d930"/><stop offset="1" stop-color="#4ba634"/></linearGradient><linearGradient x1="276.07707" y1="97.18154" x2="283.42042" y2="105.06354" gradientUnits="userSpaceOnUse" id="color-73"><stop offset="0" stop-color="#52d930"/><stop offset="1" stop-color="#4ba634"/></linearGradient><linearGradient x1="270.01668" y1="66.37049" x2="263.00432" y2="74.54836" gradientUnits="userSpaceOnUse" id="color-74"><stop offset="0" stop-color="#52d930"/><stop offset="1" stop-color="#4ba634"/></linearGradient><linearGradient x1="275.49255" y1="71.14068" x2="286.24906" y2="71.7308" gradientUnits="userSpaceOnUse" id="color-75"><stop offset="0" stop-color="#52d930"/><stop offset="1" stop-color="#4ba634"/></linearGradient><linearGradient x1="284.86615" y1="80.68359" x2="275.65266" y2="86.26592" gradientUnits="userSpaceOnUse" id="color-76"><stop offset="0" stop-color="#52d930"/><stop offset="1" stop-color="#4ba634"/></linearGradient><linearGradient x1="243.20399" y1="121.15444" x2="238.47846" y2="111.47353" gradientUnits="userSpaceOnUse" id="color-77"><stop offset="0" stop-color="#52d930"/><stop offset="1" stop-color="#4ba634"/></linearGradient><linearGradient x1="254.90615" y1="84.11033" x2="258.41484" y2="94.29562" gradientUnits="userSpaceOnUse" id="color-78"><stop offset="0" stop-color="#52d930"/><stop offset="1" stop-color="#4ba634"/></linearGradient><linearGradient x1="274.11597" y1="116.23148" x2="263.65493" y2="118.80391" gradientUnits="userSpaceOnUse" id="color-79"><stop offset="0" stop-color="#52d930"/><stop offset="1" stop-color="#4ba634"/></linearGradient><linearGradient x1="263.59375" y1="130.90136" x2="253.49003" y2="127.1643" gradientUnits="userSpaceOnUse" id="color-80"><stop offset="0" stop-color="#52d930"/><stop offset="1" stop-color="#4ba634"/></linearGradient><linearGradient x1="245.83536" y1="106.21975" x2="253.17872" y2="114.10175" gradientUnits="userSpaceOnUse" id="color-81"><stop offset="0" stop-color="#52d930"/><stop offset="1" stop-color="#4ba634"/></linearGradient><linearGradient x1="315.25969" y1="68.64037" x2="310.79029" y2="78.44216" gradientUnits="userSpaceOnUse" id="color-82"><stop offset="0" stop-color="#52d930"/><stop offset="1" stop-color="#4ba634"/></linearGradient><linearGradient x1="320.46396" y1="99.61033" x2="311.10691" y2="94.27214" gradientUnits="userSpaceOnUse" id="color-83"><stop offset="0" stop-color="#52d930"/><stop offset="1" stop-color="#4ba634"/></linearGradient><linearGradient x1="284.16715" y1="81.6944" x2="294.90441" y2="80.8217" gradientUnits="userSpaceOnUse" id="color-84"><stop offset="0" stop-color="#52d930"/><stop offset="1" stop-color="#4ba634"/></linearGradient><linearGradient x1="300.04449" y1="70.03572" x2="299.94181" y2="80.80791" gradientUnits="userSpaceOnUse" id="color-85"><stop offset="0" stop-color="#52d930"/><stop offset="1" stop-color="#4ba634"/></linearGradient><linearGradient x1="303.56478" y1="97.0744" x2="304.98141" y2="86.39526" gradientUnits="userSpaceOnUse" id="color-86"><stop offset="0" stop-color="#52d930"/><stop offset="1" stop-color="#4ba634"/></linearGradient><linearGradient x1="286.35193" y1="61.01141" x2="291.52386" y2="70.46138" gradientUnits="userSpaceOnUse" id="color-87"><stop offset="0" stop-color="#52d930"/><stop offset="1" stop-color="#4ba634"/></linearGradient><linearGradient x1="330.83645" y1="81.62549" x2="320.82042" y2="85.59156" gradientUnits="userSpaceOnUse" id="color-88"><stop offset="0" stop-color="#52d930"/><stop offset="1" stop-color="#4ba634"/></linearGradient><linearGradient x1="314.34326" y1="87.84326" x2="311.3" y2="77.50937" gradientUnits="userSpaceOnUse" id="color-89"><stop offset="0" stop-color="#52d930"/><stop offset="1" stop-color="#4ba634"/></linearGradient><linearGradient x1="274.25969" y1="157.64037" x2="269.79029" y2="167.44216" gradientUnits="userSpaceOnUse" id="color-90"><stop offset="0" stop-color="#52d930"/><stop offset="1" stop-color="#4ba634"/></linearGradient><linearGradient x1="279.46396" y1="188.61033" x2="270.10691" y2="183.27214" gradientUnits="userSpaceOnUse" id="color-91"><stop offset="0" stop-color="#52d930"/><stop offset="1" stop-color="#4ba634"/></linearGradient><linearGradient x1="259.04449" y1="159.03572" x2="258.94181" y2="169.80792" gradientUnits="userSpaceOnUse" id="color-92"><stop offset="0" stop-color="#52d930"/><stop offset="1" stop-color="#4ba634"/></linearGradient><linearGradient x1="262.56478" y1="186.0744" x2="263.98141" y2="175.39526" gradientUnits="userSpaceOnUse" id="color-93"><stop offset="0" stop-color="#52d930"/><stop offset="1" stop-color="#4ba634"/></linearGradient><linearGradient x1="256.27959" y1="154.60352" x2="266.78668" y2="156.98088" gradientUnits="userSpaceOnUse" id="color-94"><stop offset="0" stop-color="#52d930"/><stop offset="1" stop-color="#4ba634"/></linearGradient><linearGradient x1="289.83645" y1="170.62549" x2="279.82042" y2="174.59156" gradientUnits="userSpaceOnUse" id="color-95"><stop offset="0" stop-color="#52d930"/><stop offset="1" stop-color="#4ba634"/></linearGradient><linearGradient x1="273.34326" y1="176.84326" x2="270.3" y2="166.50937" gradientUnits="userSpaceOnUse" id="color-96"><stop offset="0" stop-color="#52d930"/><stop offset="1" stop-color="#4ba634"/></linearGradient><linearGradient x1="204.57937" y1="184.05371" x2="211.72698" y2="175.99379" gradientUnits="userSpaceOnUse" id="color-97"><stop offset="0" stop-color="#52d930"/><stop offset="1" stop-color="#4ba634"/></linearGradient><linearGradient x1="247.08562" y1="124.73999" x2="236.58953" y2="127.16545" gradientUnits="userSpaceOnUse" id="color-98"><stop offset="0" stop-color="#52d930"/><stop offset="1" stop-color="#4ba634"/></linearGradient><linearGradient x1="232.07937" y1="142.05371" x2="239.22698" y2="133.99379" gradientUnits="userSpaceOnUse" id="color-99"><stop offset="0" stop-color="#52d930"/><stop offset="1" stop-color="#4ba634"/></linearGradient><linearGradient x1="231.00894" y1="125.20408" x2="220.43253" y2="123.15703" gradientUnits="userSpaceOnUse" id="color-100"><stop offset="0" stop-color="#52d930"/><stop offset="1" stop-color="#4ba634"/></linearGradient><linearGradient x1="334.09004" y1="155.65794" x2="325.55914" y2="149.07961" gradientUnits="userSpaceOnUse" id="color-101"><stop offset="0" stop-color="#52d930"/><stop offset="1" stop-color="#4ba634"/></linearGradient><linearGradient x1="302.74733" y1="153.694" x2="310.07076" y2="145.79349" gradientUnits="userSpaceOnUse" id="color-102"><stop offset="0" stop-color="#52d930"/><stop offset="1" stop-color="#4ba634"/></linearGradient><linearGradient x1="328.4371" y1="122.41342" x2="326.84893" y2="133.06839" gradientUnits="userSpaceOnUse" id="color-103"><stop offset="0" stop-color="#52d930"/><stop offset="1" stop-color="#4ba634"/></linearGradient><linearGradient x1="336.18602" y1="140.52335" x2="325.71852" y2="137.97733" gradientUnits="userSpaceOnUse" id="color-104"><stop offset="0" stop-color="#52d930"/><stop offset="1" stop-color="#4ba634"/></linearGradient><linearGradient x1="309.05427" y1="137.81206" x2="319.13279" y2="141.61658" gradientUnits="userSpaceOnUse" id="color-105"><stop offset="0" stop-color="#52d930"/><stop offset="1" stop-color="#4ba634"/></linearGradient><linearGradient x1="341.13026" y1="138.83707" x2="336.42919" y2="148.52989" gradientUnits="userSpaceOnUse" id="color-106"><stop offset="0" stop-color="#52d930"/><stop offset="1" stop-color="#4ba634"/></linearGradient><linearGradient x1="317.90711" y1="167.87933" x2="316.31897" y2="157.22435" gradientUnits="userSpaceOnUse" id="color-107"><stop offset="0" stop-color="#52d930"/><stop offset="1" stop-color="#4ba634"/></linearGradient><linearGradient x1="315.59684" y1="150.40511" x2="326.35184" y2="149.78783" gradientUnits="userSpaceOnUse" id="color-108"><stop offset="0" stop-color="#52d930"/><stop offset="1" stop-color="#4ba634"/></linearGradient><linearGradient x1="187.59005" y1="98.15794" x2="179.05914" y2="91.57962" gradientUnits="userSpaceOnUse" id="color-109"><stop offset="0" stop-color="#52d930"/><stop offset="1" stop-color="#4ba634"/></linearGradient><linearGradient x1="156.24731" y1="96.194" x2="163.57076" y2="88.29349" gradientUnits="userSpaceOnUse" id="color-110"><stop offset="0" stop-color="#52d930"/><stop offset="1" stop-color="#4ba634"/></linearGradient><linearGradient x1="181.93711" y1="64.91342" x2="180.34893" y2="75.56839" gradientUnits="userSpaceOnUse" id="color-111"><stop offset="0" stop-color="#52d930"/><stop offset="1" stop-color="#4ba634"/></linearGradient><linearGradient x1="189.68602" y1="83.02335" x2="179.21852" y2="80.47732" gradientUnits="userSpaceOnUse" id="color-112"><stop offset="0" stop-color="#52d930"/><stop offset="1" stop-color="#4ba634"/></linearGradient><linearGradient x1="162.55426" y1="80.31207" x2="172.63279" y2="84.11658" gradientUnits="userSpaceOnUse" id="color-113"><stop offset="0" stop-color="#52d930"/><stop offset="1" stop-color="#4ba634"/></linearGradient><linearGradient x1="194.63026" y1="81.33707" x2="189.92919" y2="91.02989" gradientUnits="userSpaceOnUse" id="color-114"><stop offset="0" stop-color="#52d930"/><stop offset="1" stop-color="#4ba634"/></linearGradient><linearGradient x1="171.40712" y1="110.37933" x2="169.81897" y2="99.72435" gradientUnits="userSpaceOnUse" id="color-115"><stop offset="0" stop-color="#52d930"/><stop offset="1" stop-color="#4ba634"/></linearGradient><linearGradient x1="169.09685" y1="92.90511" x2="179.85184" y2="92.28783" gradientUnits="userSpaceOnUse" id="color-116"><stop offset="0" stop-color="#52d930"/><stop offset="1" stop-color="#4ba634"/></linearGradient><linearGradient x1="213.53499" y1="51.3913" x2="213.53499" y2="62.16399" gradientUnits="userSpaceOnUse" id="color-117"><stop offset="0" stop-color="#52d930"/><stop offset="1" stop-color="#4ba634"/></linearGradient><linearGradient x1="231.11913" y1="77.41093" x2="220.39066" y2="76.43593" gradientUnits="userSpaceOnUse" id="color-118"><stop offset="0" stop-color="#52d930"/><stop offset="1" stop-color="#4ba634"/></linearGradient><linearGradient x1="190.66055" y1="76.16858" x2="200.06807" y2="70.91983" gradientUnits="userSpaceOnUse" id="color-119"><stop offset="0" stop-color="#52d930"/><stop offset="1" stop-color="#4ba634"/></linearGradient><linearGradient x1="200.26998" y1="58.97341" x2="204.64574" y2="68.81736" gradientUnits="userSpaceOnUse" id="color-120"><stop offset="0" stop-color="#52d930"/><stop offset="1" stop-color="#4ba634"/></linearGradient><linearGradient x1="214.69087" y1="82.11473" x2="211.54924" y2="71.81032" gradientUnits="userSpaceOnUse" id="color-121"><stop offset="0" stop-color="#52d930"/><stop offset="1" stop-color="#4ba634"/></linearGradient><linearGradient x1="212.781" y1="97.57703" x2="223.48784" y2="98.7663" gradientUnits="userSpaceOnUse" id="color-122"><stop offset="0" stop-color="#52d930"/><stop offset="1" stop-color="#4ba634"/></linearGradient><linearGradient x1="233.09521" y1="56.74362" x2="225.62732" y2="64.50772" gradientUnits="userSpaceOnUse" id="color-123"><stop offset="0" stop-color="#52d930"/><stop offset="1" stop-color="#4ba634"/></linearGradient><linearGradient x1="220.66811" y1="69.24374" x2="213.61177" y2="61.10378" gradientUnits="userSpaceOnUse" id="color-124"><stop offset="0" stop-color="#52d930"/><stop offset="1" stop-color="#4ba634"/></linearGradient><linearGradient x1="244.97317" y1="268.83011" x2="244.97317" y2="287.33011" gradientUnits="userSpaceOnUse" id="color-125"><stop offset="0" stop-color="#adadad"/><stop offset="1" stop-color="#4b4b4b"/></linearGradient><linearGradient x1="251.65986" y1="267.67942" x2="251.65986" y2="286.77961" gradientUnits="userSpaceOnUse" id="color-126"><stop offset="0" stop-color="#41cb1e"/><stop offset="1" stop-color="#287d13"/></linearGradient><linearGradient x1="256.01894" y1="276.43471" x2="256.01894" y2="290.50195" gradientUnits="userSpaceOnUse" id="color-127"><stop offset="0" stop-color="#adadad"/><stop offset="1" stop-color="#4b4b4b"/></linearGradient><linearGradient x1="235.50733" y1="188.50528" x2="235.50733" y2="198.00528" gradientUnits="userSpaceOnUse" id="color-128"><stop offset="0" stop-color="#6e4600"/><stop offset="1" stop-color="#563700"/></linearGradient><linearGradient x1="240.47741" y1="196.33012" x2="240.47741" y2="263.83011" gradientUnits="userSpaceOnUse" id="color-129"><stop offset="0" stop-color="#aa6c00"/><stop offset="1" stop-color="#724800"/></linearGradient><linearGradient x1="245.66715" y1="180.1944" x2="256.40441" y2="179.3217" gradientUnits="userSpaceOnUse" id="color-130"><stop offset="0" stop-color="#52d930"/><stop offset="1" stop-color="#4ba634"/></linearGradient><linearGradient x1="224.125" y1="143.25" x2="224.125" y2="189.5" gradientUnits="userSpaceOnUse" id="color-131"><stop offset="0" stop-color="#e39000"/><stop offset="1" stop-color="#724800"/></linearGradient><linearGradient x1="219.58562" y1="166.73998" x2="209.08953" y2="169.16545" gradientUnits="userSpaceOnUse" id="color-132"><stop offset="0" stop-color="#52d930"/><stop offset="1" stop-color="#4ba634"/></linearGradient><linearGradient x1="230.90903" y1="175.7443" x2="237.28055" y2="167.05784" gradientUnits="userSpaceOnUse" id="color-133"><stop offset="0" stop-color="#52d930"/><stop offset="1" stop-color="#4ba634"/></linearGradient><linearGradient x1="252.49886" y1="170.02362" x2="243.68461" y2="163.8301" gradientUnits="userSpaceOnUse" id="color-134"><stop offset="0" stop-color="#52d930"/><stop offset="1" stop-color="#4ba634"/></linearGradient><linearGradient x1="252.62194" y1="155.20134" x2="241.87524" y2="154.45366" gradientUnits="userSpaceOnUse" id="color-135"><stop offset="0" stop-color="#52d930"/><stop offset="1" stop-color="#4ba634"/></linearGradient><linearGradient x1="246.24237" y1="147.7443" x2="252.61389" y2="139.05784" gradientUnits="userSpaceOnUse" id="color-136"><stop offset="0" stop-color="#52d930"/><stop offset="1" stop-color="#4ba634"/></linearGradient><linearGradient x1="267.8322" y1="142.02362" x2="259.01795" y2="135.8301" gradientUnits="userSpaceOnUse" id="color-137"><stop offset="0" stop-color="#52d930"/><stop offset="1" stop-color="#4ba634"/></linearGradient><linearGradient x1="292.28861" y1="127.86801" x2="281.54191" y2="127.12033" gradientUnits="userSpaceOnUse" id="color-138"><stop offset="0" stop-color="#52d930"/><stop offset="1" stop-color="#4ba634"/></linearGradient></defs><g transform="translate(-151.66216,-45.7409)"><g data-paper-data="{&quot;isPaintingLayer&quot;:true}" fill-rule="nonzero" stroke-linejoin="miter" stroke-miterlimit="10" stroke-dasharray="" stroke-dashoffset="0" style="mix-blend-mode: normal"><path d="M214.88986,282.67658c0,0 -5.35776,-8.58504 -6.48138,-13.57626c-0.78587,-3.49088 -4.5065,-7.41762 -2.61115,-5.89623c1.89535,1.52138 6.18967,10.75752 8.02977,11.18926c0.69432,0.16291 -3.3725,-11.7052 -2.58882,-10.78568c2.09067,2.45308 4.50971,11.52727 5.29254,11.43256c0.71362,-0.08633 -0.64059,-0.77574 -0.06119,-3.81519c0.23447,-1.22999 -0.74031,-9.55559 0.41588,-4.30236c1.30098,5.91111 1.10353,7.59954 1.96267,7.92172c0.82998,0.31125 -2.01846,-7.6411 -0.93807,-10.91066c1.74148,-5.27019 0.7279,2.20278 0.7279,2.20278l1.54608,15.49114l-2.84288,0.11118z" fill="url(#color-1)" stroke="#000000" stroke-width="0.5" stroke-linecap="butt"/><path d="M351.86186,119.93995c0,17.69561 -14.48434,33.93211 -28.61113,46.62432c-18.31187,16.4523 -40.10864,26.94925 -71.23872,26.94925c-28.31162,0 -61.37867,-8.68225 -79.54965,-22.63039c-17.22256,-13.22013 -20.3002,-31.17081 -20.3002,-50.94318c0,-25.15703 8.12656,-50.36806 34.26658,-63.63574c16.08126,-8.16223 35.57041,5.07718 56.57426,5.07718c24.73317,0 55.18425,-0.89874 74.62435,6.74438c23.90392,9.39812 34.23451,29.40506 34.23451,51.81418z" fill="url(#color-2)" stroke="#000000" stroke-width="1" stroke-linecap="butt"/><path d="M205.50242,282.04082c0,0 8.72006,-6.09719 12.97289,-16.03461c6.9019,-16.12739 10.86407,-41.38846 12.50515,-59.80426c2.07918,-23.33202 -15.8742,-29.09817 -15.8742,-41.80819c0,-19.22896 -14.83371,-26.40634 -12.60504,-44.41777c2.22866,-18.01142 8.27824,1.39456 16.36692,14.01536c5.30669,8.28005 7.70542,31.99831 13.02489,32.18174c2.05704,0.07093 7.34628,5.47765 9.858,2.56636c6.52636,-7.56458 11.55482,-29.11051 20.91508,-32.20255c3.94314,-1.30257 -2.21686,-21.76423 1.74729,-22.94102c6.52431,-1.9368 2.95043,14.8084 10.10441,16.93569c11.36411,3.37921 37.38939,-18.48145 32.4252,-6.3539c-4.9642,12.12755 -25.9307,14.5559 -40.06669,25.02209c-9.55251,7.07262 -9.153,9.34241 -9.153,15.194c0,8.32479 -13.48905,40.00654 -15.4447,63.53099c-2.97457,35.78103 19.04614,53.51583 19.04614,53.51583c0,0 -5.85353,2.61399 -10.19307,3.0411c-5.63586,0.5547 -10.77896,-0.93047 -18.44135,0.34873c-6.26608,1.04609 -11.95362,3.62342 -15.19046,3.65823c-6.03872,0.06493 -11.99746,-6.44782 -11.99746,-6.44782z" fill="url(#color-3)" stroke="#000000" stroke-width="1" stroke-linecap="butt"/><g stroke="none" stroke-width="0" stroke-linecap="butt"><path d="M196.64865,67.27764c0,-2.9748 3.62477,-11.02215 5.35114,-11.03672c1.72099,-0.01453 5.42155,8.06193 5.42155,11.03672c0,2.66655 -1.93767,4.88053 -4.4818,5.31072c-0.29409,0.04973 -0.94835,4.15939 -1.25659,4.15939c-0.58067,0 -0.78784,-4.17565 -1.31184,-4.34567c-2.16048,-0.70101 -3.72245,-2.73031 -3.72245,-5.12444z" fill="url(#color-4)"/><path d="M214.7424,82.0592c2.96258,0.26924 10.64884,4.60747 10.50711,6.32808c-0.14129,1.71524 -8.51953,4.66963 -11.48211,4.40039c-2.65561,-0.24134 -4.68513,-2.37144 -4.8833,-4.94407c-0.02291,-0.29739 -4.05648,-1.3209 -4.02858,-1.62788c0.05256,-0.57828 4.22981,-0.40667 4.44656,-0.91314c0.89367,-2.08817 3.05602,-3.46006 5.44032,-3.24338z" fill="url(#color-5)"/><path d="M186.48869,88.74797c-2.59781,1.4494 -11.39145,2.20488 -12.24532,0.70439c-0.8512,-1.49581 4.39874,-8.66249 6.99656,-10.1119c2.32863,-1.29922 5.20614,-0.68582 6.82138,1.32631c0.18672,0.2326 4.09435,-1.1984 4.24454,-0.92922c0.28292,0.50709 -3.26264,2.72249 -3.15581,3.26293c0.44047,2.22825 -0.57062,4.58101 -2.66135,5.7475z" fill="url(#color-6)"/><path d="M186.03588,76.58327c-1.20834,-2.71833 -1.16483,-11.54425 0.40679,-12.25881c1.56671,-0.71232 8.22882,5.16472 9.43716,7.88304c1.08313,2.43666 0.21181,5.24684 -1.93825,6.67334c-0.24854,0.16491 0.82291,4.18601 0.54125,4.31121c-0.53061,0.23586 -2.41601,-3.49564 -2.9639,-3.43816c-2.25896,0.23699 -4.51058,-0.9829 -5.48305,-3.17063z" fill="url(#color-7)"/><path d="M206.77226,85.89171c0.86754,2.84548 -0.25283,11.60012 -1.8999,12.11751c-1.64194,0.51579 -7.53697,-6.1304 -8.40451,-8.97589c-0.77765,-2.55064 0.43013,-5.23346 2.73822,-6.3869c0.26681,-0.13334 -0.30588,-4.25514 -0.01103,-4.34504c0.55543,-0.16934 1.97133,3.76438 2.52214,3.7742c2.271,0.04048 4.35689,1.52606 5.05508,3.81611z" fill="url(#color-8)"/><path d="M190.78671,70.76296c-2.91233,0.60644 -11.52962,-1.30168 -11.89583,-2.98883c-0.36506,-1.68188 6.78739,-6.95119 9.69971,-7.55763c2.61055,-0.5436 5.17305,0.90203 6.11286,3.30504c0.10864,0.27778 4.26537,0.0805 4.3282,0.38227c0.11837,0.56847 -3.92735,1.62253 -3.98698,2.17019c-0.24586,2.25802 -1.91412,4.20089 -4.25797,4.68896z" fill="url(#color-9)"/><path d="M213.97921,67.39172c2.06221,-2.144 10.25328,-5.43112 11.50761,-4.24486c1.25043,1.18256 -1.6813,9.56876 -3.7435,11.71276c-1.84851,1.92184 -4.77983,2.17426 -6.91166,0.72065c-0.24643,-0.16803 -3.56688,2.34034 -3.78904,2.12666c-0.41851,-0.40254 2.32685,-3.55562 2.06705,-4.04142c-1.07115,-2.00293 -0.79013,-4.5483 0.86954,-6.2738z" fill="url(#color-10)"/><path d="M209.70992,72.14559c1.94855,2.24778 4.48083,10.70275 3.18591,11.84457c-1.29087,1.13826 -9.37731,-2.54045 -11.32586,-4.78823c-1.74665,-2.01487 -1.73273,-4.95699 -0.09214,-6.94851c0.18965,-0.23022 -2.00791,-3.76406 -1.775,-3.96596c0.43876,-0.38035 3.33042,2.6391 3.83774,2.42435c2.09166,-0.88547 4.60115,-0.37524 6.16935,1.43379z" fill="url(#color-11)"/></g><g stroke="none" stroke-width="0" stroke-linecap="butt"><path d="M164.68424,118.43928c-2.93946,-0.45713 -10.33421,-5.27547 -10.08333,-6.98358c0.2501,-1.70278 8.79929,-4.11828 11.73875,-3.66115c2.63488,0.40976 4.52481,2.66464 4.55893,5.24466c0.00394,0.29824 3.96425,1.57625 3.91688,1.88083c-0.08923,0.57377 -4.24711,0.13681 -4.49564,0.62846c-1.02468,2.0271 -3.26991,3.25868 -5.6356,2.89078z" fill="url(#color-12)"/><path d="M182.07067,102.83191c0.7213,-2.88603 6.18914,-9.81433 7.86753,-9.40988c1.67315,0.40319 3.30499,9.13591 2.58369,12.02194c-0.64656,2.58697 -3.06323,4.26507 -5.63575,4.06555c-0.29738,-0.02306 -1.92857,3.80531 -2.22762,3.73057c-0.56334,-0.14079 0.24815,-4.24205 -0.21899,-4.53406c-1.92604,-1.20394 -2.94936,-3.55142 -2.36885,-5.87411z" fill="url(#color-13)"/><path d="M184.33828,131.77789c1.03298,2.78969 0.42818,11.59496 -1.1857,12.20811c-1.60885,0.61123 -7.88366,-5.67765 -8.91664,-8.46734c-0.92595,-2.50062 0.12235,-5.24969 2.35879,-6.53655c0.25852,-0.14876 -0.55499,-4.22988 -0.26593,-4.33691c0.54454,-0.20163 2.18878,3.64224 2.73922,3.61973c2.26946,-0.09283 4.43892,1.26782 5.27026,3.51297z" fill="url(#color-14)"/><path d="M172.24849,130.35599c-2.87172,0.77626 -11.58613,-0.62301 -12.05069,-2.28576c-0.46311,-1.65757 6.36789,-7.33743 9.23961,-8.11369c2.57416,-0.69582 5.21707,0.59698 6.29623,2.94071c0.12475,0.27093 4.26274,-0.16988 4.34318,0.12768c0.15152,0.56055 -3.82539,1.85015 -3.85279,2.40036c-0.11295,2.26856 -1.66436,4.30596 -3.97554,4.9307z" fill="url(#color-15)"/><path d="M184.63291,111.29632c2.945,-0.41997 11.42349,2.0324 11.68164,3.73942c0.25735,1.7017 -7.21579,6.5054 -10.16079,6.92537c-2.63985,0.37646 -5.10521,-1.22925 -5.89026,-3.68717c-0.09075,-0.28413 -4.2516,-0.35165 -4.29512,-0.6568c-0.08197,-0.57485 4.0226,-1.36944 4.11694,-1.9122c0.38898,-2.2378 2.17745,-4.07064 4.5476,-4.40863z" fill="url(#color-16)"/><path d="M167.22735,124.76718c0.1517,2.97092 -3.05797,11.19265 -4.78135,11.29524c-1.718,0.10227 -5.82561,-7.77496 -5.97731,-10.74588c-0.13599,-2.66308 1.68626,-4.97299 4.20514,-5.53237c0.29118,-0.06467 0.73499,-4.20234 1.04283,-4.21805c0.57991,-0.02961 0.99975,4.13003 1.53174,4.27311c2.19341,0.58992 3.85686,2.53694 3.97895,4.92795z" fill="url(#color-17)"/><path d="M167.46014,101.3321c-1.80164,-2.36718 -3.791,-10.96608 -2.42608,-12.02322c1.36067,-1.05385 9.19674,3.13174 10.99838,5.49892c1.61496,2.12189 1.41393,5.05718 -0.35001,6.94031c-0.2039,0.21769 1.76443,3.88415 1.51914,4.07084c-0.46206,0.35168 -3.15582,-2.84561 -3.67577,-2.66354c-2.14374,0.75064 -4.61569,0.08182 -6.06566,-1.8233z" fill="url(#color-18)"/><path d="M171.50148,106.2812c2.52051,-1.57999 11.26418,-2.78293 12.19346,-1.32793c0.92638,1.45046 -3.95127,8.87555 -6.47178,10.45554c-2.25934,1.41628 -5.16439,0.95042 -6.88014,-0.97672c-0.19834,-0.22277 -4.02791,1.40564 -4.19162,1.14446c-0.30841,-0.492 3.11954,-2.88532 2.9853,-3.41961c-0.55354,-2.20288 0.33627,-4.60415 2.36479,-5.87574z" fill="url(#color-19)"/></g><g stroke="none" stroke-width="0" stroke-linecap="butt"><path d="M300.13767,163.25571c-0.10976,2.97277 -4.02898,10.88089 -5.75471,10.83176c-1.72035,-0.04898 -5.1204,-8.25647 -5.01064,-11.22924c0.09839,-2.66474 2.11642,-4.80571 4.67469,-5.14174c0.29573,-0.03885 1.10116,-4.12157 1.4092,-4.11019c0.58027,0.02142 0.63324,4.20187 1.15061,4.39112c2.13315,0.78025 3.61918,2.8658 3.53084,5.2583z" fill="url(#color-20)"/><path d="M282.60163,147.81662c-2.95063,-0.37837 -10.47159,-4.99724 -10.26647,-6.71144c0.20448,-1.70885 8.68602,-4.35211 11.63665,-3.97375c2.64489,0.33916 4.59444,2.54269 4.69755,5.12088c0.01192,0.29803 4.00498,1.46967 3.96578,1.77541c-0.07385,0.57595 -4.24193,0.25034 -4.47723,0.74846c-0.9701,2.05377 -3.1816,3.34495 -5.55629,3.04044z" fill="url(#color-21)"/><path d="M311.08288,142.17486c2.64952,-1.35257 11.46504,-1.78307 12.26296,-0.25209c0.79543,1.52621 -4.71536,8.49429 -7.36489,9.84687c-2.37498,1.21242 -5.2279,0.49326 -6.7678,-1.57709c-0.17801,-0.23933 -4.13578,1.04652 -4.27593,0.77198c-0.26402,-0.51718 3.36086,-2.60025 3.27405,-3.14426c-0.35796,-2.24298 0.73926,-4.55685 2.87161,-5.6454z" fill="url(#color-22)"/><path d="M311.08655,154.34798c1.10721,2.76106 0.73809,11.57938 -0.85883,12.23546c-1.59193,0.65403 -8.03266,-5.46482 -9.13988,-8.22588c-0.99249,-2.47496 -0.01808,-5.25108 2.18315,-6.59728c0.25446,-0.15562 -0.66791,-4.21352 -0.38181,-4.32825c0.53895,-0.21612 2.28539,3.5824 2.83503,3.54518c2.26617,-0.15348 4.47124,1.14865 5.36233,3.37077z" fill="url(#color-23)"/><path d="M290.70775,144.28079c-0.76196,-2.87555 0.68065,-11.58289 2.3457,-12.03916c1.65985,-0.45486 7.30566,6.40431 8.06761,9.27987c0.683,2.5776 -0.62294,5.21403 -2.97201,6.28152c-0.27155,0.1234 0.14866,4.26353 -0.14929,4.34249c-0.5613,0.14873 -1.83109,-3.83455 -2.38117,-3.86469c-2.26796,-0.12425 -4.29762,-1.68577 -4.91084,-4.00002z" fill="url(#color-24)"/><path d="M306.12421,159.98905c2.93271,-0.49857 11.47375,1.72619 11.77745,3.4257c0.30276,1.69421 -7.03924,6.69603 -9.97196,7.1946c-2.62883,0.44691 -5.13625,-1.09229 -5.98676,-3.52833c-0.09832,-0.2816 -4.25949,-0.23782 -4.31115,-0.54171c-0.09732,-0.57245 3.98454,-1.47652 4.06434,-2.0216c0.329,-2.2474 2.06781,-4.12741 4.42807,-4.52866z" fill="url(#color-25)"/><path d="M282.82311,162.50227c-2.1399,2.06645 -10.44669,5.04912 -11.6564,3.81738c-1.20594,-1.22789 2.03321,-9.50021 4.17311,-11.56666c1.91816,-1.85233 4.85681,-1.99642 6.93354,-0.46515c0.24007,0.17701 3.6508,-2.20714 3.86493,-1.98541c0.40337,0.4177 -2.45646,3.46735 -2.21476,3.9624c0.99651,2.04109 0.62178,4.57435 -1.10042,6.23744z" fill="url(#color-26)"/><path d="M287.26491,157.90916c-1.8643,-2.31814 -4.08288,-10.86078 -2.74672,-11.95405c1.33199,-1.08985 9.27718,2.88471 11.14148,5.20285c1.67112,2.07794 1.54865,5.01755 -0.1643,6.94718c-0.19801,0.22306 1.86767,3.83558 1.62746,4.02875c-0.45249,0.3639 -3.23079,-2.76019 -3.74568,-2.5643c-2.1229,0.8077 -4.61185,0.20522 -6.11224,-1.66043z" fill="url(#color-27)"/></g><g stroke="none" stroke-width="0" stroke-linecap="butt"><path d="M333.96799,113.30827c2.92059,0.56528 10.13252,5.65318 9.81879,7.35086c-0.31276,1.69239 -8.94525,3.79082 -11.86584,3.22554c-2.61797,-0.5067 -4.42341,-2.82977 -4.36232,-5.40929c0.00706,-0.29819 -3.90339,-1.72144 -3.84482,-2.02407c0.11034,-0.57009 4.24926,0.01999 4.51576,-0.46216c1.09877,-1.98791 3.38792,-3.13581 5.73843,-2.68088z" fill="url(#color-28)"/><path d="M316.01754,128.26352c-0.82729,2.85745 -6.54704,9.57929 -8.20936,9.11319c-1.65713,-0.46465 -2.96565,-9.25163 -2.13836,-12.10907c0.74156,-2.56136 3.21851,-4.14914 5.78192,-3.85484c0.29633,0.03401 2.06766,-3.73157 2.36374,-3.64584c0.55776,0.16148 -0.4045,4.23001 0.05155,4.53906c1.88031,1.27419 2.81632,3.65783 2.15051,5.95751z" fill="url(#color-29)"/><path d="M314.81946,99.25358c-0.92935,-2.82591 -0.00008,-11.60287 1.63533,-12.15605c1.63031,-0.55146 7.66881,5.96466 8.59816,8.79057c0.83306,2.53308 -0.31596,5.2416 -2.59836,6.44507c-0.26384,0.13912 0.39855,4.24747 0.10573,4.34377c-0.55161,0.1814 -2.05292,-3.72051 -2.60381,-3.71832c-2.27134,0.00902 -4.38911,-1.43073 -5.13706,-3.70503z" fill="url(#color-30)"/><path d="M326.84857,101.12059c2.89841,-0.66978 11.55526,1.05006 11.95815,2.72883c0.40163,1.67352 -6.63427,7.09748 -9.53268,7.76726c-2.59808,0.60037 -5.19149,-0.78907 -6.18345,-3.17101c-0.11467,-0.27535 -4.26611,0.01248 -4.33551,-0.28785c-0.13074,-0.56576 3.89104,-1.70774 3.93872,-2.25657c0.19657,-2.26284 1.8221,-4.24162 4.15476,-4.78065z" fill="url(#color-31)"/><path d="M313.76936,119.71034c-2.95849,0.31103 -11.34072,-2.45251 -11.53571,-4.16788c-0.19439,-1.71004 7.4509,-6.23473 10.40939,-6.54576c2.65193,-0.2788 5.05638,1.41678 5.7502,3.90198c0.0802,0.28728 4.23574,0.50827 4.26797,0.81482c0.06071,0.57749 -4.07039,1.22009 -4.18469,1.759c-0.47128,2.22193 -2.32616,3.98753 -4.70716,4.23784z" fill="url(#color-32)"/><path d="M331.66006,106.89085c-0.04199,-2.9745 3.46885,-11.0722 5.19484,-11.11114c1.7206,-0.03882 5.53477,7.9846 5.57676,10.9591c0.03764,2.66629 -1.86859,4.9074 -4.4064,5.37345c-0.29336,0.05388 -0.88955,4.17235 -1.19776,4.1767c-0.58062,0.0082 -0.84669,-4.1641 -1.37304,-4.32672c-2.17016,-0.67045 -3.76062,-2.67751 -3.79441,-5.0714z" fill="url(#color-33)"/><path d="M330.56279,130.30139c1.71308,2.43204 3.38381,11.09848 1.98082,12.10455c-1.39862,1.00293 -9.07492,-3.46894 -10.788,-5.90097c-1.53557,-2.18003 -1.22638,-5.1059 0.60584,-6.92267c0.2118,-0.21001 -1.61991,-3.94661 -1.36791,-4.12412c0.47472,-0.33438 3.04868,2.9601 3.57499,2.79735c2.16998,-0.67103 4.61557,0.08854 5.99426,2.04586z" fill="url(#color-34)"/><path d="M326.7068,125.20654c-2.57709,1.48592 -11.35919,2.36542 -12.23415,0.87713c-0.87223,-1.48364 4.27606,-8.72371 6.85315,-10.20963c2.31006,-1.33195 5.19593,-0.75923 6.83941,1.2299c0.18999,0.22993 4.07703,-1.25607 4.231,-0.98903c0.29005,0.50304 -3.22388,2.76825 -3.10944,3.30714c0.47188,2.22181 -0.50592,4.58862 -2.57997,5.7845z" fill="url(#color-35)"/></g><g stroke="none" stroke-width="0" stroke-linecap="butt"><path d="M184.41394,169.83979c-0.10976,2.97277 -4.02898,10.8809 -5.75471,10.83177c-1.72035,-0.04898 -5.1204,-8.25647 -5.01064,-11.22924c0.09839,-2.66474 2.11642,-4.80572 4.67469,-5.14175c0.29573,-0.03885 1.10117,-4.12156 1.4092,-4.11019c0.58028,0.02142 0.63324,4.20187 1.15061,4.39111c2.13315,0.78025 3.61918,2.8658 3.53084,5.2583z" fill="url(#color-36)"/><path d="M166.8779,154.4007c-2.95064,-0.37837 -10.47159,-4.99723 -10.26647,-6.71144c0.20448,-1.70885 8.68601,-4.35211 11.63665,-3.97375c2.64489,0.33916 4.59445,2.54269 4.69756,5.12087c0.01192,0.29803 4.00499,1.46968 3.96578,1.77542c-0.07386,0.57595 -4.24193,0.25034 -4.47723,0.74846c-0.9701,2.05377 -3.1816,3.34495 -5.55629,3.04044z" fill="url(#color-37)"/><path d="M195.35917,148.75895c2.64953,-1.35257 11.46505,-1.78308 12.26297,-0.2521c0.79543,1.52621 -4.71536,8.4943 -7.36489,9.84687c-2.37498,1.21242 -5.22789,0.49326 -6.7678,-1.57709c-0.17801,-0.23933 -4.13577,1.04653 -4.27593,0.77198c-0.26402,-0.51718 3.36086,-2.60025 3.27405,-3.14427c-0.35796,-2.24298 0.73926,-4.55684 2.8716,-5.64539z" fill="url(#color-38)"/><path d="M195.36284,160.93207c1.10721,2.76106 0.73809,11.57938 -0.85882,12.23546c-1.59193,0.65403 -8.03266,-5.46482 -9.13987,-8.22588c-0.99249,-2.47496 -0.01808,-5.25108 2.18315,-6.59728c0.25446,-0.15562 -0.66791,-4.21352 -0.38181,-4.32824c0.53895,-0.21612 2.28539,3.5824 2.83503,3.54518c2.26617,-0.15348 4.47124,1.14865 5.36233,3.37077z" fill="url(#color-39)"/><path d="M174.98402,150.86487c-0.76196,-2.87555 0.68065,-11.58289 2.3457,-12.03916c1.65985,-0.45486 7.30566,6.40431 8.06761,9.27987c0.68301,2.5776 -0.62293,5.21403 -2.972,6.28152c-0.27155,0.1234 0.14866,4.26353 -0.14929,4.34249c-0.5613,0.14873 -1.83109,-3.83455 -2.38117,-3.86469c-2.26796,-0.12425 -4.29762,-1.68577 -4.91084,-4.00002z" fill="url(#color-40)"/><path d="M190.40049,166.57313c2.93272,-0.49857 11.47375,1.72619 11.77746,3.4257c0.30276,1.69421 -7.03924,6.69603 -9.97196,7.1946c-2.62883,0.44691 -5.13625,-1.09229 -5.98676,-3.52833c-0.09832,-0.2816 -4.25949,-0.23782 -4.31115,-0.54171c-0.09732,-0.57245 3.98454,-1.47652 4.06434,-2.0216c0.329,-2.2474 2.06781,-4.12741 4.42808,-4.52866z" fill="url(#color-41)"/><path d="M167.09939,169.08635c-2.1399,2.06645 -10.44668,5.04911 -11.65639,3.81738c-1.20594,-1.22789 2.0332,-9.5002 4.17311,-11.56666c1.91816,-1.85233 4.85681,-1.99643 6.93355,-0.46515c0.24007,0.17701 3.6508,-2.20714 3.86492,-1.98541c0.40337,0.4177 -2.45646,3.46735 -2.21476,3.9624c0.99651,2.04109 0.62178,4.57435 -1.10043,6.23744z" fill="url(#color-42)"/><path d="M171.54118,164.49325c-1.86429,-2.31814 -4.08289,-10.86078 -2.74672,-11.95405c1.33199,-1.08985 9.27719,2.8847 11.14148,5.20285c1.67112,2.07794 1.54865,5.01755 -0.16429,6.94718c-0.19801,0.22306 1.86766,3.83558 1.62746,4.02876c-0.45249,0.3639 -3.23078,-2.76019 -3.74568,-2.5643c-2.1229,0.8077 -4.61185,0.20522 -6.11225,-1.66044z" fill="url(#color-43)"/></g><path d="M200.29382,134.3476c-0.82729,2.85745 -6.54704,9.5793 -8.20936,9.11319c-1.65714,-0.46465 -2.96565,-9.25163 -2.13836,-12.10907c0.74157,-2.56136 3.21852,-4.14914 5.78192,-3.85484c0.29632,0.03401 2.06766,-3.73157 2.36374,-3.64585c0.55776,0.16148 -0.4045,4.23001 0.05155,4.53906c1.8803,1.27418 2.81632,3.65783 2.15051,5.95751z" fill="url(#color-44)" stroke="none" stroke-width="0" stroke-linecap="butt"/><path d="M199.09575,105.33767c-0.92935,-2.82591 -0.00008,-11.60287 1.63533,-12.15605c1.6303,-0.55146 7.66881,5.96466 8.59816,8.79057c0.83306,2.53308 -0.31596,5.2416 -2.59836,6.44507c-0.26384,0.13912 0.39855,4.24748 0.10574,4.34377c-0.55161,0.1814 -2.05291,-3.72051 -2.6038,-3.71833c-2.27134,0.00902 -4.38912,-1.43073 -5.13706,-3.70502z" fill="url(#color-45)" stroke="none" stroke-width="0" stroke-linecap="butt"/><path d="M211.12484,107.20467c2.89841,-0.66978 11.55526,1.05006 11.95816,2.72883c0.40163,1.67352 -6.63428,7.09748 -9.53269,7.76726c-2.59808,0.60037 -5.19149,-0.78907 -6.18345,-3.17101c-0.11468,-0.27535 -4.2661,0.01248 -4.3355,-0.28785c-0.13073,-0.56576 3.89104,-1.70774 3.93873,-2.25657c0.19657,-2.26284 1.8221,-4.24162 4.15475,-4.78066z" fill="url(#color-46)" stroke="none" stroke-width="0" stroke-linecap="butt"/><path d="M198.04563,125.79442c-2.95849,0.31103 -11.34072,-2.45251 -11.53571,-4.16788c-0.19439,-1.71004 7.4509,-6.23473 10.40939,-6.54576c2.65194,-0.2788 5.05638,1.41678 5.7502,3.90198c0.08021,0.28728 4.23574,0.50827 4.26797,0.81482c0.06071,0.57749 -4.07039,1.22009 -4.1847,1.759c-0.47128,2.22193 -2.32616,3.98753 -4.70716,4.23784z" fill="url(#color-47)" stroke="none" stroke-width="0" stroke-linecap="butt"/><path d="M215.93635,112.97493c-0.04199,-2.9745 3.46886,-11.0722 5.19485,-11.11114c1.72061,-0.03882 5.53477,7.98461 5.57676,10.95911c0.03764,2.66629 -1.8686,4.90739 -4.4064,5.37345c-0.29336,0.05388 -0.88954,4.17236 -1.19776,4.1767c-0.58061,0.0082 -0.84668,-4.1641 -1.37303,-4.32672c-2.17015,-0.67045 -3.76063,-2.67751 -3.79442,-5.0714z" fill="url(#color-48)" stroke="none" stroke-width="0" stroke-linecap="butt"/><path d="M214.83907,136.38547c1.71308,2.43204 3.38381,11.09848 1.98082,12.10455c-1.39862,1.00293 -9.07492,-3.46894 -10.788,-5.90097c-1.53556,-2.18003 -1.22638,-5.1059 0.60584,-6.92266c0.2118,-0.21001 -1.61991,-3.94661 -1.36791,-4.12412c0.47473,-0.33438 3.04868,2.9601 3.57499,2.79736c2.16997,-0.67103 4.61558,0.08854 5.99426,2.04585z" fill="url(#color-49)" stroke="none" stroke-width="0" stroke-linecap="butt"/><path d="M210.98308,129.79063c-2.5771,1.48592 -11.35919,2.36542 -12.23415,0.87713c-0.87223,-1.48364 4.27606,-8.72372 6.85315,-10.20964c2.31006,-1.33195 5.19593,-0.75923 6.83941,1.22991c0.18999,0.22993 4.07704,-1.25607 4.231,-0.98903c0.29004,0.50304 -3.22388,2.76825 -3.10944,3.30714c0.47188,2.22181 -0.50592,4.58862 -2.57997,5.7845z" fill="url(#color-50)" stroke="none" stroke-width="0" stroke-linecap="butt"/><path d="M176.74426,128.89235c2.92059,0.56528 10.13253,5.65318 9.81879,7.35086c-0.31276,1.69239 -8.94525,3.79082 -11.86584,3.22554c-2.61796,-0.50671 -4.42341,-2.82977 -4.36232,-5.40929c0.00706,-0.29818 -3.90339,-1.72144 -3.84482,-2.02407c0.11034,-0.57009 4.24926,0.01999 4.51576,-0.46216c1.09877,-1.98791 3.38792,-3.13582 5.73843,-2.68088z" fill="url(#color-51)" stroke="none" stroke-width="0" stroke-linecap="butt"/><path d="M184.79382,120.3476c-0.82729,2.85744 -6.54704,9.5793 -8.20936,9.11319c-1.65714,-0.46465 -2.96565,-9.25163 -2.13836,-12.10908c0.74157,-2.56136 3.21852,-4.14914 5.78192,-3.85484c0.29632,0.03401 2.06766,-3.73157 2.36374,-3.64585c0.55776,0.16148 -0.4045,4.23002 0.05155,4.53906c1.8803,1.27419 2.81632,3.65783 2.15051,5.95751z" fill="url(#color-52)" stroke="none" stroke-width="0" stroke-linecap="butt"/><path d="M186.09575,123.83767c-0.92935,-2.82591 -0.00008,-11.60287 1.63533,-12.15605c1.6303,-0.55146 7.66881,5.96466 8.59816,8.79057c0.83306,2.53308 -0.31596,5.2416 -2.59836,6.44507c-0.26384,0.13912 0.39855,4.24747 0.10574,4.34377c-0.55161,0.18141 -2.05291,-3.72051 -2.6038,-3.71832c-2.27134,0.00902 -4.38912,-1.43073 -5.13706,-3.70502z" fill="url(#color-53)" stroke="none" stroke-width="0" stroke-linecap="butt"/><path d="M192.04563,151.79442c-2.95849,0.31103 -11.34072,-2.45251 -11.53571,-4.16789c-0.19439,-1.71004 7.4509,-6.23473 10.40939,-6.54576c2.65194,-0.2788 5.05638,1.41678 5.7502,3.90199c0.08021,0.28728 4.23574,0.50827 4.26797,0.81482c0.06071,0.57749 -4.07039,1.22009 -4.1847,1.759c-0.47128,2.22193 -2.32616,3.98752 -4.70716,4.23783z" fill="url(#color-54)" stroke="none" stroke-width="0" stroke-linecap="butt"/><path d="M216.43635,140.97493c-0.04199,-2.9745 3.46886,-11.0722 5.19485,-11.11114c1.72061,-0.03882 5.53477,7.9846 5.57676,10.9591c0.03764,2.66628 -1.8686,4.9074 -4.4064,5.37345c-0.29336,0.05388 -0.88954,4.17235 -1.19776,4.1767c-0.58061,0.0082 -0.84668,-4.1641 -1.37303,-4.32671c-2.17015,-0.67045 -3.76063,-2.67751 -3.79442,-5.0714z" fill="url(#color-55)" stroke="none" stroke-width="0" stroke-linecap="butt"/><path d="M234.83907,148.88547c1.71308,2.43204 3.38381,11.09848 1.98082,12.10455c-1.39862,1.00293 -9.07492,-3.46894 -10.788,-5.90097c-1.53556,-2.18003 -1.22638,-5.1059 0.60584,-6.92266c0.2118,-0.21001 -1.61991,-3.94661 -1.36791,-4.12412c0.47473,-0.33438 3.04868,2.9601 3.57499,2.79736c2.16997,-0.67103 4.61558,0.08854 5.99426,2.04585z" fill="url(#color-56)" stroke="none" stroke-width="0" stroke-linecap="butt"/><path d="M212.98308,162.79063c-2.5771,1.48592 -11.35919,2.36542 -12.23415,0.87713c-0.87223,-1.48364 4.27606,-8.72371 6.85315,-10.20963c2.31006,-1.33195 5.19593,-0.75922 6.83941,1.22991c0.18999,0.22994 4.07704,-1.25607 4.231,-0.98903c0.29004,0.50304 -3.22388,2.76826 -3.10944,3.30714c0.47188,2.2218 -0.50592,4.58862 -2.57997,5.78449z" fill="url(#color-57)" stroke="none" stroke-width="0" stroke-linecap="butt"/><g stroke="none" stroke-width="0" stroke-linecap="butt"><path d="M232.75501,87.47025c-2.9212,0.56212 -11.50852,-1.47671 -11.84905,-3.16922c-0.33946,-1.68724 6.89222,-6.84727 9.81342,-7.40938c2.61851,-0.50387 5.15875,0.98053 6.06194,3.39754c0.10441,0.2794 4.26366,0.1453 4.3219,0.44799c0.10972,0.57021 -3.95155,1.56268 -4.0195,2.10938c-0.28014,2.25402 -1.97772,4.17131 -4.32872,4.62371z" fill="url(#color-58)"/><path d="M243.85125,66.90933c-0.29542,-2.96009 2.51225,-11.32762 4.22863,-11.51357c1.71104,-0.18537 6.19537,7.48366 6.49079,10.44375c0.26481,2.65336 -1.44341,5.04884 -3.93224,5.72956c-0.2877,0.07869 -0.53059,4.23301 -0.83731,4.26362c-0.5778,0.05767 -1.19862,-4.07676 -1.73692,-4.19391c-2.21941,-0.48298 -3.97519,-2.34715 -4.21295,-4.72944z" fill="url(#color-59)"/><path d="M255.75838,93.39012c1.91418,2.27714 4.3177,10.76959 3.00558,11.89161c-1.30802,1.11852 -9.33763,-2.68263 -11.25181,-4.95976c-1.71583,-2.04117 -1.65722,-4.98275 0.01344,-6.94911c0.19312,-0.22731 -1.95049,-3.79413 -1.71453,-3.99248c0.44449,-0.37364 3.28995,2.68941 3.80047,2.48238c2.10487,-0.85358 4.60631,-0.30529 6.14685,1.52736z" fill="url(#color-60)"/><path d="M243.8984,96.13343c-2.44103,1.70023 -11.11618,3.32525 -12.11483,1.91697c-0.99554,-1.40389 3.51674,-9.0565 5.95777,-10.75673c2.1881,-1.52406 5.11229,-1.19944 6.91938,0.64232c0.2089,0.2129 3.9551,-1.59909 4.13127,-1.34615c0.33187,0.47648 -2.97613,3.03303 -2.81616,3.56019c0.65958,2.17348 -0.11287,4.61505 -2.07742,5.9834z" fill="url(#color-61)"/><path d="M249.12077,74.01169c2.63029,-1.38959 11.43891,-1.9437 12.25822,-0.42407c0.81676,1.5149 -4.59577,8.5596 -7.22606,9.94919c-2.35774,1.2456 -5.22046,0.56654 -6.78925,-1.48201c-0.18135,-0.23681 -4.12069,1.10442 -4.26468,0.83187c-0.27124,-0.51342 3.32406,-2.64713 3.22962,-3.18988c-0.38938,-2.23774 0.67528,-4.56676 2.79215,-5.68511z" fill="url(#color-62)"/><path d="M237.28521,92.568c1.14584,2.74526 0.90043,11.56789 -0.68713,12.2463c-1.5826,0.67629 -8.10852,-5.35161 -9.25436,-8.09687c-1.02711,-2.4608 -0.09172,-5.25031 2.09041,-6.62726c0.25225,-0.15917 -0.72694,-4.20374 -0.44248,-4.32247c0.53587,-0.22366 2.33542,3.55 2.88448,3.50508c2.26379,-0.18525 4.48691,1.08583 5.40908,3.29523z" fill="url(#color-63)"/><path d="M229.59223,70.43036c-2.49506,-1.61992 -7.27075,-9.04229 -6.34288,-10.49819c0.92497,-1.45135 9.71407,-0.15711 12.20913,1.46281c2.23651,1.45206 3.0383,4.28288 2.01371,6.65097c-0.11844,0.27375 2.97218,3.06038 2.80433,3.31892c-0.3162,0.48703 -3.93125,-1.61305 -4.35921,-1.26614c-1.76444,1.43032 -4.31705,1.63535 -6.32507,0.33163z" fill="url(#color-64)"/><path d="M235.06718,73.72444c1.83909,-2.33819 9.66322,-6.42251 11.02917,-5.36668c1.36167,1.05253 -0.72274,9.68842 -2.56182,12.02661c-1.64853,2.09592 -4.54027,2.63819 -6.80592,1.40348c-0.26191,-0.14272 -3.31683,2.683 -3.55911,2.49244c-0.4564,-0.35899 1.96224,-3.76912 1.65549,-4.22672c-1.26477,-1.88665 -1.23792,-4.44734 0.24219,-6.32913z" fill="url(#color-65)"/></g><g stroke="none" stroke-width="0" stroke-linecap="butt"><path d="M289.03497,109.19124c0.10654,2.97289 -3.22767,11.1449 -4.95241,11.2213c-1.71936,0.07616 -5.70682,-7.86257 -5.81336,-10.83546c-0.09551,-2.66484 1.76163,-4.9468 4.28872,-5.46784c0.29212,-0.06023 0.79876,-4.19069 1.10681,-4.20172c0.58029,-0.0208 0.93688,4.14475 1.46664,4.2959c2.18421,0.62318 3.81786,2.59524 3.90361,4.98783z" fill="url(#color-66)"/><path d="M270.42341,95.06722c-2.97033,-0.16295 -10.80703,-4.22311 -10.72701,-5.94769c0.07977,-1.71919 8.34681,-4.97177 11.31714,-4.80881c2.66255,0.14607 4.76706,2.20212 5.05724,4.76599c0.03355,0.29638 4.10119,1.17477 4.0843,1.48255c-0.03181,0.5798 -4.21253,0.55791 -4.411,1.07181c-0.81831,2.11884 -2.93013,3.56731 -5.32066,3.43615z" fill="url(#color-67)"/><path d="M298.41944,87.3708c2.54424,-1.54152 11.30516,-2.61147 12.21222,-1.14252c0.90423,1.46437 -4.08566,8.81449 -6.6299,10.35601c-2.2806,1.38179 -5.17822,0.87184 -6.8645,-1.08114c-0.19493,-0.22576 -4.04881,1.34428 -4.20853,1.08065c-0.3009,-0.49663 3.16302,-2.8376 3.03691,-3.37386c-0.51999,-2.21104 0.40619,-4.59851 2.4538,-5.83913z" fill="url(#color-68)"/><path d="M299.30764,99.51147c1.30492,2.6733 1.57756,11.49513 0.03253,12.26552c-1.54019,0.76798 -8.40852,-4.86668 -9.71344,-7.53999c-1.16971,-2.3963 -0.39959,-5.23589 1.69799,-6.73848c0.24248,-0.1737 -0.97231,-4.15384 -0.69531,-4.28905c0.52182,-0.25472 2.53967,3.40686 3.08515,3.3298c2.24903,-0.31776 4.54288,0.82072 5.59308,2.97221z" fill="url(#color-69)"/><path d="M278.25118,90.95171c-0.96889,-2.81258 -0.1628,-11.60174 1.46468,-12.1778c1.62241,-0.57427 7.75171,5.85653 8.7206,8.66911c0.86851,2.52115 -0.24242,5.24551 -2.50771,6.48087c-0.26187,0.1428 0.45808,4.24146 0.16665,4.34186c-0.54901,0.18913 -2.10489,-3.69136 -2.6557,-3.68144c-2.27099,0.04089 -4.40875,-1.36903 -5.18852,-3.6326z" fill="url(#color-70)"/><path d="M294.76833,105.49821c2.88873,-0.71036 11.56885,0.8879 11.99525,2.56085c0.42507,1.66773 -6.53407,7.18983 -9.42281,7.90019c-2.5894,0.63676 -5.20205,-0.71618 -6.22731,-3.08398c-0.11852,-0.27371 -4.26551,0.07233 -4.33911,-0.227c-0.13866,-0.56387 3.8667,-1.76215 3.90668,-2.3116c0.16482,-2.26537 1.76244,-4.26675 4.0873,-4.83845z" fill="url(#color-71)"/><path d="M271.71145,109.69795c-1.98408,2.21649 -10.05217,5.79486 -11.34818,4.65429c-1.29198,-1.13702 1.33751,-9.62283 3.32159,-11.83931c1.7785,-1.98681 4.69889,-2.34407 6.88141,-0.96774c0.2523,0.1591 3.48077,-2.4666 3.71044,-2.26101c0.43265,0.38729 -2.19801,3.63667 -1.92098,4.11285c1.1422,1.96327 0.95253,4.51709 -0.64427,6.30092z" fill="url(#color-72)"/><path d="M275.80773,104.79423c-2.02781,-2.17655 -4.86129,-10.53538 -3.6081,-11.72286c1.24928,-1.18376 9.46229,2.20295 11.49009,4.3795c1.8177,1.95102 1.90916,4.89175 0.34096,6.94075c-0.18128,0.23686 2.14144,3.68974 1.9159,3.89986c-0.42485,0.39582 -3.42281,-2.51813 -3.92211,-2.28535c-2.0586,0.95982 -4.58475,0.53979 -6.21675,-1.2119z" fill="url(#color-73)"/></g><path d="M262.42157,66.95324c1.93641,-2.25825 9.92641,-6.00773 11.24644,-4.89503c1.31591,1.10923 -1.13216,9.64914 -3.06858,11.90739c-1.73577,2.02425 -4.64787,2.44366 -6.85922,1.11416c-0.25563,-0.15368 -3.42742,2.5402 -3.66142,2.33955c-0.44081,-0.37798 2.12002,-3.68269 1.83291,-4.15285c-1.18378,-1.9385 -1.04856,-4.49576 0.50987,-6.31321z" fill="url(#color-74)" stroke="none" stroke-width="0" stroke-linecap="butt"/><path d="M280.57575,76.814c-2.97033,-0.16295 -10.80703,-4.22312 -10.72701,-5.9477c0.07977,-1.71919 8.34681,-4.97177 11.31714,-4.80881c2.66255,0.14607 4.76706,2.20212 5.05724,4.76599c0.03355,0.29638 4.1012,1.17477 4.08431,1.48255c-0.03181,0.5798 -4.21253,0.55791 -4.411,1.07181c-0.81831,2.11884 -2.93013,3.56731 -5.32066,3.43616z" fill="url(#color-75)" stroke="none" stroke-width="0" stroke-linecap="butt"/><path d="M277.46824,78.86801c2.54424,-1.54152 11.30517,-2.61147 12.21223,-1.14252c0.90423,1.46437 -4.08566,8.81449 -6.6299,10.35601c-2.2806,1.38179 -5.17823,0.87184 -6.86451,-1.08115c-0.19493,-0.22576 -4.04881,1.34428 -4.20853,1.08065c-0.3009,-0.49663 3.16302,-2.8376 3.0369,-3.37387c-0.51999,-2.21104 0.40619,-4.59851 2.4538,-5.83913z" fill="url(#color-76)" stroke="none" stroke-width="0" stroke-linecap="butt"/><path d="M245.68169,113.95122c1.30492,2.6733 1.57756,11.49512 0.03254,12.26551c-1.5402,0.76798 -8.40852,-4.86668 -9.71345,-7.53998c-1.1697,-2.3963 -0.39959,-5.23589 1.69799,-6.73848c0.24248,-0.1737 -0.97232,-4.15385 -0.69531,-4.28906c0.52182,-0.25472 2.53967,3.40687 3.08515,3.3298c2.24903,-0.31776 4.54288,0.82072 5.59308,2.97221z" fill="url(#color-77)" stroke="none" stroke-width="0" stroke-linecap="butt"/><path d="M251.56785,90.95731c-0.9689,-2.81258 -0.16281,-11.60173 1.46467,-12.17779c1.62241,-0.57427 7.75171,5.85653 8.72061,8.66911c0.86851,2.52115 -0.24241,5.24551 -2.50771,6.48087c-0.26187,0.1428 0.45808,4.24146 0.16664,4.34186c-0.54901,0.18913 -2.10488,-3.69136 -2.65569,-3.68144c-2.27099,0.04089 -4.40876,-1.36903 -5.18852,-3.63261z" fill="url(#color-78)" stroke="none" stroke-width="0" stroke-linecap="butt"/><path d="M267.59923,112.28718c2.88873,-0.71036 11.56885,0.8879 11.99525,2.56085c0.42507,1.66773 -6.53407,7.18982 -9.42281,7.90018c-2.5894,0.63676 -5.20205,-0.71617 -6.22731,-3.08398c-0.11852,-0.27371 -4.26551,0.07232 -4.33911,-0.227c-0.13866,-0.56387 3.86671,-1.76215 3.90669,-2.31159c0.16482,-2.26537 1.76244,-4.26675 4.0873,-4.83845z" fill="url(#color-79)" stroke="none" stroke-width="0" stroke-linecap="butt"/><path d="M260.41042,123.98097c2.79007,1.03195 9.08024,7.22327 8.49503,8.84749c-0.58339,1.61916 -9.44203,2.28818 -12.2321,1.25623c-2.50096,-0.92503 -3.90528,-3.51041 -3.42619,-6.04579c0.05538,-0.29309 -3.57212,-2.33235 -3.46519,-2.62146c0.20144,-0.54461 4.18965,0.70964 4.53089,0.27715c1.40695,-1.78314 3.8521,-2.54416 6.09755,-1.71363z" fill="url(#color-80)" stroke="none" stroke-width="0" stroke-linecap="butt"/><path d="M245.56603,113.83244c-2.02781,-2.17655 -4.86129,-10.53539 -3.6081,-11.72286c1.24928,-1.18376 9.46229,2.20295 11.49009,4.3795c1.81769,1.95102 1.90916,4.89175 0.34096,6.94075c-0.18127,0.23686 2.14144,3.68974 1.91591,3.89986c-0.42486,0.39582 -3.42281,-2.51814 -3.92211,-2.28535c-2.0586,0.95982 -4.58476,0.5398 -6.21675,-1.21189z" fill="url(#color-81)" stroke="none" stroke-width="0" stroke-linecap="butt"/><path d="M308.12408,71.30656c1.23419,-2.70669 7.87098,-8.52492 9.44781,-7.82194c1.57191,0.70079 1.58818,9.58465 0.35399,12.29133c-1.10631,2.42623 -3.78789,3.63678 -6.2812,2.97268c-0.28822,-0.07676 -2.58853,3.39107 -2.86899,3.26319c-0.52834,-0.24091 1.01558,-4.12618 0.60933,-4.49828c-1.67494,-1.53418 -2.25422,-4.02863 -1.26094,-6.20698z" fill="url(#color-82)" stroke="none" stroke-width="0" stroke-linecap="butt"/><path d="M318.45453,92.26271c2.58388,1.4741 7.77756,8.61024 6.93475,10.11697c-0.84018,1.50203 -9.68905,0.71418 -12.27293,-0.75992c-2.31614,-1.32135 -3.27902,-4.10149 -2.39199,-6.52447c0.10253,-0.2801 -3.14287,-2.88482 -2.99012,-3.15256c0.28774,-0.50436 4.01731,1.38486 4.42465,1.01396c1.67947,-1.52921 4.21612,-1.88035 6.29564,-0.69398z" fill="url(#color-83)" stroke="none" stroke-width="0" stroke-linecap="butt"/><path d="M289.97213,86.62669c-2.96503,0.24099 -11.27956,-2.71994 -11.43394,-4.43946c-0.1539,-1.71415 7.59621,-6.05683 10.56124,-6.29782c2.65778,-0.21602 5.02146,1.53592 5.65634,4.03684c0.07339,0.2891 4.22255,0.60828 4.24752,0.91551c0.04704,0.57877 -4.09809,1.12352 -4.22511,1.65957c-0.52369,2.21017 -2.41979,3.9314 -4.80604,4.12535z" fill="url(#color-84)" stroke="none" stroke-width="0" stroke-linecap="butt"/><path d="M294.60705,75.37048c0.02835,-2.97465 3.72965,-10.98709 5.4561,-10.98521c1.72105,0.00187 5.34445,8.11324 5.3161,11.0879c-0.02542,2.66643 -1.9841,4.86185 -4.53222,5.26776c-0.29456,0.04693 -0.98796,4.15015 -1.29619,4.14722c-0.58064,-0.00553 -0.74798,-4.18296 -1.27034,-4.35797c-2.15371,-0.72157 -3.69627,-2.76568 -3.67345,-5.15969z" fill="url(#color-85)" stroke="none" stroke-width="0" stroke-linecap="butt"/><path d="M309.61266,92.44315c-0.39119,2.94896 -5.04273,10.44976 -6.75601,10.23719c-1.70796,-0.21191 -4.31431,-8.70486 -3.92312,-11.65382c0.35066,-2.64339 2.56264,-4.58335 5.14125,-4.67524c0.29808,-0.01063 1.48708,-3.99856 1.79264,-3.95803c0.57563,0.07636 0.23189,4.24299 0.72898,4.48044c2.04953,0.97903 3.3311,3.19613 3.01626,5.56946z" fill="url(#color-86)" stroke="none" stroke-width="0" stroke-linecap="butt"/><path d="M284.21291,68.32236c-1.42818,-2.60954 -2.11198,-11.40905 -0.60458,-12.25065c1.50269,-0.83899 8.62636,4.4692 10.05454,7.07873c1.2802,2.33914 0.64337,5.21155 -1.38184,6.81035c-0.23411,0.18482 1.165,4.10398 0.8946,4.25195c-0.50938,0.27878 -2.6958,-3.2847 -3.2371,-3.18227c-2.23176,0.4223 -4.57622,-0.60794 -5.72563,-2.70811z" fill="url(#color-87)" stroke="none" stroke-width="0" stroke-linecap="butt"/><path d="M323.84541,78.60051c2.76585,-1.0952 11.58247,-0.68774 12.2316,0.91201c0.64711,1.59476 -5.49968,8.00883 -8.26553,9.10403c-2.47926,0.98172 -5.25111,-0.00476 -6.58773,-2.21182c-0.15451,-0.25513 -4.21639,0.64959 -4.32987,0.36299c-0.21378,-0.53988 3.59231,-2.2698 3.55748,-2.81959c-0.14363,-2.26681 1.16809,-4.4662 3.39406,-5.34762z" fill="url(#color-88)" stroke="none" stroke-width="0" stroke-linecap="butt"/><path d="M317.98859,81.15467c0.84037,2.85362 -0.36339,11.59718 -2.01532,12.09886c-1.64677,0.50012 -7.4782,-6.20197 -8.31857,-9.05559c-0.7533,-2.55794 0.47999,-5.22912 2.79897,-6.36051c0.26806,-0.1308 -0.2653,-4.25787 0.03039,-4.34495c0.55701,-0.16403 1.93536,3.78299 2.48604,3.79807c2.27051,0.06212 4.34215,1.56751 5.01849,3.86411z" fill="url(#color-89)" stroke="none" stroke-width="0" stroke-linecap="butt"/><path d="M267.12408,160.30656c1.23419,-2.70669 7.87098,-8.52491 9.44781,-7.82194c1.57191,0.70078 1.58818,9.58464 0.35399,12.29134c-1.10631,2.42622 -3.78789,3.63678 -6.2812,2.97268c-0.28822,-0.07676 -2.58853,3.39107 -2.86899,3.26318c-0.52834,-0.24091 1.01558,-4.12618 0.60933,-4.49828c-1.67494,-1.53418 -2.25422,-4.02863 -1.26094,-6.20699z" fill="url(#color-90)" stroke="none" stroke-width="0" stroke-linecap="butt"/><path d="M277.45453,181.26271c2.58388,1.4741 7.77756,8.61024 6.93475,10.11697c-0.84018,1.50203 -9.68905,0.71418 -12.27293,-0.75992c-2.31614,-1.32135 -3.27902,-4.1015 -2.39199,-6.52448c0.10253,-0.28009 -3.14287,-2.88482 -2.99012,-3.15256c0.28774,-0.50436 4.01731,1.38486 4.42465,1.01397c1.67947,-1.5292 4.21612,-1.88035 6.29564,-0.69398z" fill="url(#color-91)" stroke="none" stroke-width="0" stroke-linecap="butt"/><path d="M253.60705,164.37048c0.02836,-2.97466 3.72966,-10.9871 5.4561,-10.98522c1.72105,0.00188 5.34445,8.11324 5.3161,11.0879c-0.02542,2.66643 -1.9841,4.86184 -4.53222,5.26776c-0.29456,0.04693 -0.98796,4.15016 -1.29619,4.14722c-0.58064,-0.00554 -0.74798,-4.18296 -1.27034,-4.35797c-2.15371,-0.72157 -3.69627,-2.76568 -3.67345,-5.15969z" fill="url(#color-92)" stroke="none" stroke-width="0" stroke-linecap="butt"/><path d="M268.61266,181.44315c-0.39119,2.94896 -5.04273,10.44976 -6.75601,10.23719c-1.70796,-0.21191 -4.31431,-8.70486 -3.92312,-11.65382c0.35066,-2.64339 2.56264,-4.58335 5.14125,-4.67524c0.29808,-0.01063 1.48708,-3.99856 1.79264,-3.95802c0.57563,0.07636 0.23189,4.24298 0.72898,4.48044c2.04953,0.97903 3.3311,3.19612 3.01626,5.56946z" fill="url(#color-93)" stroke="none" stroke-width="0" stroke-linecap="butt"/><path d="M260.34446,161.04575c-2.90145,-0.65649 -9.95048,-5.96781 -9.58371,-7.65483c0.36561,-1.68176 9.05961,-3.50874 11.96106,-2.85225c2.60081,0.58846 4.3326,2.96695 4.19074,5.54329c-0.01639,0.29782 3.84756,1.84287 3.77952,2.14351c-0.12815,0.56635 -4.24655,-0.15309 -4.52802,0.32047c-1.16051,1.95251 -3.48449,3.02815 -5.81959,2.49981z" fill="url(#color-94)" stroke="none" stroke-width="0" stroke-linecap="butt"/><path d="M282.84541,167.60051c2.76585,-1.0952 11.58247,-0.68774 12.2316,0.91201c0.64711,1.59476 -5.49968,8.00883 -8.26553,9.10403c-2.47926,0.98172 -5.25111,-0.00475 -6.58773,-2.21182c-0.15451,-0.25513 -4.21639,0.64959 -4.32987,0.36299c-0.21378,-0.53988 3.59231,-2.2698 3.55748,-2.81959c-0.14363,-2.26682 1.16809,-4.4662 3.39406,-5.34762z" fill="url(#color-95)" stroke="none" stroke-width="0" stroke-linecap="butt"/><path d="M276.98859,170.15467c0.84037,2.85362 -0.36339,11.59718 -2.01532,12.09886c-1.64677,0.50012 -7.4782,-6.20197 -8.31857,-9.05559c-0.7533,-2.55793 0.47999,-5.22912 2.79897,-6.3605c0.26806,-0.1308 -0.2653,-4.25788 0.03039,-4.34495c0.55701,-0.16404 1.93536,3.783 2.48604,3.79807c2.27051,0.06212 4.34215,1.56751 5.01849,3.86411z" fill="url(#color-96)" stroke="none" stroke-width="0" stroke-linecap="butt"/><path d="M212.18314,183.59756c-1.97376,2.22568 -10.02511,5.84156 -11.32642,4.70702c-1.29725,-1.13099 1.29274,-9.62895 3.2665,-11.85463c1.76924,-1.99507 4.68794,-2.36589 6.87684,-0.99974c0.25304,0.15792 3.46927,-2.48275 3.69988,-2.27823c0.43445,0.38527 -2.18107,3.64685 -1.90184,4.12174c1.15132,1.95795 0.97353,4.51261 -0.61496,6.30384z" fill="url(#color-97)" stroke="none" stroke-width="0" stroke-linecap="butt"/><path d="M240.62484,120.70467c2.89841,-0.66978 11.55526,1.05006 11.95816,2.72883c0.40163,1.67352 -6.63428,7.09748 -9.53269,7.76725c-2.59808,0.60038 -5.19149,-0.78907 -6.18345,-3.17101c-0.11468,-0.27535 -4.2661,0.01248 -4.3355,-0.28785c-0.13073,-0.56576 3.89104,-1.70774 3.93873,-2.25657c0.19657,-2.26284 1.8221,-4.24162 4.15475,-4.78066z" fill="url(#color-98)" stroke="none" stroke-width="0" stroke-linecap="butt"/><path d="M239.68314,141.59756c-1.97376,2.22568 -10.02511,5.84156 -11.32642,4.70702c-1.29725,-1.13099 1.29274,-9.62895 3.2665,-11.85463c1.76924,-1.99507 4.68794,-2.36589 6.87684,-0.99974c0.25304,0.15792 3.46927,-2.48275 3.69988,-2.27823c0.43445,0.38527 -2.18107,3.64685 -1.90184,4.12174c1.15132,1.95795 0.97353,4.51261 -0.61496,6.30384z" fill="url(#color-99)" stroke="none" stroke-width="0" stroke-linecap="butt"/><path d="M226.74426,118.89235c2.92059,0.56528 10.13253,5.65318 9.81879,7.35087c-0.31276,1.69239 -8.94525,3.79082 -11.86584,3.22554c-2.61796,-0.50671 -4.42341,-2.82977 -4.36232,-5.40929c0.00706,-0.29819 -3.90339,-1.72144 -3.84482,-2.02407c0.11034,-0.57009 4.24926,0.01999 4.51576,-0.46216c1.09877,-1.98791 3.38792,-3.13582 5.73843,-2.68088z" fill="url(#color-100)" stroke="none" stroke-width="0" stroke-linecap="butt"/><g stroke="none" stroke-width="0" stroke-linecap="butt"><path d="M333.11376,148.10333c2.35575,1.81655 6.51499,9.60112 5.47233,10.97713c-1.03941,1.37172 -9.69491,-0.62967 -12.05066,-2.44622c-2.11165,-1.62832 -2.68167,-4.51473 -1.46877,-6.79213c0.14021,-0.26326 -2.71472,-3.29092 -2.5265,-3.53502c0.35458,-0.45983 3.78779,1.92597 4.24242,1.61483c1.87442,-1.28282 4.43525,-1.28056 6.33116,0.18141z" fill="url(#color-101)"/><path d="M310.35929,153.40547c-2.02231,2.18167 -10.15136,5.61929 -11.42736,4.45637c-1.27202,-1.15929 1.50454,-9.59813 3.52685,-11.7798c1.81276,-1.9556 4.73892,-2.26205 6.8972,-0.84801c0.2495,0.16346 3.52311,-2.40573 3.74917,-2.19618c0.42585,0.39475 -2.26087,3.59793 -1.99216,4.07886c1.10791,1.98283 0.87387,4.53295 -0.75369,6.28876z" fill="url(#color-102)"/><path d="M322.31552,126.94681c0.43856,-2.9423 5.21013,-10.36732 6.91978,-10.12722c1.70432,0.23935 4.17375,8.77311 3.73519,11.71541c-0.39312,2.63742 -2.63602,4.54154 -5.21577,4.59195c-0.29821,0.00583 -1.55118,3.97413 -1.85607,3.92868c-0.57433,-0.0856 -0.16362,-4.24617 -0.65683,-4.49159c-2.03352,-1.01187 -3.27926,-3.24927 -2.9263,-5.61723z" fill="url(#color-103)"/><path d="M332.22528,134.01658c2.89051,0.70306 9.85321,6.12705 9.45936,7.80796c-0.39261,1.67566 -9.11487,3.36259 -12.00538,2.65953c-2.59101,-0.63021 -4.28432,-3.03624 -4.10104,-5.60996c0.02118,-0.29752 -3.81742,-1.90451 -3.74456,-2.20402c0.13724,-0.56421 4.24353,0.22136 4.53259,-0.24761c1.19176,-1.9336 3.53274,-2.97172 5.85904,-2.40589z" fill="url(#color-104)"/><path d="M312.19128,144.75358c-2.7831,-1.05059 -9.03177,-7.2838 -8.43572,-8.90407c0.5942,-1.61522 9.45713,-2.22503 12.24023,-1.17444c2.49473,0.94172 3.88173,3.53643 3.38571,6.06855c-0.05734,0.29271 3.55644,2.35618 3.44758,2.64456c-0.20508,0.54325 -4.18481,-0.73762 -4.52894,-0.30743c-1.41884,1.77369 -3.86901,2.51835 -6.10886,1.67283z" fill="url(#color-105)"/><path d="M333.93331,141.33294c1.29816,-2.67659 8.07135,-8.33546 9.63103,-7.59521c1.55481,0.73794 1.35995,9.61969 0.06179,12.29628c-1.16364,2.39925 -3.87324,3.54573 -6.35008,2.82257c-0.28632,-0.0836 -2.66839,3.32859 -2.94573,3.19408c-0.52246,-0.2534 1.11334,-4.10087 0.71607,-4.48252c-1.63799,-1.57354 -2.15783,-4.08106 -1.11307,-6.2352z" fill="url(#color-106)"/><path d="M322.44054,161.75776c0.43856,2.9423 -1.96023,11.43609 -3.66559,11.70502c-1.70004,0.26809 -6.55083,-7.17457 -6.98939,-10.11686c-0.39312,-2.63741 1.197,-5.11288 3.6499,-5.91342c0.28355,-0.09255 0.32479,-4.25375 0.62967,-4.29919c0.57432,-0.08561 1.39482,4.01388 1.93816,4.10479c2.24021,0.37484 4.08429,2.1517 4.43725,4.51967z" fill="url(#color-107)"/><path d="M321.28298,155.47396c-2.9699,0.17046 -11.21173,-2.98723 -11.3252,-4.70994c-0.11312,-1.71732 7.73802,-5.87459 10.70792,-6.04505c2.66217,-0.1528 4.98354,1.65483 5.55881,4.17013c0.06651,0.29076 4.20689,0.70845 4.22455,1.01619c0.03327,0.57971 -4.12363,1.0258 -4.26336,1.55868c-0.57605,2.1971 -2.51253,3.8728 -4.90272,4.00998z" fill="url(#color-108)"/></g><g stroke="none" stroke-width="0" stroke-linecap="butt"><path d="M186.61376,90.60333c2.35575,1.81655 6.51499,9.60112 5.47233,10.97714c-1.03941,1.37172 -9.69491,-0.62967 -12.05066,-2.44622c-2.11165,-1.62833 -2.68166,-4.51474 -1.46876,-6.79213c0.14021,-0.26326 -2.71473,-3.29092 -2.5265,-3.53502c0.35458,-0.45983 3.78779,1.92596 4.24242,1.61483c1.87443,-1.28282 4.43526,-1.28056 6.33116,0.18141z" fill="url(#color-109)"/><path d="M163.8593,95.90547c-2.02231,2.18166 -10.15136,5.61929 -11.42736,4.45636c-1.27202,-1.1593 1.50454,-9.59813 3.52685,-11.77979c1.81276,-1.9556 4.73892,-2.26205 6.89719,-0.84801c0.24949,0.16346 3.52311,-2.40573 3.74917,-2.19618c0.42585,0.39475 -2.26087,3.59793 -1.99216,4.07885c1.1079,1.98283 0.87387,4.53296 -0.75369,6.28877z" fill="url(#color-110)"/><path d="M175.81553,69.44681c0.43857,-2.9423 5.21013,-10.36732 6.91978,-10.12722c1.70433,0.23935 4.17376,8.77311 3.73519,11.7154c-0.39311,2.63742 -2.63602,4.54154 -5.21577,4.59195c-0.29821,0.00583 -1.55119,3.97413 -1.85607,3.92868c-0.57433,-0.08561 -0.16362,-4.24617 -0.65683,-4.49159c-2.03352,-1.01187 -3.27927,-3.24927 -2.92631,-5.61723z" fill="url(#color-111)"/><path d="M185.72528,76.51658c2.89051,0.70306 9.85321,6.12705 9.45936,7.80796c-0.39262,1.67566 -9.11487,3.36259 -12.00538,2.65953c-2.59101,-0.63021 -4.28432,-3.03624 -4.10104,-5.60997c0.02118,-0.29752 -3.81742,-1.90451 -3.74456,-2.20402c0.13724,-0.56422 4.24354,0.22136 4.53259,-0.24761c1.19176,-1.9336 3.53274,-2.97173 5.85904,-2.4059z" fill="url(#color-112)"/><path d="M165.69126,87.25358c-2.7831,-1.05059 -9.03177,-7.2838 -8.43571,-8.90407c0.5942,-1.61522 9.45713,-2.22503 12.24023,-1.17444c2.49472,0.94173 3.88173,3.53643 3.38571,6.06855c-0.05734,0.29271 3.55644,2.35618 3.44758,2.64456c-0.20507,0.54326 -4.18481,-0.73763 -4.52894,-0.30743c-1.41884,1.77369 -3.86901,2.51835 -6.10886,1.67283z" fill="url(#color-113)"/><path d="M187.43331,83.83294c1.29817,-2.6766 8.07135,-8.33546 9.63102,-7.59521c1.55481,0.73794 1.35996,9.61968 0.06179,12.29628c-1.16365,2.39925 -3.87324,3.54573 -6.35008,2.82257c-0.28632,-0.0836 -2.66839,3.32859 -2.94573,3.19408c-0.52246,-0.25339 1.11334,-4.10087 0.71606,-4.48252c-1.63799,-1.57354 -2.15784,-4.08107 -1.11307,-6.2352z" fill="url(#color-114)"/><path d="M175.94054,104.25776c0.43856,2.9423 -1.96023,11.43609 -3.66559,11.70501c-1.70004,0.26808 -6.55083,-7.17456 -6.98939,-10.11686c-0.39312,-2.63741 1.197,-5.11288 3.64991,-5.91343c0.28355,-0.09255 0.32478,-4.25374 0.62966,-4.29919c0.57432,-0.08561 1.39482,4.01387 1.93816,4.10479c2.24022,0.37484 4.0843,2.1517 4.43725,4.51967z" fill="url(#color-115)"/><path d="M174.78298,97.97396c-2.96991,0.17046 -11.21173,-2.98723 -11.32521,-4.70994c-0.11312,-1.71732 7.73802,-5.87458 10.70792,-6.04505c2.66217,-0.1528 4.98354,1.65484 5.55881,4.17013c0.06651,0.29076 4.2069,0.70844 4.22456,1.01618c0.03327,0.57971 -4.12363,1.0258 -4.26336,1.55869c-0.57605,2.1971 -2.51253,3.87279 -4.90272,4.00998z" fill="url(#color-116)"/></g><path d="M208.14865,56.77764c0,-2.9748 3.62477,-11.02214 5.35114,-11.03672c1.72099,-0.01453 5.42155,8.06192 5.42155,11.03672c0,2.66655 -1.93767,4.88054 -4.4818,5.31073c-0.29409,0.04973 -0.94835,4.15938 -1.25659,4.15938c-0.58067,0 -0.78784,-4.17564 -1.31184,-4.34567c-2.16048,-0.70101 -3.72245,-2.73031 -3.72245,-5.12444z" fill="url(#color-117)" stroke="none" stroke-width="0" stroke-linecap="butt"/><path d="M226.2424,71.5592c2.96258,0.26924 10.64884,4.60747 10.50711,6.32808c-0.14129,1.71524 -8.51953,4.66963 -11.48211,4.40039c-2.65561,-0.24134 -4.68513,-2.37144 -4.8833,-4.94407c-0.02291,-0.29739 -4.05648,-1.3209 -4.02858,-1.62788c0.05256,-0.57828 4.22981,-0.40667 4.44656,-0.91314c0.89367,-2.08817 3.05602,-3.46006 5.44032,-3.24338z" fill="url(#color-118)" stroke="none" stroke-width="0" stroke-linecap="butt"/><path d="M197.98869,78.24796c-2.59781,1.4494 -11.39145,2.20488 -12.24532,0.70439c-0.8512,-1.49581 4.39874,-8.66249 6.99656,-10.1119c2.32863,-1.29922 5.20614,-0.68582 6.82138,1.32631c0.18672,0.2326 4.09435,-1.1984 4.24454,-0.92922c0.28292,0.50709 -3.26264,2.72249 -3.15581,3.26293c0.44047,2.22825 -0.57062,4.58101 -2.66135,5.7475z" fill="url(#color-119)" stroke="none" stroke-width="0" stroke-linecap="butt"/><path d="M197.53588,66.08327c-1.20834,-2.71833 -1.16483,-11.54425 0.40679,-12.25881c1.56671,-0.71232 8.22882,5.16471 9.43716,7.88304c1.08313,2.43666 0.21181,5.24684 -1.93825,6.67334c-0.24854,0.16491 0.82291,4.18601 0.54125,4.31121c-0.53061,0.23586 -2.41601,-3.49564 -2.9639,-3.43816c-2.25896,0.23699 -4.51058,-0.9829 -5.48305,-3.17063z" fill="url(#color-120)" stroke="none" stroke-width="0" stroke-linecap="butt"/><path d="M218.27226,75.39171c0.86754,2.84548 -0.25283,11.60012 -1.8999,12.11751c-1.64194,0.51579 -7.53697,-6.1304 -8.40451,-8.97589c-0.77765,-2.55064 0.43013,-5.23346 2.73822,-6.3869c0.26681,-0.13334 -0.30588,-4.25514 -0.01103,-4.34504c0.55543,-0.16934 1.97133,3.76438 2.52214,3.7742c2.271,0.04048 4.35689,1.52606 5.05508,3.81611z" fill="url(#color-121)" stroke="none" stroke-width="0" stroke-linecap="butt"/><path d="M217.53978,103.52509c-2.95662,-0.32841 -10.55461,-4.81942 -10.37851,-6.53684c0.17555,-1.71207 8.61116,-4.49839 11.56777,-4.16999c2.65025,0.29438 4.63679,2.46461 4.78349,5.04069c0.01696,0.29779 4.02927,1.40173 3.99523,1.70809c-0.06411,0.57711 -4.23709,0.32204 -4.46393,0.82407c-0.93524,2.06989 -3.12457,3.39829 -5.50407,3.13399z" fill="url(#color-122)" stroke="none" stroke-width="0" stroke-linecap="butt"/><path d="M225.47921,56.89173c2.06221,-2.144 10.25328,-5.43112 11.50761,-4.24486c1.25043,1.18256 -1.6813,9.56876 -3.7435,11.71276c-1.84851,1.92184 -4.77983,2.17426 -6.91166,0.72065c-0.24643,-0.16803 -3.56688,2.34034 -3.78904,2.12666c-0.41851,-0.40254 2.32685,-3.55562 2.06705,-4.04142c-1.07115,-2.00293 -0.79013,-4.5483 0.86954,-6.27379z" fill="url(#color-123)" stroke="none" stroke-width="0" stroke-linecap="butt"/><path d="M221.20992,61.64559c1.94855,2.24778 4.48083,10.70275 3.18591,11.84457c-1.29087,1.13826 -9.37731,-2.54045 -11.32586,-4.78823c-1.74665,-2.01487 -1.73273,-4.957 -0.09214,-6.94851c0.18965,-0.23022 -2.00791,-3.76406 -1.775,-3.96596c0.43876,-0.38035 3.33042,2.6391 3.83774,2.42435c2.09166,-0.88547 4.60115,-0.37524 6.16935,1.43379z" fill="url(#color-124)" stroke="none" stroke-width="0" stroke-linecap="butt"/><path d="M231.79803,196.7305c0,0 1.28675,1.37088 1.64788,5.13318c0.71404,7.43894 0.42239,21.72215 -0.69649,30.90874c-1.44493,11.86365 -5.02625,33.5577 -5.02625,33.5577" fill="none" stroke="#724800" stroke-width="1.5" stroke-linecap="round"/><path d="M235.72317,287.33011c-5.10521,-5.10521 0.16727,-6.66727 5.5,-12c0.78986,-0.78986 2.84301,-2.70284 5.03805,-2.51196c2.19504,0.19088 3.63962,-2.28186 6.46195,3.51196c2.8494,5.8494 7.85065,5.14936 2.5,10.5c-2.39103,2.39103 -6.31991,2.66457 -9.28405,2.88634c-3.66904,0.27451 -7.39208,0.43752 -10.21595,-2.38634z" fill="url(#color-125)" stroke="#000000" stroke-width="1" stroke-linecap="butt"/><path d="M249.22552,287.99678c0,0 -1.47183,-9.43189 -1.85134,-13.17528c-0.26543,-2.61815 -0.20848,-7.14209 -0.20848,-7.14209c0,0 2.559,14.88692 3.93239,14.88692c0.52865,0 -1.49226,-14.07612 -0.80077,-16.24408c0.27983,-0.87732 0.97616,3.30009 1.3563,7.23766c0.42776,4.43068 0.55488,8.75702 1.15369,9.06813c0.57849,0.30055 1.72367,-3.9914 2.80126,-6.28311c1.73696,-3.694 3.44793,-6.23117 3.44793,-6.23117l-5.87298,17.58481l-2.08544,-0.16993z" fill="url(#color-126)" stroke="#000000" stroke-width="0.5" stroke-linecap="butt"/><path d="M248.98532,290.50195c-3.88197,-3.88196 -0.96598,-3.00502 0.53921,-5.14288c1.50519,-2.13786 3.77147,-3.49545 5.44056,-3.35031c1.66909,0.14514 3.48193,1.12464 5.16777,2.67047c1.68584,1.54582 3.44934,5.68953 -2.95583,6.19704c-2.78991,0.20873 -6.04447,1.77293 -8.19172,-0.37432z" fill="url(#color-127)" stroke="#000000" stroke-width="1" stroke-linecap="butt"/><path d="M230.75733,193.25528c0,-2.62336 1.79469,-2.80112 4.08334,-4.08334c1.18994,-0.66666 3.13763,-0.84309 3.91303,-0.29269c1.21247,0.86066 1.50364,2.77595 1.50364,4.37603c0,1.32003 -1.70938,3.3182 -2.91407,5.14344c-1.18945,1.80214 -1.86593,3.4399 -3.16926,3.4399c-1.38457,0 -1.01888,-2.26139 -1.62402,-3.99578c-0.54143,-1.55177 -1.79265,-3.34877 -1.79265,-4.58756z" fill="url(#color-128)" stroke="#724800" stroke-width="1.5" stroke-linecap="butt"/><path d="M234.00131,209.22932c0,0 0.25868,-5.05588 1.4959,-7.39127c1.44258,-2.72302 7.02172,-9.95248 7.02172,-9.95248" fill="none" stroke="#724800" stroke-width="1.5" stroke-linecap="round"/><path d="M243.73164,263.83011c0,0 -3.17934,-17.17263 -4.70204,-27.39543c-0.70096,-4.70595 0.13127,-2.42253 -0.32421,-6.16227c-1.68476,-13.83278 6.52625,-49.4423 6.52625,-49.4423" data-paper-data="{&quot;index&quot;:null}" fill="none" stroke="url(#color-129)" stroke-width="1.5" stroke-linecap="round"/><path d="M251.47213,185.12669c-2.96502,0.24099 -11.27956,-2.71994 -11.43394,-4.43946c-0.1539,-1.71415 7.59622,-6.05683 10.56124,-6.29782c2.65778,-0.21602 5.02146,1.53592 5.65634,4.03684c0.07339,0.2891 4.22255,0.60828 4.24752,0.91551c0.04704,0.57877 -4.09809,1.12352 -4.22511,1.65957c-0.52369,2.21016 -2.41979,3.9314 -4.80604,4.12535z" fill="url(#color-130)" stroke="none" stroke-width="0" stroke-linecap="butt"/><path d="M238.125,189c0,0 -16.28612,-13.89533 -18.66383,-21.60369" fill="none" stroke="url(#color-131)" stroke-width="1.5" stroke-linecap="round"/><path d="M213.12484,162.70467c2.89841,-0.66977 11.55526,1.05006 11.95816,2.72883c0.40163,1.67353 -6.63428,7.09748 -9.53269,7.76725c-2.59808,0.60038 -5.19149,-0.78907 -6.18345,-3.17101c-0.11468,-0.27535 -4.2661,0.01248 -4.3355,-0.28785c-0.13073,-0.56576 3.89104,-1.70774 3.93873,-2.25657c0.19657,-2.26284 1.8221,-4.24162 4.15475,-4.78065z" fill="url(#color-132)" stroke="none" stroke-width="0" stroke-linecap="butt"/><path d="M238.43802,174.58683c-1.75944,2.3987 -9.44186,6.74373 -10.84252,5.73442c-1.3963,-1.00616 0.39663,-9.70723 2.15607,-12.10593c1.57713,-2.15016 4.44902,-2.78934 6.75489,-1.6315c0.26656,0.13384 3.22475,-2.79298 3.4733,-2.61067c0.46822,0.34344 -1.83442,3.83295 -1.51246,4.27997c1.32747,1.84306 1.38673,4.40322 -0.02928,6.3337z" fill="url(#color-133)" stroke="none" stroke-width="0" stroke-linecap="butt"/><path d="M251.18851,162.51974c2.43399,1.7103 6.93437,9.30275 5.95376,10.72365c-0.97755,1.41647 -9.7133,-0.1991 -12.14729,-1.90939c-2.18178,-1.53307 -2.87926,-4.39137 -1.76854,-6.72031c0.1284,-0.26922 -2.858,-3.16729 -2.68078,-3.4195c0.33384,-0.47511 3.86947,1.75609 4.30985,1.4251c1.81569,-1.36468 4.3741,-1.47599 6.33299,-0.09954z" fill="url(#color-134)" stroke="none" stroke-width="0" stroke-linecap="butt"/><path d="M247.62243,149.45415c2.96762,0.20647 10.74399,4.38101 10.63872,6.10423c-0.10495,1.71784 -8.41877,4.84894 -11.38639,4.64247c-2.66012,-0.18507 -4.73428,-2.27174 -4.98686,-4.83958c-0.0292,-0.29684 -4.08354,-1.23474 -4.06214,-1.54224c0.0403,-0.57927 4.22025,-0.49612 4.42623,-1.00706c0.84927,-2.10662 2.98209,-3.52399 5.37044,-3.35782z" fill="url(#color-135)" stroke="none" stroke-width="0" stroke-linecap="butt"/><path d="M253.77136,146.58683c-1.75944,2.3987 -9.44186,6.74373 -10.84252,5.73442c-1.3963,-1.00616 0.39663,-9.70723 2.15607,-12.10593c1.57713,-2.15016 4.44902,-2.78934 6.75489,-1.6315c0.26656,0.13384 3.22475,-2.79298 3.4733,-2.61067c0.46822,0.34344 -1.83442,3.83295 -1.51246,4.27997c1.32747,1.84306 1.38673,4.40322 -0.02928,6.3337z" fill="url(#color-136)" stroke="none" stroke-width="0" stroke-linecap="butt"/><path d="M266.52184,134.51974c2.43399,1.7103 6.93437,9.30275 5.95376,10.72365c-0.97755,1.41647 -9.7133,-0.1991 -12.14729,-1.90939c-2.18178,-1.53307 -2.87926,-4.39137 -1.76854,-6.72031c0.1284,-0.26922 -2.858,-3.16729 -2.68078,-3.4195c0.33385,-0.47511 3.86947,1.75609 4.30985,1.4251c1.81568,-1.36468 4.3741,-1.47599 6.33299,-0.09954z" fill="url(#color-137)" stroke="none" stroke-width="0" stroke-linecap="butt"/><path d="M287.28909,122.12081c2.96762,0.20646 10.744,4.38101 10.63872,6.10423c-0.10495,1.71784 -8.41877,4.84894 -11.38639,4.64247c-2.66012,-0.18507 -4.73428,-2.27173 -4.98686,-4.83958c-0.0292,-0.29684 -4.08353,-1.23475 -4.06214,-1.54225c0.0403,-0.57927 4.22025,-0.49612 4.42623,-1.00706c0.84927,-2.10662 2.98208,-3.52399 5.37044,-3.35782z" fill="url(#color-138)" stroke="none" stroke-width="0" stroke-linecap="butt"/></g></g></svg>