<svg version="1.1" xmlns="http://www.w3.org/2000/svg" xmlns:xlink="http://www.w3.org/1999/xlink" width="190.19142" height="214.28627" viewBox="0,0,190.19142,214.28627"><defs><linearGradient x1="234.7159" y1="67.96845" x2="234.7159" y2="207.836" gradientUnits="userSpaceOnUse" id="color-1"><stop offset="0" stop-color="#4caf33"/><stop offset="1" stop-color="#309516"/></linearGradient><linearGradient x1="265.36323" y1="260.94417" x2="256.94982" y2="279.13025" gradientUnits="userSpaceOnUse" id="color-2"><stop offset="0" stop-color="#47de21"/><stop offset="1" stop-color="#287d13"/></linearGradient><linearGradient x1="255.41836" y1="112.16919" x2="255.41836" y2="287.98993" gradientUnits="userSpaceOnUse" id="color-3"><stop offset="0" stop-color="#c47c00"/><stop offset="1" stop-color="#643f00"/></linearGradient><linearGradient x1="240.47742" y1="196.33013" x2="240.47742" y2="263.83011" gradientUnits="userSpaceOnUse" id="color-4"><stop offset="0" stop-color="#aa6c00"/><stop offset="1" stop-color="#724800"/></linearGradient><linearGradient x1="233.25" y1="181.75" x2="233.25" y2="258.75" gradientUnits="userSpaceOnUse" id="color-5"><stop offset="0" stop-color="#c17b00"/><stop offset="1" stop-color="#6b4300"/></linearGradient><linearGradient x1="226.52976" y1="227.73214" x2="226.52976" y2="238.40774" gradientUnits="userSpaceOnUse" id="color-6"><stop offset="0" stop-color="#a86a00"/><stop offset="1" stop-color="#643f00"/></linearGradient><linearGradient x1="226.44805" y1="229.96428" x2="226.44805" y2="235.63095" gradientUnits="userSpaceOnUse" id="color-7"><stop offset="0" stop-color="#a8761f"/><stop offset="1" stop-color="#bc8e40"/></linearGradient><linearGradient x1="231.29258" y1="186.42857" x2="231.29258" y2="224.17857" gradientUnits="userSpaceOnUse" id="color-8"><stop offset="0" stop-color="#bb7700"/><stop offset="1" stop-color="#694301"/></linearGradient><linearGradient x1="270.88969" y1="192.23312" x2="270.88969" y2="182.63529" gradientUnits="userSpaceOnUse" id="color-9"><stop offset="0" stop-color="#52d930"/><stop offset="1" stop-color="#4ba634"/></linearGradient><linearGradient x1="255.22327" y1="169.05117" x2="264.7817" y2="169.91985" gradientUnits="userSpaceOnUse" id="color-10"><stop offset="0" stop-color="#52d930"/><stop offset="1" stop-color="#4ba634"/></linearGradient><linearGradient x1="291.26946" y1="170.15804" x2="282.88792" y2="174.83436" gradientUnits="userSpaceOnUse" id="color-11"><stop offset="0" stop-color="#52d930"/><stop offset="1" stop-color="#4ba634"/></linearGradient><linearGradient x1="282.70803" y1="185.47791" x2="278.80948" y2="176.70754" gradientUnits="userSpaceOnUse" id="color-12"><stop offset="0" stop-color="#52d930"/><stop offset="1" stop-color="#4ba634"/></linearGradient><linearGradient x1="269.85988" y1="164.86037" x2="272.65888" y2="174.04099" gradientUnits="userSpaceOnUse" id="color-13"><stop offset="0" stop-color="#52d930"/><stop offset="1" stop-color="#4ba634"/></linearGradient><linearGradient x1="286.58767" y1="188.04884" x2="277.1914" y2="190.00544" gradientUnits="userSpaceOnUse" id="color-14"><stop offset="0" stop-color="#52d930"/><stop offset="1" stop-color="#4ba634"/></linearGradient><linearGradient x1="253.4627" y1="187.46452" x2="260.11615" y2="180.54717" gradientUnits="userSpaceOnUse" id="color-15"><stop offset="0" stop-color="#52d930"/><stop offset="1" stop-color="#4ba634"/></linearGradient><linearGradient x1="264.53451" y1="176.32766" x2="270.82129" y2="183.57988" gradientUnits="userSpaceOnUse" id="color-16"><stop offset="0" stop-color="#52d930"/><stop offset="1" stop-color="#4ba634"/></linearGradient><linearGradient x1="308.17145" y1="147.33159" x2="298.68763" y2="145.8567" gradientUnits="userSpaceOnUse" id="color-17"><stop offset="0" stop-color="#52d930"/><stop offset="1" stop-color="#4ba634"/></linearGradient><linearGradient x1="282.85741" y1="159.24959" x2="285.1846" y2="149.93817" gradientUnits="userSpaceOnUse" id="color-18"><stop offset="0" stop-color="#52d930"/><stop offset="1" stop-color="#4ba634"/></linearGradient><linearGradient x1="289.4903" y1="123.80163" x2="292.8231" y2="132.80222" gradientUnits="userSpaceOnUse" id="color-19"><stop offset="0" stop-color="#52d930"/><stop offset="1" stop-color="#4ba634"/></linearGradient><linearGradient x1="303.31258" y1="134.61556" x2="294.04729" y2="137.12006" gradientUnits="userSpaceOnUse" id="color-20"><stop offset="0" stop-color="#52d930"/><stop offset="1" stop-color="#4ba634"/></linearGradient><linearGradient x1="280.96558" y1="144.14284" x2="290.46727" y2="142.78785" gradientUnits="userSpaceOnUse" id="color-21"><stop offset="0" stop-color="#52d930"/><stop offset="1" stop-color="#4ba634"/></linearGradient><linearGradient x1="306.44916" y1="131.17706" x2="306.93862" y2="140.76239" gradientUnits="userSpaceOnUse" id="color-22"><stop offset="0" stop-color="#52d930"/><stop offset="1" stop-color="#4ba634"/></linearGradient><linearGradient x1="300.78151" y1="163.8188" x2="294.96873" y2="156.1814" gradientUnits="userSpaceOnUse" id="color-23"><stop offset="0" stop-color="#52d930"/><stop offset="1" stop-color="#4ba634"/></linearGradient><linearGradient x1="291.47832" y1="151.16711" x2="299.61048" y2="146.06944" gradientUnits="userSpaceOnUse" id="color-24"><stop offset="0" stop-color="#52d930"/><stop offset="1" stop-color="#4ba634"/></linearGradient><linearGradient x1="188.45875" y1="97.3049" x2="188.10463" y2="106.89618" gradientUnits="userSpaceOnUse" id="color-25"><stop offset="0" stop-color="#52d930"/><stop offset="1" stop-color="#4ba634"/></linearGradient><linearGradient x1="203.25917" y1="121.04908" x2="193.7393" y2="119.82833" gradientUnits="userSpaceOnUse" id="color-26"><stop offset="0" stop-color="#52d930"/><stop offset="1" stop-color="#4ba634"/></linearGradient><linearGradient x1="167.27838" y1="118.61301" x2="175.82674" y2="114.24911" gradientUnits="userSpaceOnUse" id="color-27"><stop offset="0" stop-color="#52d930"/><stop offset="1" stop-color="#4ba634"/></linearGradient><linearGradient x1="176.39922" y1="103.61945" x2="179.97151" y2="112.5277" gradientUnits="userSpaceOnUse" id="color-28"><stop offset="0" stop-color="#52d930"/><stop offset="1" stop-color="#4ba634"/></linearGradient><linearGradient x1="188.47792" y1="124.697" x2="186.01954" y2="115.41935" gradientUnits="userSpaceOnUse" id="color-29"><stop offset="0" stop-color="#52d930"/><stop offset="1" stop-color="#4ba634"/></linearGradient><linearGradient x1="172.61707" y1="100.90713" x2="182.07914" y2="99.29855" gradientUnits="userSpaceOnUse" id="color-30"><stop offset="0" stop-color="#52d930"/><stop offset="1" stop-color="#4ba634"/></linearGradient><linearGradient x1="205.69793" y1="102.71323" x2="198.79379" y2="109.38039" gradientUnits="userSpaceOnUse" id="color-31"><stop offset="0" stop-color="#52d930"/><stop offset="1" stop-color="#4ba634"/></linearGradient><linearGradient x1="194.22275" y1="113.434" x2="188.20784" y2="105.95477" gradientUnits="userSpaceOnUse" id="color-32"><stop offset="0" stop-color="#52d930"/><stop offset="1" stop-color="#4ba634"/></linearGradient><linearGradient x1="149.54568" y1="140.80029" x2="158.96862" y2="142.62409" gradientUnits="userSpaceOnUse" id="color-33"><stop offset="0" stop-color="#52d930"/><stop offset="1" stop-color="#4ba634"/></linearGradient><linearGradient x1="175.28221" y1="129.8244" x2="172.61305" y2="139.04361" gradientUnits="userSpaceOnUse" id="color-34"><stop offset="0" stop-color="#52d930"/><stop offset="1" stop-color="#4ba634"/></linearGradient><linearGradient x1="167.34595" y1="165.00348" x2="164.3475" y2="155.88606" gradientUnits="userSpaceOnUse" id="color-35"><stop offset="0" stop-color="#52d930"/><stop offset="1" stop-color="#4ba634"/></linearGradient><linearGradient x1="153.93207" y1="153.68694" x2="163.28345" y2="151.52599" gradientUnits="userSpaceOnUse" id="color-36"><stop offset="0" stop-color="#52d930"/><stop offset="1" stop-color="#4ba634"/></linearGradient><linearGradient x1="176.61537" y1="144.99066" x2="167.07015" y2="145.99416" gradientUnits="userSpaceOnUse" id="color-37"><stop offset="0" stop-color="#52d930"/><stop offset="1" stop-color="#4ba634"/></linearGradient><linearGradient x1="150.67076" y1="157.00737" x2="150.5353" y2="147.41049" gradientUnits="userSpaceOnUse" id="color-38"><stop offset="0" stop-color="#52d930"/><stop offset="1" stop-color="#4ba634"/></linearGradient><linearGradient x1="157.5389" y1="124.59697" x2="163.06592" y2="132.44364" gradientUnits="userSpaceOnUse" id="color-39"><stop offset="0" stop-color="#52d930"/><stop offset="1" stop-color="#4ba634"/></linearGradient><linearGradient x1="166.36896" y1="137.5833" x2="158.05426" y2="142.37745" gradientUnits="userSpaceOnUse" id="color-40"><stop offset="0" stop-color="#52d930"/><stop offset="1" stop-color="#4ba634"/></linearGradient><linearGradient x1="291.56169" y1="91.43886" x2="291.20757" y2="101.03015" gradientUnits="userSpaceOnUse" id="color-41"><stop offset="0" stop-color="#52d930"/><stop offset="1" stop-color="#4ba634"/></linearGradient><linearGradient x1="306.36212" y1="115.18306" x2="296.84225" y2="113.96231" gradientUnits="userSpaceOnUse" id="color-42"><stop offset="0" stop-color="#52d930"/><stop offset="1" stop-color="#4ba634"/></linearGradient><linearGradient x1="270.38132" y1="112.74698" x2="278.92969" y2="108.38309" gradientUnits="userSpaceOnUse" id="color-43"><stop offset="0" stop-color="#52d930"/><stop offset="1" stop-color="#4ba634"/></linearGradient><linearGradient x1="279.50216" y1="97.75342" x2="283.07446" y2="106.66168" gradientUnits="userSpaceOnUse" id="color-44"><stop offset="0" stop-color="#52d930"/><stop offset="1" stop-color="#4ba634"/></linearGradient><linearGradient x1="291.58086" y1="118.83098" x2="289.12249" y2="109.55334" gradientUnits="userSpaceOnUse" id="color-45"><stop offset="0" stop-color="#52d930"/><stop offset="1" stop-color="#4ba634"/></linearGradient><linearGradient x1="275.72001" y1="95.0411" x2="285.18208" y2="93.43251" gradientUnits="userSpaceOnUse" id="color-46"><stop offset="0" stop-color="#52d930"/><stop offset="1" stop-color="#4ba634"/></linearGradient><linearGradient x1="308.80087" y1="96.84721" x2="301.89673" y2="103.51437" gradientUnits="userSpaceOnUse" id="color-47"><stop offset="0" stop-color="#52d930"/><stop offset="1" stop-color="#4ba634"/></linearGradient><linearGradient x1="297.32569" y1="107.56798" x2="291.31077" y2="100.08874" gradientUnits="userSpaceOnUse" id="color-48"><stop offset="0" stop-color="#52d930"/><stop offset="1" stop-color="#4ba634"/></linearGradient><linearGradient x1="278.38516" y1="124.40385" x2="275.716" y2="133.62304" gradientUnits="userSpaceOnUse" id="color-49"><stop offset="0" stop-color="#52d930"/><stop offset="1" stop-color="#4ba634"/></linearGradient><linearGradient x1="270.44889" y1="159.58293" x2="267.45044" y2="150.4655" gradientUnits="userSpaceOnUse" id="color-50"><stop offset="0" stop-color="#52d930"/><stop offset="1" stop-color="#4ba634"/></linearGradient><linearGradient x1="257.03501" y1="148.26638" x2="266.3864" y2="146.10544" gradientUnits="userSpaceOnUse" id="color-51"><stop offset="0" stop-color="#52d930"/><stop offset="1" stop-color="#4ba634"/></linearGradient><linearGradient x1="279.71832" y1="139.57011" x2="270.1731" y2="140.5736" gradientUnits="userSpaceOnUse" id="color-52"><stop offset="0" stop-color="#52d930"/><stop offset="1" stop-color="#4ba634"/></linearGradient><linearGradient x1="253.7737" y1="151.58681" x2="253.63825" y2="141.98994" gradientUnits="userSpaceOnUse" id="color-53"><stop offset="0" stop-color="#52d930"/><stop offset="1" stop-color="#4ba634"/></linearGradient><linearGradient x1="260.64185" y1="119.17641" x2="266.16887" y2="127.02308" gradientUnits="userSpaceOnUse" id="color-54"><stop offset="0" stop-color="#52d930"/><stop offset="1" stop-color="#4ba634"/></linearGradient><linearGradient x1="269.47192" y1="133.49914" x2="261.1572" y2="138.2933" gradientUnits="userSpaceOnUse" id="color-55"><stop offset="0" stop-color="#52d930"/><stop offset="1" stop-color="#4ba634"/></linearGradient><linearGradient x1="289.62265" y1="126.9158" x2="299.0456" y2="128.7396" gradientUnits="userSpaceOnUse" id="color-56"><stop offset="0" stop-color="#52d930"/><stop offset="1" stop-color="#4ba634"/></linearGradient><linearGradient x1="292.19473" y1="136.87701" x2="289.52557" y2="146.09621" gradientUnits="userSpaceOnUse" id="color-57"><stop offset="0" stop-color="#52d930"/><stop offset="1" stop-color="#4ba634"/></linearGradient><linearGradient x1="282.03112" y1="143.10053" x2="279.03266" y2="133.98311" gradientUnits="userSpaceOnUse" id="color-58"><stop offset="0" stop-color="#52d930"/><stop offset="1" stop-color="#4ba634"/></linearGradient><linearGradient x1="285.06397" y1="116.40566" x2="275.51874" y2="117.40914" gradientUnits="userSpaceOnUse" id="color-59"><stop offset="0" stop-color="#52d930"/><stop offset="1" stop-color="#4ba634"/></linearGradient><linearGradient x1="253.32823" y1="126.64047" x2="253.19278" y2="117.04361" gradientUnits="userSpaceOnUse" id="color-60"><stop offset="0" stop-color="#52d930"/><stop offset="1" stop-color="#4ba634"/></linearGradient><linearGradient x1="242.82305" y1="108.03967" x2="248.35006" y2="115.88632" gradientUnits="userSpaceOnUse" id="color-61"><stop offset="0" stop-color="#52d930"/><stop offset="1" stop-color="#4ba634"/></linearGradient><linearGradient x1="267.69004" y1="104.09811" x2="259.37532" y2="108.89226" gradientUnits="userSpaceOnUse" id="color-62"><stop offset="0" stop-color="#52d930"/><stop offset="1" stop-color="#4ba634"/></linearGradient><linearGradient x1="241.63924" y1="163.74944" x2="232.21433" y2="165.56307" gradientUnits="userSpaceOnUse" id="color-63"><stop offset="0" stop-color="#52d930"/><stop offset="1" stop-color="#4ba634"/></linearGradient><linearGradient x1="230.83529" y1="176.01411" x2="229.88213" y2="166.46374" gradientUnits="userSpaceOnUse" id="color-64"><stop offset="0" stop-color="#52d930"/><stop offset="1" stop-color="#4ba634"/></linearGradient><linearGradient x1="221.06404" y1="181.12494" x2="224.76092" y2="189.9822" gradientUnits="userSpaceOnUse" id="color-65"><stop offset="0" stop-color="#52d930"/><stop offset="1" stop-color="#4ba634"/></linearGradient><linearGradient x1="240.22122" y1="163.99566" x2="246.15483" y2="156.45174" gradientUnits="userSpaceOnUse" id="color-66"><stop offset="0" stop-color="#52d930"/><stop offset="1" stop-color="#4ba634"/></linearGradient><linearGradient x1="198.00184" y1="145.12398" x2="198.3456" y2="154.71564" gradientUnits="userSpaceOnUse" id="color-67"><stop offset="0" stop-color="#52d930"/><stop offset="1" stop-color="#4ba634"/></linearGradient><linearGradient x1="214.4885" y1="167.72993" x2="204.90508" y2="167.20417" gradientUnits="userSpaceOnUse" id="color-68"><stop offset="0" stop-color="#52d930"/><stop offset="1" stop-color="#4ba634"/></linearGradient><linearGradient x1="178.42579" y1="167.91483" x2="186.63446" y2="162.94131" gradientUnits="userSpaceOnUse" id="color-69"><stop offset="0" stop-color="#52d930"/><stop offset="1" stop-color="#4ba634"/></linearGradient><linearGradient x1="186.43303" y1="152.29815" x2="190.64319" y2="160.92326" gradientUnits="userSpaceOnUse" id="color-70"><stop offset="0" stop-color="#52d930"/><stop offset="1" stop-color="#4ba634"/></linearGradient><linearGradient x1="200.01138" y1="172.44228" x2="196.88536" y2="163.3678" gradientUnits="userSpaceOnUse" id="color-71"><stop offset="0" stop-color="#52d930"/><stop offset="1" stop-color="#4ba634"/></linearGradient><linearGradient x1="182.46379" y1="149.86782" x2="191.78395" y2="147.57593" gradientUnits="userSpaceOnUse" id="color-72"><stop offset="0" stop-color="#52d930"/><stop offset="1" stop-color="#4ba634"/></linearGradient><linearGradient x1="215.58844" y1="149.26534" x2="209.18701" y2="156.41657" gradientUnits="userSpaceOnUse" id="color-73"><stop offset="0" stop-color="#52d930"/><stop offset="1" stop-color="#4ba634"/></linearGradient><linearGradient x1="204.92261" y1="160.79162" x2="198.38012" y2="153.76922" gradientUnits="userSpaceOnUse" id="color-74"><stop offset="0" stop-color="#52d930"/><stop offset="1" stop-color="#4ba634"/></linearGradient><linearGradient x1="210.32206" y1="188.24243" x2="216.56965" y2="180.95643" gradientUnits="userSpaceOnUse" id="color-75"><stop offset="0" stop-color="#52d930"/><stop offset="1" stop-color="#4ba634"/></linearGradient><linearGradient x1="205.44338" y1="183.99247" x2="195.85997" y2="183.46671" gradientUnits="userSpaceOnUse" id="color-76"><stop offset="0" stop-color="#52d930"/><stop offset="1" stop-color="#4ba634"/></linearGradient><linearGradient x1="197.09206" y1="175.49031" x2="205.30073" y2="170.51678" gradientUnits="userSpaceOnUse" id="color-77"><stop offset="0" stop-color="#52d930"/><stop offset="1" stop-color="#4ba634"/></linearGradient><linearGradient x1="234.21057" y1="139.43319" x2="238.42073" y2="148.0583" gradientUnits="userSpaceOnUse" id="color-78"><stop offset="0" stop-color="#52d930"/><stop offset="1" stop-color="#4ba634"/></linearGradient><linearGradient x1="223.78464" y1="172.43729" x2="220.6586" y2="163.3628" gradientUnits="userSpaceOnUse" id="color-79"><stop offset="0" stop-color="#52d930"/><stop offset="1" stop-color="#4ba634"/></linearGradient><linearGradient x1="206.66983" y1="143.81926" x2="215.99" y2="141.52737" gradientUnits="userSpaceOnUse" id="color-80"><stop offset="0" stop-color="#52d930"/><stop offset="1" stop-color="#4ba634"/></linearGradient><linearGradient x1="216.0445" y1="130.74927" x2="225.04632" y2="134.07876" gradientUnits="userSpaceOnUse" id="color-81"><stop offset="0" stop-color="#52d930"/><stop offset="1" stop-color="#4ba634"/></linearGradient><linearGradient x1="231.86617" y1="152.73911" x2="225.32367" y2="145.71672" gradientUnits="userSpaceOnUse" id="color-82"><stop offset="0" stop-color="#52d930"/><stop offset="1" stop-color="#4ba634"/></linearGradient><linearGradient x1="170.01323" y1="186.2201" x2="173.9952" y2="177.48729" gradientUnits="userSpaceOnUse" id="color-83"><stop offset="0" stop-color="#52d930"/><stop offset="1" stop-color="#4ba634"/></linearGradient><linearGradient x1="165.37653" y1="158.62771" x2="173.71311" y2="163.38372" gradientUnits="userSpaceOnUse" id="color-84"><stop offset="0" stop-color="#52d930"/><stop offset="1" stop-color="#4ba634"/></linearGradient><linearGradient x1="197.71483" y1="174.58974" x2="188.14857" y2="175.36726" gradientUnits="userSpaceOnUse" id="color-85"><stop offset="0" stop-color="#52d930"/><stop offset="1" stop-color="#4ba634"/></linearGradient><linearGradient x1="183.56907" y1="184.97694" x2="183.66055" y2="175.37955" gradientUnits="userSpaceOnUse" id="color-86"><stop offset="0" stop-color="#52d930"/><stop offset="1" stop-color="#4ba634"/></linearGradient><linearGradient x1="180.4327" y1="160.88707" x2="179.17056" y2="170.40155" gradientUnits="userSpaceOnUse" id="color-87"><stop offset="0" stop-color="#52d930"/><stop offset="1" stop-color="#4ba634"/></linearGradient><linearGradient x1="195.76832" y1="193.01705" x2="191.16044" y2="184.59769" gradientUnits="userSpaceOnUse" id="color-88"><stop offset="0" stop-color="#52d930"/><stop offset="1" stop-color="#4ba634"/></linearGradient><linearGradient x1="156.13526" y1="174.65113" x2="165.05895" y2="171.1176" gradientUnits="userSpaceOnUse" id="color-89"><stop offset="0" stop-color="#52d930"/><stop offset="1" stop-color="#4ba634"/></linearGradient><linearGradient x1="170.82971" y1="169.11147" x2="173.54108" y2="178.31835" gradientUnits="userSpaceOnUse" id="color-90"><stop offset="0" stop-color="#52d930"/><stop offset="1" stop-color="#4ba634"/></linearGradient><linearGradient x1="206.54179" y1="106.9264" x2="210.52376" y2="98.19359" gradientUnits="userSpaceOnUse" id="color-91"><stop offset="0" stop-color="#52d930"/><stop offset="1" stop-color="#4ba634"/></linearGradient><linearGradient x1="201.90509" y1="79.33401" x2="210.24167" y2="84.09002" gradientUnits="userSpaceOnUse" id="color-92"><stop offset="0" stop-color="#52d930"/><stop offset="1" stop-color="#4ba634"/></linearGradient><linearGradient x1="220.09762" y1="105.68324" x2="220.1891" y2="96.08585" gradientUnits="userSpaceOnUse" id="color-93"><stop offset="0" stop-color="#52d930"/><stop offset="1" stop-color="#4ba634"/></linearGradient><linearGradient x1="216.96125" y1="81.59337" x2="215.69912" y2="91.10785" gradientUnits="userSpaceOnUse" id="color-94"><stop offset="0" stop-color="#52d930"/><stop offset="1" stop-color="#4ba634"/></linearGradient><linearGradient x1="222.56098" y1="109.63205" x2="213.19979" y2="107.51397" gradientUnits="userSpaceOnUse" id="color-95"><stop offset="0" stop-color="#52d930"/><stop offset="1" stop-color="#4ba634"/></linearGradient><linearGradient x1="192.66382" y1="95.35743" x2="201.58751" y2="91.8239" gradientUnits="userSpaceOnUse" id="color-96"><stop offset="0" stop-color="#52d930"/><stop offset="1" stop-color="#4ba634"/></linearGradient><linearGradient x1="207.35827" y1="89.81777" x2="210.06963" y2="99.02465" gradientUnits="userSpaceOnUse" id="color-97"><stop offset="0" stop-color="#52d930"/><stop offset="1" stop-color="#4ba634"/></linearGradient><linearGradient x1="268.6228" y1="83.39369" x2="262.25471" y2="90.5746" gradientUnits="userSpaceOnUse" id="color-98"><stop offset="0" stop-color="#52d930"/><stop offset="1" stop-color="#4ba634"/></linearGradient><linearGradient x1="230.75226" y1="136.23868" x2="240.10366" y2="134.07775" gradientUnits="userSpaceOnUse" id="color-99"><stop offset="0" stop-color="#52d930"/><stop offset="1" stop-color="#4ba634"/></linearGradient><linearGradient x1="244.12194" y1="120.81319" x2="237.75384" y2="127.9941" gradientUnits="userSpaceOnUse" id="color-100"><stop offset="0" stop-color="#52d930"/><stop offset="1" stop-color="#4ba634"/></linearGradient><linearGradient x1="245.07563" y1="135.8252" x2="254.49858" y2="137.649" gradientUnits="userSpaceOnUse" id="color-101"><stop offset="0" stop-color="#52d930"/><stop offset="1" stop-color="#4ba634"/></linearGradient><linearGradient x1="153.23651" y1="108.69264" x2="160.83703" y2="114.55353" gradientUnits="userSpaceOnUse" id="color-102"><stop offset="0" stop-color="#52d930"/><stop offset="1" stop-color="#4ba634"/></linearGradient><linearGradient x1="181.161" y1="110.44238" x2="174.63626" y2="117.48127" gradientUnits="userSpaceOnUse" id="color-103"><stop offset="0" stop-color="#52d930"/><stop offset="1" stop-color="#4ba634"/></linearGradient><linearGradient x1="158.27294" y1="138.31152" x2="159.68791" y2="128.81857" gradientUnits="userSpaceOnUse" id="color-104"><stop offset="0" stop-color="#52d930"/><stop offset="1" stop-color="#4ba634"/></linearGradient><linearGradient x1="151.36911" y1="122.17665" x2="160.69503" y2="124.445" gradientUnits="userSpaceOnUse" id="color-105"><stop offset="0" stop-color="#52d930"/><stop offset="1" stop-color="#4ba634"/></linearGradient><linearGradient x1="175.54189" y1="124.59224" x2="166.56253" y2="121.20264" gradientUnits="userSpaceOnUse" id="color-106"><stop offset="0" stop-color="#52d930"/><stop offset="1" stop-color="#4ba634"/></linearGradient><linearGradient x1="146.96409" y1="123.67902" x2="151.15246" y2="115.0433" gradientUnits="userSpaceOnUse" id="color-107"><stop offset="0" stop-color="#52d930"/><stop offset="1" stop-color="#4ba634"/></linearGradient><linearGradient x1="167.65453" y1="97.80411" x2="169.06947" y2="107.29705" gradientUnits="userSpaceOnUse" id="color-108"><stop offset="0" stop-color="#52d930"/><stop offset="1" stop-color="#4ba634"/></linearGradient><linearGradient x1="169.71285" y1="113.37259" x2="160.13078" y2="113.92255" gradientUnits="userSpaceOnUse" id="color-109"><stop offset="0" stop-color="#52d930"/><stop offset="1" stop-color="#4ba634"/></linearGradient><linearGradient x1="326.4051" y1="135.4217" x2="318.80457" y2="141.28259" gradientUnits="userSpaceOnUse" id="color-110"><stop offset="0" stop-color="#52d930"/><stop offset="1" stop-color="#4ba634"/></linearGradient><linearGradient x1="311.68379" y1="161.67146" x2="305.15903" y2="168.71034" gradientUnits="userSpaceOnUse" id="color-111"><stop offset="0" stop-color="#52d930"/><stop offset="1" stop-color="#4ba634"/></linearGradient><linearGradient x1="288.79571" y1="189.54059" x2="290.21067" y2="180.04765" gradientUnits="userSpaceOnUse" id="color-112"><stop offset="0" stop-color="#52d930"/><stop offset="1" stop-color="#4ba634"/></linearGradient><linearGradient x1="321.76667" y1="149.90572" x2="312.44075" y2="152.17408" gradientUnits="userSpaceOnUse" id="color-113"><stop offset="0" stop-color="#52d930"/><stop offset="1" stop-color="#4ba634"/></linearGradient><linearGradient x1="306.06467" y1="175.82132" x2="297.0853" y2="172.43172" gradientUnits="userSpaceOnUse" id="color-114"><stop offset="0" stop-color="#52d930"/><stop offset="1" stop-color="#4ba634"/></linearGradient><linearGradient x1="277.48687" y1="174.9081" x2="281.67524" y2="166.27237" gradientUnits="userSpaceOnUse" id="color-115"><stop offset="0" stop-color="#52d930"/><stop offset="1" stop-color="#4ba634"/></linearGradient><linearGradient x1="298.1773" y1="149.03317" x2="299.59225" y2="158.52613" gradientUnits="userSpaceOnUse" id="color-116"><stop offset="0" stop-color="#52d930"/><stop offset="1" stop-color="#4ba634"/></linearGradient><linearGradient x1="325.23561" y1="126.10166" x2="315.65356" y2="126.65162" gradientUnits="userSpaceOnUse" id="color-117"><stop offset="0" stop-color="#52d930"/><stop offset="1" stop-color="#4ba634"/></linearGradient><linearGradient x1="178.14388" y1="205.08799" x2="178.14388" y2="195.49017" gradientUnits="userSpaceOnUse" id="color-118"><stop offset="0" stop-color="#52d930"/><stop offset="1" stop-color="#4ba634"/></linearGradient><linearGradient x1="244.97746" y1="178.40605" x2="254.53588" y2="179.27472" gradientUnits="userSpaceOnUse" id="color-119"><stop offset="0" stop-color="#52d930"/><stop offset="1" stop-color="#4ba634"/></linearGradient><linearGradient x1="281.02364" y1="179.51291" x2="272.6421" y2="184.18924" gradientUnits="userSpaceOnUse" id="color-120"><stop offset="0" stop-color="#52d930"/><stop offset="1" stop-color="#4ba634"/></linearGradient><linearGradient x1="272.46221" y1="194.83279" x2="268.56367" y2="186.06241" gradientUnits="userSpaceOnUse" id="color-121"><stop offset="0" stop-color="#52d930"/><stop offset="1" stop-color="#4ba634"/></linearGradient><linearGradient x1="259.61407" y1="174.21525" x2="262.41306" y2="183.39586" gradientUnits="userSpaceOnUse" id="color-122"><stop offset="0" stop-color="#52d930"/><stop offset="1" stop-color="#4ba634"/></linearGradient><linearGradient x1="261.31564" y1="160.43926" x2="251.77648" y2="159.37969" gradientUnits="userSpaceOnUse" id="color-123"><stop offset="0" stop-color="#52d930"/><stop offset="1" stop-color="#4ba634"/></linearGradient><linearGradient x1="204.21689" y1="203.3194" x2="210.87033" y2="196.40204" gradientUnits="userSpaceOnUse" id="color-124"><stop offset="0" stop-color="#52d930"/><stop offset="1" stop-color="#4ba634"/></linearGradient><linearGradient x1="254.28869" y1="185.68253" x2="260.57547" y2="192.93475" gradientUnits="userSpaceOnUse" id="color-125"><stop offset="0" stop-color="#52d930"/><stop offset="1" stop-color="#4ba634"/></linearGradient><linearGradient x1="232.01604" y1="86.8321" x2="222.44978" y2="87.60963" gradientUnits="userSpaceOnUse" id="color-126"><stop offset="0" stop-color="#52d930"/><stop offset="1" stop-color="#4ba634"/></linearGradient><linearGradient x1="255.25313" y1="98.81919" x2="264.60452" y2="96.65824" gradientUnits="userSpaceOnUse" id="color-127"><stop offset="0" stop-color="#52d930"/><stop offset="1" stop-color="#4ba634"/></linearGradient><linearGradient x1="245.16464" y1="90.79688" x2="239.488" y2="98.536" gradientUnits="userSpaceOnUse" id="color-128"><stop offset="0" stop-color="#52d930"/><stop offset="1" stop-color="#4ba634"/></linearGradient><linearGradient x1="225.92939" y1="95.89366" x2="233.78237" y2="101.41172" gradientUnits="userSpaceOnUse" id="color-129"><stop offset="0" stop-color="#52d930"/><stop offset="1" stop-color="#4ba634"/></linearGradient><linearGradient x1="225.81973" y1="109.09943" x2="235.39441" y2="109.76557" gradientUnits="userSpaceOnUse" id="color-130"><stop offset="0" stop-color="#52d930"/><stop offset="1" stop-color="#4ba634"/></linearGradient><linearGradient x1="231.50355" y1="115.74321" x2="225.8269" y2="123.48233" gradientUnits="userSpaceOnUse" id="color-131"><stop offset="0" stop-color="#52d930"/><stop offset="1" stop-color="#4ba634"/></linearGradient><linearGradient x1="212.2683" y1="120.84" x2="220.12127" y2="126.35805" gradientUnits="userSpaceOnUse" id="color-132"><stop offset="0" stop-color="#52d930"/><stop offset="1" stop-color="#4ba634"/></linearGradient><linearGradient x1="190.47909" y1="133.4518" x2="200.05376" y2="134.11793" gradientUnits="userSpaceOnUse" id="color-133"><stop offset="0" stop-color="#52d930"/><stop offset="1" stop-color="#4ba634"/></linearGradient><linearGradient x1="214.07128" y1="273.18075" x2="219.4036" y2="289.43692" gradientUnits="userSpaceOnUse" id="color-134"><stop offset="0" stop-color="#47de21"/><stop offset="1" stop-color="#287d13"/></linearGradient><linearGradient x1="218.49595" y1="285.2" x2="218.49595" y2="290" gradientUnits="userSpaceOnUse" id="color-135"><stop offset="0" stop-color="#643f00"/><stop offset="1" stop-color="#684201"/></linearGradient><linearGradient x1="241.39595" y1="277.6" x2="241.39595" y2="286.2" gradientUnits="userSpaceOnUse" id="color-136"><stop offset="0" stop-color="#9e9e9e"/><stop offset="1" stop-color="#676767"/></linearGradient></defs><g transform="translate(-140.36605,-75.20386)"><g data-paper-data="{&quot;isPaintingLayer&quot;:true}" fill-rule="nonzero" stroke-linejoin="miter" stroke-miterlimit="10" stroke-dasharray="" stroke-dashoffset="0" style="mix-blend-mode: normal"><path d="M324.56575,139.26243c0,17.69561 -4.48434,28.93211 -18.61113,41.62432c-18.31187,16.4523 -42.10864,15.94925 -73.23872,15.94925c-28.31162,0 -51.37867,9.31775 -69.54965,-4.63039c-17.22256,-13.22013 -22.3002,-20.17081 -22.3002,-39.94318c0,-25.15703 0.12656,-45.36806 26.26658,-58.63574c16.08126,-8.16223 37.57041,-17.92282 58.57426,-17.92282c24.73317,0 48.18425,5.10126 67.62435,12.74438c23.90392,9.39812 31.23451,28.40506 31.23451,50.81418z" fill="url(#color-1)" stroke="#000000" stroke-width="1" stroke-linecap="butt"/><path d="M254.09584,279.21687c0,0 -0.03311,-7.8077 1.25446,-11.5391c0.90053,-2.60976 0.05191,-6.6962 0.67852,-4.92882c0.62662,1.76737 -0.30232,9.57092 0.73011,10.60079c0.38956,0.3886 2.5356,-9.04991 2.67685,-8.12852c0.3768,2.45806 -1.7171,9.39451 -1.16494,9.64996c0.50335,0.23286 -0.10567,-0.76898 1.50768,-2.52859c0.65289,-0.71207 3.3909,-6.57132 2.01841,-2.65475c-1.54438,4.40705 -2.35896,5.43499 -1.92584,5.99498c0.41841,0.54099 1.77538,-5.83346 3.81087,-7.54083c3.281,-2.7521 -0.41598,1.74091 -0.41598,1.74091l-5.27018,10.79349l-1.91078,-1.0804z" fill="url(#color-2)" stroke="#000000" stroke-width="0.5" stroke-linecap="butt"/><path d="M214.48806,281.54163c0,0 2.23043,-2.60278 6.48326,-12.5402c2.45027,-5.72544 4.86809,-15.32449 5.2441,-22.51456c0.15918,-3.04378 -1.5967,-4.67898 -2.75533,-6.62936c-1.37916,-2.32159 -1.52335,-7.95078 -1.11084,-12.00375c0.3523,-3.46138 4.71269,-6.06349 6.7703,-9.8627c2.19556,-4.05393 2.09258,-9.28608 2.36011,-12.2883c2.07918,-23.33202 -15.8742,-29.09817 -15.8742,-41.80819c0,-11.02083 -30.83117,-5.10363 -34.57151,-12.51552c-1.7359,-3.43988 22.32706,3.48029 29.27655,-4.33967c4.20292,-4.72936 -20.64786,-15.18027 -20.28934,-18.07774c1.58812,-12.83477 5.43212,-1.05696 12.73298,3.30548c1.74827,1.04464 4.69372,-1.15504 9.7189,6.16269c3.43884,5.00768 8.94498,19.0479 9.8895,20.52165c3.08371,4.81152 10.04794,19.01035 14.71233,5.84033c1.28635,-3.63205 -18.02708,-33.41875 -15.1185,-37.99004c2.63005,-4.13355 8.55721,23.03091 16.57663,23.14301c6.29423,0.08799 1.46694,-13.23784 5.84007,-22.70941c4.37313,-9.47157 8.49224,-5.8187 5.16421,1.12092c-3.09971,6.46353 -5.30399,26.10713 -2.29504,29.40075c0.77018,0.84304 9.20375,0.01418 16.45326,-11.29113c4.59449,-7.16491 13.1887,-10.85591 12.28835,-4.05161c-0.22525,1.70227 -5.25636,6.86918 -6.1783,9.52643c-2.75292,7.93456 -15.82982,10.18273 -18.07267,16.44669c-2.24284,6.26396 -6.99942,35.51372 -8.95507,59.03817c-0.51415,6.18462 -0.94892,11.76657 -1.06626,16.78669c-0.26283,11.24434 1.06687,19.66994 6.66432,25.73544c6.36158,6.89353 21.93451,10.9937 21.93451,10.9937c0,0 -5.85353,2.61399 -10.19307,3.0411c-2.45312,0.24144 -4.81288,0.09642 -7.32768,-0.0389c-3.26276,-0.17556 -6.78649,-0.33477 -11.11367,0.38763c-2.23893,0.37378 -6.404,-4.72362 -8.4098,-4.14469c-1.24156,0.35834 -5.46597,0.69413 -7.49728,3.60484c-3.87147,5.54751 -8.58565,5.1834 -9.95005,5.19808c-6.03872,0.06493 -1.33079,-7.44782 -1.33079,-7.44782z" fill="url(#color-3)" stroke="#000000" stroke-width="1" stroke-linecap="butt"/><path d="M241.73165,262.16345c0,0 -3.56374,-19.4008 -3.02625,-31.89104c0.53749,-12.49024 9.85958,-61.4423 9.85958,-61.4423" data-paper-data="{&quot;index&quot;:null}" fill="none" stroke="url(#color-4)" stroke-width="1.5" stroke-linecap="round"/><path d="M227.62501,168.75c0,0 8.02613,19.86044 9.18241,31.99427c1.15628,12.13383 -2.16833,25.40965 -3.17273,31.07027c-1.0044,5.66062 -3.10992,5.71836 -5.56029,14.42043c-2.45038,8.70207 -4.6994,22.01503 -4.6994,22.01503" fill="none" stroke="url(#color-5)" stroke-width="1.5" stroke-linecap="round"/><path d="M229.04167,233.38393c0,2.94798 -1.12462,5.65179 -2.5119,5.65179c-1.38729,0 -2.5119,-3.01779 -2.5119,-5.96577c0,-2.94798 3.63652,-9.10565 5.02381,-9.10565c1.38729,0 0,6.47166 0,9.41964z" fill="url(#color-6)" stroke="#694301" stroke-width="1" stroke-linecap="butt"/><path d="M227.42424,232.89286c0,1.56481 -0.23981,3.07143 -0.97619,3.07143c-0.73638,0 -1.19048,-1.60186 -1.19048,-3.16667c0,-1.56481 1.716,-5.19048 2.45238,-5.19048c0.73638,0 -0.28571,3.72091 -0.28571,5.28572z" fill="url(#color-7)" stroke="#694301" stroke-width="1" stroke-linecap="butt"/><path d="M233.85985,186.42857c0,0 0.70786,16.94999 -0.05624,23.16274c-0.78305,6.36681 -5.25328,14.58726 -5.25328,14.58726" fill="none" stroke="url(#color-8)" stroke-width="1" stroke-linecap="round"/><g stroke="none" stroke-width="0" stroke-linecap="butt"><path d="M275.6886,187.43421c0,2.65037 -3.22946,9.82008 -4.76755,9.83306c-1.5333,0.01295 -4.83027,-7.1827 -4.83027,-9.83306c0,-2.37573 1.72635,-4.34826 3.99302,-4.73154c0.26202,-0.04431 0.84492,-3.70577 1.11954,-3.70577c0.51734,0 0.70192,3.72026 1.16878,3.87174c1.92486,0.62456 3.31648,2.43255 3.31648,4.56557z" fill="url(#color-9)"/><path d="M259.56815,174.26472c-2.63948,-0.23988 -9.48749,-4.10498 -9.36121,-5.63795c0.12588,-1.52818 7.5904,-4.16036 10.22987,-3.92049c2.36599,0.21502 4.17417,2.11282 4.35073,4.40488c0.02041,0.26495 3.61408,1.17684 3.58922,1.45034c-0.04683,0.51522 -3.76851,0.36232 -3.96162,0.81355c-0.7962,1.86043 -2.72273,3.08271 -4.847,2.88966z" fill="url(#color-10)"/><path d="M284.74052,168.30543c2.3145,-1.29133 10.14911,-1.96442 10.90985,-0.62757c0.75837,1.33268 -3.91902,7.71776 -6.23352,9.0091c-2.07467,1.15753 -4.63836,0.61102 -6.07745,-1.18167c-0.16636,-0.20723 -3.64782,1.0677 -3.78163,0.82788c-0.25207,-0.45179 2.90682,-2.42557 2.81164,-2.90707c-0.39243,-1.98524 0.50839,-4.0814 2.3711,-5.12068z" fill="url(#color-11)"/><path d="M285.14394,179.14345c1.07656,2.42187 1.0378,10.28524 -0.36242,10.92187c-1.39585,0.63464 -7.33139,-4.60146 -8.40795,-7.02332c-0.96501,-2.17092 -0.18871,-4.67462 1.72687,-5.94554c0.22143,-0.14693 -0.73316,-3.72949 -0.48222,-3.84104c0.47274,-0.21014 2.15252,3.11441 2.64066,3.0632c2.0126,-0.21114 4.01865,0.8757 4.88507,2.82484z" fill="url(#color-12)"/><path d="M266.66908,170.85019c-0.77292,-2.53516 0.22525,-10.33501 1.69269,-10.79598c1.46287,-0.45954 6.715,5.46183 7.48792,7.99698c0.69284,2.27247 -0.38322,4.6627 -2.43959,5.69034c-0.23771,0.1188 0.27252,3.79108 0.00982,3.87118c-0.49485,0.15087 -1.75633,-3.35384 -2.24707,-3.36259c-2.02332,-0.03607 -3.88173,-1.35962 -4.50377,-3.39992z" fill="url(#color-13)"/><path d="M280.91123,184.329c2.59472,-0.5403 10.27221,1.15972 10.59848,2.66287c0.32524,1.49846 -6.04716,6.1931 -8.64187,6.7334c-2.32585,0.48432 -4.60888,-0.80366 -5.44619,-2.9446c-0.09679,-0.24749 -3.80019,-0.07172 -3.85617,-0.34058c-0.10546,-0.50647 3.49904,-1.44558 3.55217,-1.93351c0.21904,-2.01176 1.70536,-3.74275 3.79359,-4.17759z" fill="url(#color-14)"/><path d="M260.24811,187.33257c-1.83731,1.91018 -9.13506,4.8388 -10.25259,3.78192c-1.11406,-1.05359 1.49794,-8.5252 3.33523,-10.43537c1.64691,-1.71224 4.25854,-1.93714 6.15788,-0.64205c0.21956,0.14971 3.17788,-2.0851 3.37581,-1.89473c0.37286,0.35864 -2.07308,3.16785 -1.84161,3.60067c0.95433,1.78449 0.70395,4.05227 -0.77471,5.58959z" fill="url(#color-15)"/><path d="M264.05179,183.09716c-1.73604,-2.00264 -3.99215,-9.53551 -2.83846,-10.5528c1.15009,-1.01412 8.35462,2.26338 10.09067,4.26602c1.55616,1.79513 1.54376,4.41638 0.08209,6.19071c-0.16897,0.20511 1.78893,3.35356 1.58142,3.53343c-0.39091,0.33887 -2.96721,-2.35128 -3.4192,-2.15995c-1.86354,0.7889 -4.09935,0.33432 -5.49652,-1.27742z" fill="url(#color-16)"/></g><g stroke="none" stroke-width="0" stroke-linecap="butt"><path d="M304.16699,141.85224c2.61888,0.40727 9.20716,4.70013 8.98364,6.22195c-0.22283,1.51708 -7.83965,3.66914 -10.45853,3.26187c-2.34752,-0.36507 -4.03134,-2.37403 -4.06173,-4.67268c-0.00351,-0.26572 -3.53191,-1.40434 -3.4897,-1.6757c0.0795,-0.51119 3.78392,-0.12189 4.00535,-0.55992c0.91293,-1.80603 2.91329,-2.90329 5.02098,-2.57551z" fill="url(#color-17)"/><path d="M288.67671,155.75747c-0.64263,2.57128 -5.51416,8.74399 -7.0095,8.38365c-1.49068,-0.35922 -2.94455,-8.13956 -2.30192,-10.71084c0.57605,-2.30483 2.72916,-3.79992 5.02112,-3.62216c0.26495,0.02054 1.71824,-3.3903 1.98467,-3.32371c0.5019,0.12544 -0.22109,3.77941 0.19511,4.03957c1.71598,1.07264 2.6277,3.16411 2.1105,5.23349z" fill="url(#color-18)"/><path d="M286.65641,129.96834c-0.92032,-2.48545 -0.38148,-10.33042 1.05638,-10.87669c1.43339,-0.54457 7.02387,5.05845 7.9442,7.5439c0.82497,2.2279 -0.10901,4.67716 -2.10154,5.82368c-0.23032,0.13253 0.49446,3.76857 0.23693,3.86393c-0.48516,0.17964 -1.95007,-3.24502 -2.44048,-3.22496c-2.02195,0.08271 -3.95481,-1.12955 -4.69549,-3.12984z" fill="url(#color-19)"/><path d="M297.42769,131.23516c2.55853,-0.6916 10.32255,0.55506 10.73645,2.03647c0.4126,1.4768 -5.67341,6.53722 -8.23194,7.22882c-2.29343,0.61993 -4.6481,-0.53187 -5.60956,-2.62c-0.11115,-0.24138 -3.79785,0.15135 -3.86952,-0.11375c-0.135,-0.49941 3.4082,-1.64837 3.43261,-2.13858c0.10063,-2.02115 1.48284,-3.83636 3.54197,-4.39296z" fill="url(#color-20)"/><path d="M286.39391,148.2162c-2.62382,0.37417 -10.17765,-1.81074 -10.40765,-3.3316c-0.22929,-1.51612 6.42884,-5.79592 9.05266,-6.17009c2.35195,-0.33541 4.54843,1.09518 5.24787,3.28504c0.08085,0.25314 3.78792,0.3133 3.8267,0.58517c0.07303,0.51216 -3.5839,1.22009 -3.66795,1.70366c-0.34656,1.99374 -1.93999,3.6267 -4.05165,3.92783z" fill="url(#color-21)"/><path d="M301.90123,136.21445c-0.13515,-2.64692 2.72446,-9.97199 4.25989,-10.06339c1.53064,-0.09112 5.19028,6.92703 5.32543,9.57394c0.12116,2.37265 -1.50236,4.43064 -3.74653,4.92901c-0.25943,0.05761 -0.65483,3.74403 -0.9291,3.75803c-0.51666,0.02638 -0.89072,-3.67961 -1.36469,-3.80709c-1.9542,-0.52559 -3.43623,-2.26027 -3.54501,-4.39051z" fill="url(#color-22)"/><path d="M301.69382,157.09372c1.60516,2.10901 3.37756,9.77012 2.1615,10.71197c-1.21227,0.93892 -8.19374,-2.7902 -9.7989,-4.89921c-1.43883,-1.89048 -1.25973,-4.50565 0.31183,-6.1834c0.18167,-0.19395 -1.572,-3.46055 -1.35346,-3.62688c0.41167,-0.31332 2.81164,2.53528 3.27489,2.37306c1.90994,-0.66878 4.11231,-0.0729 5.40414,1.62445z" fill="url(#color-23)"/><path d="M298.09323,152.68436c-2.24563,1.40768 -10.03571,2.47943 -10.86365,1.18311c-0.82535,-1.29227 3.52034,-7.90759 5.76597,-9.31526c2.01294,-1.26182 4.60116,-0.84677 6.1298,0.8702c0.17671,0.19848 3.58863,-1.25234 3.73449,-1.01964c0.27477,0.43834 -2.77932,2.57065 -2.65972,3.04667c0.49317,1.96264 -0.2996,4.10202 -2.10689,5.23494z" fill="url(#color-24)"/></g><g stroke="none" stroke-width="0" stroke-linecap="butt"><path d="M183.48605,101.92347c0.09779,-2.64856 3.58958,-9.69422 5.12711,-9.65045c1.53273,0.04364 4.56197,7.35603 4.46418,10.00459c-0.08766,2.37413 -1.8856,4.2816 -4.16487,4.58098c-0.26348,0.03462 -0.98107,3.67208 -1.25552,3.66194c-0.51699,-0.01909 -0.56418,-3.74362 -1.02513,-3.91223c-1.90051,-0.69515 -3.22447,-2.55326 -3.14577,-4.68483z" fill="url(#color-25)"/><path d="M199.10961,115.67878c2.62884,0.3371 9.32957,4.45225 9.14682,5.9795c-0.18218,1.52249 -7.73872,3.87747 -10.36756,3.54037c-2.35644,-0.30217 -4.09338,-2.26538 -4.18524,-4.56239c-0.01062,-0.26552 -3.5682,-1.30939 -3.53327,-1.58178c0.0658,-0.51314 3.77931,-0.22304 3.98895,-0.66684c0.8643,-1.82979 2.83462,-2.98015 4.95032,-2.70885z" fill="url(#color-26)"/><path d="M173.73452,120.70525c-2.36057,1.20506 -10.21466,1.58861 -10.92556,0.2246c-0.70868,-1.35976 4.2011,-7.5679 6.56167,-8.77298c2.11596,-1.0802 4.65775,-0.43947 6.02971,1.40509c0.15859,0.21323 3.68473,-0.93239 3.8096,-0.68779c0.23523,0.46077 -2.99433,2.31667 -2.91698,2.80135c0.31892,1.99836 -0.65864,4.05988 -2.55844,5.02972z" fill="url(#color-27)"/><path d="M173.73125,109.85972c-0.98646,-2.45994 -0.6576,-10.31654 0.76516,-10.90107c1.41832,-0.5827 7.15662,4.86883 8.14309,7.32877c0.88425,2.20504 0.01611,4.6784 -1.94505,5.87779c-0.22671,0.13865 0.59507,3.75399 0.34017,3.85621c-0.48017,0.19255 -2.03615,-3.1917 -2.52585,-3.15855c-2.01902,0.13674 -3.9836,-1.02338 -4.77751,-3.00316z" fill="url(#color-28)"/><path d="M191.88754,118.82899c0.67886,2.56194 -0.60641,10.31966 -2.08988,10.72617c-1.47883,0.40526 -6.50891,-5.70586 -7.18776,-8.26781c-0.60851,-2.29649 0.555,-4.64539 2.64788,-5.59646c0.24194,-0.10994 -0.13245,-3.79855 0.13301,-3.8689c0.50009,-0.13251 1.63139,3.41635 2.12148,3.44321c2.02061,0.1107 3.82893,1.50192 4.37527,3.56378z" fill="url(#color-29)"/><path d="M178.1524,104.83387c-2.61287,0.44419 -10.22243,-1.53794 -10.49301,-3.0521c-0.26974,-1.50944 6.27154,-5.96577 8.88442,-6.40996c2.34213,-0.39817 4.57609,0.97316 5.33384,3.14353c0.08759,0.25089 3.79496,0.21188 3.84098,0.48264c0.0867,0.51002 -3.54999,1.31549 -3.62108,1.80112c-0.29312,2.0023 -1.8423,3.67728 -3.94515,4.03477z" fill="url(#color-30)"/><path d="M198.91229,102.59475c1.90652,-1.84109 9.30738,-4.49846 10.38516,-3.40106c1.07442,1.09398 -1.81147,8.46412 -3.718,10.30521c-1.70897,1.65032 -4.32712,1.77869 -6.17737,0.41442c-0.21389,-0.15771 -3.25265,1.96644 -3.44342,1.76888c-0.35938,-0.37215 2.18856,-3.08921 1.97322,-3.53026c-0.88783,-1.81849 -0.55398,-4.07547 0.9804,-5.55718z" fill="url(#color-31)"/><path d="M194.95491,106.68693c1.66098,2.06533 3.63761,9.6763 2.44717,10.65035c-1.18672,0.97099 -8.26542,-2.5701 -9.9264,-4.63543c-1.48887,-1.85132 -1.37975,-4.47034 0.14639,-6.18953c0.17641,-0.19873 -1.66398,-3.41727 -1.44997,-3.58938c0.40314,-0.32421 2.87844,2.45916 3.33718,2.28464c1.89138,-0.71962 4.10888,-0.18284 5.44564,1.47935z" fill="url(#color-32)"/></g><g stroke="none" stroke-width="0" stroke-linecap="butt"><path d="M153.34525,146.42366c-2.60207,-0.50363 -9.02747,-5.03665 -8.74796,-6.54918c0.27865,-1.50782 7.96969,-3.37739 10.57176,-2.87376c2.33246,0.45144 3.94099,2.52115 3.88656,4.81935c-0.00629,0.26567 3.47768,1.53371 3.4255,1.80333c-0.09831,0.50791 -3.78583,-0.01781 -4.02327,0.41175c-0.97894,1.77111 -3.01843,2.79382 -5.1126,2.38851z" fill="url(#color-33)"/><path d="M169.33803,133.09943c0.73707,-2.54582 5.83302,-8.53458 7.31405,-8.11931c1.4764,0.41397 2.64222,8.24265 1.90516,10.78846c-0.66069,2.28202 -2.8675,3.69664 -5.15134,3.43444c-0.26401,-0.0303 -1.84217,3.32461 -2.10596,3.24823c-0.49693,-0.14387 0.36039,-3.76869 -0.04592,-4.04403c-1.67524,-1.13522 -2.50918,-3.25891 -1.91598,-5.30779z" fill="url(#color-34)"/><path d="M170.40545,158.94555c0.82799,2.51772 0.00008,10.33747 -1.45698,10.83032c-1.45251,0.49132 -6.83246,-5.31415 -7.66045,-7.83187c-0.74221,-2.25682 0.28151,-4.66996 2.31499,-5.74218c0.23506,-0.12395 -0.35509,-3.78424 -0.0942,-3.87004c0.49145,-0.16162 1.82903,3.31475 2.31984,3.3128c2.02363,-0.00804 3.91043,1.2747 4.57681,3.30096z" fill="url(#color-35)"/><path d="M159.68822,157.28215c-2.58231,0.59673 -10.29505,-0.93554 -10.654,-2.43122c-0.35783,-1.49101 5.91074,-6.32343 8.49305,-6.92016c2.31474,-0.5349 4.62531,0.70301 5.50908,2.82518c0.10217,0.24532 3.80085,-0.01111 3.86268,0.25646c0.11648,0.50406 -3.46669,1.52149 -3.50917,2.01047c-0.17513,2.01605 -1.62338,3.77903 -3.70164,4.25927z" fill="url(#color-36)"/><path d="M171.34102,140.7198c2.63584,-0.27711 10.10391,2.18505 10.27763,3.71334c0.17319,1.52355 -6.63831,5.55477 -9.27415,5.83188c-2.36271,0.24839 -4.50494,-1.26226 -5.12309,-3.47643c-0.07145,-0.25595 -3.77379,-0.45283 -3.80251,-0.72595c-0.05409,-0.51451 3.62647,-1.08703 3.72831,-1.56716c0.41988,-1.9796 2.07247,-3.55266 4.1938,-3.77567z" fill="url(#color-37)"/><path d="M155.40148,152.1412c0.03741,2.6501 -3.09054,9.86467 -4.6283,9.89936c-1.53295,0.03458 -4.93115,-7.1138 -4.96856,-9.7639c-0.03354,-2.37551 1.6648,-4.3722 3.92584,-4.78742c0.26137,-0.048 0.79254,-3.71732 1.06713,-3.72119c0.5173,-0.00731 0.75436,3.70997 1.2233,3.85485c1.93348,0.59733 3.35048,2.3855 3.38059,4.51832z" fill="url(#color-38)"/><path d="M156.37908,131.2838c-1.52625,-2.16681 -3.01477,-9.88808 -1.76479,-10.78443c1.24608,-0.89355 8.08522,3.09062 9.61147,5.25741c1.3681,1.94227 1.09263,4.54905 -0.53977,6.16769c-0.1887,0.18711 1.44324,3.51619 1.21873,3.67434c-0.42294,0.29791 -2.71619,-2.63728 -3.1851,-2.49228c-1.93332,0.59785 -4.1122,-0.07888 -5.34053,-1.82274z" fill="url(#color-39)"/><path d="M159.81454,135.82301c2.29603,-1.32387 10.12036,-2.10745 10.89989,-0.78147c0.77711,1.32183 -3.80971,7.7723 -6.10574,9.09617c-2.05812,1.18669 -4.62927,0.67643 -6.09351,-1.09577c-0.16927,-0.20486 -3.63239,1.11908 -3.76957,0.88117c-0.25842,-0.44818 2.87229,-2.46635 2.77033,-2.94647c-0.42041,-1.9795 0.45074,-4.08818 2.2986,-5.15364z" fill="url(#color-40)"/></g><g stroke="none" stroke-width="0" stroke-linecap="butt"><path d="M286.589,96.05744c0.09779,-2.64856 3.58958,-9.69423 5.1271,-9.65046c1.53273,0.04364 4.56197,7.35602 4.46418,10.00458c-0.08766,2.37413 -1.8856,4.2816 -4.16487,4.58099c-0.26348,0.03462 -0.98107,3.67207 -1.25551,3.66194c-0.517,-0.01909 -0.56418,-3.74361 -1.02513,-3.91221c-1.90051,-0.69515 -3.22448,-2.55326 -3.14577,-4.68484z" fill="url(#color-41)"/><path d="M302.21257,109.81275c2.62885,0.3371 9.32956,4.45224 9.14681,5.9795c-0.18218,1.52249 -7.73872,3.87747 -10.36756,3.54038c-2.35644,-0.30217 -4.09338,-2.26539 -4.18524,-4.56239c-0.01062,-0.26552 -3.56821,-1.3094 -3.53328,-1.58179c0.06581,-0.51314 3.77931,-0.22304 3.98895,-0.66683c0.8643,-1.82979 2.83462,-2.98015 4.95032,-2.70885z" fill="url(#color-42)"/><path d="M276.83745,114.83922c-2.36057,1.20506 -10.21468,1.58862 -10.92558,0.22461c-0.70868,-1.35976 4.2011,-7.56791 6.56168,-8.77298c2.11597,-1.0802 4.65774,-0.43947 6.02971,1.40509c0.15859,0.21323 3.68473,-0.9324 3.8096,-0.68779c0.23523,0.46077 -2.99433,2.31667 -2.91699,2.80136c0.31892,1.99836 -0.65863,4.05987 -2.55842,5.0297z" fill="url(#color-43)"/><path d="M276.83418,103.9937c-0.98646,-2.45994 -0.6576,-10.31654 0.76515,-10.90107c1.41832,-0.5827 7.15662,4.86883 8.14308,7.32877c0.88425,2.20504 0.01611,4.6784 -1.94505,5.87778c-0.22671,0.13865 0.59507,3.754 0.34017,3.85621c-0.48017,0.19255 -2.03615,-3.1917 -2.52585,-3.15855c-2.01902,0.13674 -3.98361,-1.02338 -4.77752,-3.00315z" fill="url(#color-44)"/><path d="M294.9905,112.96297c0.67886,2.56194 -0.60642,10.31967 -2.08988,10.72617c-1.47882,0.40525 -6.50891,-5.70585 -7.18776,-8.26781c-0.60852,-2.29649 0.555,-4.64539 2.64787,-5.59646c0.24194,-0.10994 -0.13245,-3.79855 0.13301,-3.8689c0.50009,-0.13251 1.63139,3.41635 2.12149,3.44321c2.02062,0.1107 3.82892,1.50192 4.37526,3.56378z" fill="url(#color-45)"/><path d="M281.25534,98.96784c-2.61288,0.44419 -10.22242,-1.53793 -10.49302,-3.05209c-0.26974,-1.50944 6.27155,-5.96577 8.88443,-6.40996c2.34213,-0.39817 4.57609,0.97317 5.33384,3.14354c0.0876,0.25089 3.79496,0.21188 3.84098,0.48263c0.0867,0.51002 -3.54999,1.31549 -3.62108,1.80112c-0.29312,2.0023 -1.8423,3.67727 -3.94516,4.03476z" fill="url(#color-46)"/><path d="M302.01523,96.72872c1.90652,-1.84109 9.30737,-4.49845 10.38515,-3.40105c1.07442,1.09398 -1.81146,8.46411 -3.71799,10.30521c-1.70896,1.65032 -4.32713,1.7787 -6.17738,0.41442c-0.21389,-0.15771 -3.25264,1.96643 -3.44341,1.76888c-0.35938,-0.37215 2.18856,-3.0892 1.97322,-3.53026c-0.88783,-1.81849 -0.55397,-4.07548 0.98042,-5.55719z" fill="url(#color-47)"/><path d="M298.05786,100.82089c1.66097,2.06533 3.63761,9.6763 2.44716,10.65034c-1.18673,0.97099 -8.26542,-2.57009 -9.9264,-4.63542c-1.48887,-1.85132 -1.37975,-4.47034 0.14638,-6.18952c0.17642,-0.19873 -1.66397,-3.41728 -1.44997,-3.58939c0.40314,-0.32421 2.87843,2.45916 3.33718,2.28463c1.89137,-0.71962 4.10889,-0.18283 5.44565,1.47936z" fill="url(#color-48)"/></g><path d="M272.44097,127.67887c0.73706,-2.54582 5.83302,-8.53458 7.31405,-8.11931c1.47641,0.41397 2.64221,8.24265 1.90515,10.78846c-0.66069,2.28202 -2.86751,3.69664 -5.15134,3.43444c-0.264,-0.0303 -1.84216,3.3246 -2.10595,3.24823c-0.49693,-0.14387 0.36039,-3.76869 -0.04593,-4.04403c-1.67523,-1.13522 -2.50917,-3.2589 -1.91598,-5.30779z" fill="url(#color-49)" stroke="none" stroke-width="0" stroke-linecap="butt"/><path d="M273.50838,153.52499c0.82799,2.51772 0.00008,10.33746 -1.45698,10.83031c-1.4525,0.49132 -6.83246,-5.31416 -7.66045,-7.83187c-0.74221,-2.25682 0.28151,-4.66995 2.31499,-5.74217c0.23507,-0.12395 -0.35508,-3.78426 -0.09421,-3.87005c0.49145,-0.16162 1.82902,3.31475 2.31983,3.31282c2.02363,-0.00804 3.91045,1.2747 4.57682,3.30095z" fill="url(#color-50)" stroke="none" stroke-width="0" stroke-linecap="butt"/><path d="M262.79118,151.86161c-2.58231,0.59673 -10.29505,-0.93554 -10.65401,-2.43122c-0.35783,-1.49101 5.91075,-6.32344 8.49306,-6.92017c2.31473,-0.5349 4.62531,0.70302 5.50909,2.82519c0.10217,0.24532 3.80084,-0.01112 3.86267,0.25645c0.11647,0.50406 -3.46668,1.52149 -3.50917,2.01047c-0.17513,2.01605 -1.62338,3.77903 -3.70164,4.25929z" fill="url(#color-51)" stroke="none" stroke-width="0" stroke-linecap="butt"/><path d="M274.44397,135.29925c2.63584,-0.27711 10.10391,2.18504 10.27763,3.71333c0.17319,1.52355 -6.63831,5.55478 -9.27415,5.83189c-2.36272,0.24839 -4.50493,-1.26227 -5.12309,-3.47644c-0.07146,-0.25595 -3.77379,-0.45283 -3.8025,-0.72595c-0.05409,-0.51451 3.62647,-1.08703 3.72832,-1.56716c0.41988,-1.9796 2.07247,-3.55265 4.1938,-3.77566z" fill="url(#color-52)" stroke="none" stroke-width="0" stroke-linecap="butt"/><path d="M258.50441,146.72064c0.03741,2.6501 -3.09055,9.86467 -4.6283,9.89937c-1.53296,0.03458 -4.93115,-7.11381 -4.96856,-9.76391c-0.03354,-2.37551 1.66481,-4.3722 3.92584,-4.78743c0.26137,-0.048 0.79253,-3.71733 1.06713,-3.72119c0.51729,-0.00731 0.75435,3.70997 1.22329,3.85485c1.93347,0.59733 3.3505,2.3855 3.3806,4.51832z" fill="url(#color-53)" stroke="none" stroke-width="0" stroke-linecap="butt"/><path d="M259.48202,125.86325c-1.52625,-2.1668 -3.01477,-9.88808 -1.76479,-10.78443c1.24608,-0.89355 8.08522,3.09062 9.61147,5.25741c1.36809,1.94227 1.09263,4.54905 -0.53977,6.16768c-0.1887,0.18711 1.44324,3.51619 1.21873,3.67434c-0.42296,0.29791 -2.7162,-2.63727 -3.18511,-2.49228c-1.93331,0.59785 -4.11221,-0.07888 -5.34053,-1.82273z" fill="url(#color-54)" stroke="none" stroke-width="0" stroke-linecap="butt"/><path d="M262.91748,131.73887c2.29604,-1.32387 10.12036,-2.10745 10.8999,-0.78147c0.77711,1.32183 -3.80971,7.77231 -6.10575,9.09618c-2.05813,1.18669 -4.62926,0.67643 -6.09351,-1.09578c-0.16927,-0.20486 -3.6324,1.11908 -3.76957,0.88117c-0.25841,-0.44818 2.87229,-2.46634 2.77033,-2.94646c-0.42041,-1.9795 0.45075,-4.08819 2.2986,-5.15365z" fill="url(#color-55)" stroke="none" stroke-width="0" stroke-linecap="butt"/><path d="M293.42223,132.53918c-2.60207,-0.50363 -9.02749,-5.03665 -8.74796,-6.54918c0.27865,-1.50782 7.96969,-3.37739 10.57176,-2.87376c2.33245,0.45145 3.941,2.52116 3.88657,4.81936c-0.00629,0.26566 3.47769,1.5337 3.4255,1.80333c-0.0983,0.50791 -3.78583,-0.01781 -4.02327,0.41175c-0.97894,1.77111 -3.01844,2.79383 -5.1126,2.3885z" fill="url(#color-56)" stroke="none" stroke-width="0" stroke-linecap="butt"/><path d="M286.25055,140.15204c0.73706,-2.54581 5.83302,-8.53459 7.31405,-8.11931c1.47641,0.41397 2.64221,8.24265 1.90515,10.78847c-0.66069,2.28202 -2.86751,3.69664 -5.15134,3.43444c-0.264,-0.0303 -1.84216,3.3246 -2.10595,3.24823c-0.49693,-0.14387 0.36039,-3.7687 -0.04593,-4.04403c-1.67523,-1.13522 -2.50917,-3.25891 -1.91598,-5.30779z" fill="url(#color-57)" stroke="none" stroke-width="0" stroke-linecap="butt"/><path d="M285.09061,137.04259c0.82799,2.51772 0.00007,10.33747 -1.45698,10.83032c-1.4525,0.49132 -6.83245,-5.31415 -7.66044,-7.83187c-0.74221,-2.25682 0.2815,-4.66996 2.31498,-5.74218c0.23507,-0.12395 -0.35508,-3.78424 -0.09421,-3.87004c0.49145,-0.16162 1.82902,3.31475 2.31983,3.3128c2.02363,-0.00804 3.91045,1.2747 4.57682,3.30095z" fill="url(#color-58)" stroke="none" stroke-width="0" stroke-linecap="butt"/><path d="M279.78962,112.13479c2.63584,-0.27711 10.1039,2.18505 10.27763,3.71335c0.17319,1.52354 -6.63831,5.55477 -9.27415,5.83188c-2.36272,0.2484 -4.50493,-1.26226 -5.12309,-3.47644c-0.07146,-0.25595 -3.7738,-0.45283 -3.80251,-0.72595c-0.05409,-0.51451 3.62647,-1.08703 3.72832,-1.56717c0.41988,-1.97961 2.07247,-3.55264 4.1938,-3.77566z" fill="url(#color-59)" stroke="none" stroke-width="0" stroke-linecap="butt"/><path d="M258.05894,121.77432c0.03741,2.6501 -3.09055,9.86467 -4.6283,9.89936c-1.53296,0.03458 -4.93115,-7.11381 -4.96856,-9.76391c-0.03354,-2.3755 1.66481,-4.37219 3.92584,-4.78742c0.26137,-0.04801 0.79253,-3.71732 1.06713,-3.72119c0.51729,-0.00731 0.75435,3.70997 1.22329,3.85484c1.93347,0.59733 3.3505,2.3855 3.3806,4.51832z" fill="url(#color-60)" stroke="none" stroke-width="0" stroke-linecap="butt"/><path d="M241.66321,114.7265c-1.52625,-2.1668 -3.01477,-9.88809 -1.76479,-10.78444c1.24608,-0.89355 8.08522,3.09062 9.61147,5.25742c1.36809,1.94227 1.09263,4.54905 -0.53977,6.16767c-0.1887,0.18711 1.44324,3.51619 1.21873,3.67435c-0.42296,0.29792 -2.71619,-2.63727 -3.1851,-2.49228c-1.93331,0.59785 -4.11221,-0.07889 -5.34053,-1.82273z" fill="url(#color-61)" stroke="none" stroke-width="0" stroke-linecap="butt"/><path d="M261.1356,102.33783c2.29604,-1.32386 10.12036,-2.10745 10.89989,-0.78147c0.77711,1.32183 -3.80971,7.77231 -6.10574,9.09617c-2.05813,1.18669 -4.62927,0.67642 -6.09351,-1.09578c-0.16927,-0.20486 -3.63239,1.11908 -3.76956,0.88117c-0.25841,-0.44818 2.87229,-2.46636 2.77033,-2.94647c-0.42041,-1.97949 0.45075,-4.08818 2.2986,-5.15363z" fill="url(#color-62)" stroke="none" stroke-width="0" stroke-linecap="butt"/><path d="M236.01998,159.9438c2.60261,-0.50081 10.25341,1.31566 10.5568,2.82359c0.30244,1.50323 -6.14056,6.10051 -8.74318,6.60132c-2.33293,0.44892 -4.59614,-0.87359 -5.40082,-3.02701c-0.09303,-0.24893 -3.79867,-0.12946 -3.85056,-0.39914c-0.09776,-0.50803 3.5206,-1.39225 3.58114,-1.87933c0.24959,-2.0082 1.76203,-3.71639 3.85663,-4.11945z" fill="url(#color-63)" stroke="none" stroke-width="0" stroke-linecap="butt"/><path d="M235.1339,170.76235c0.2632,2.63727 -2.23827,10.09223 -3.76746,10.2579c-1.52444,0.16515 -5.5197,-6.66749 -5.7829,-9.30476c-0.23593,-2.36399 1.28599,-4.49821 3.50339,-5.10469c0.25633,-0.07011 0.47273,-3.77136 0.746,-3.79863c0.51478,-0.05138 1.06789,3.63215 1.54749,3.73653c1.97736,0.43031 3.54166,2.09116 3.75349,4.21364z" fill="url(#color-64)" stroke="none" stroke-width="0" stroke-linecap="butt"/><path d="M218.48385,187.40201c-1.02087,-2.44586 -0.80223,-10.3063 0.61219,-10.91073c1.41,-0.60253 7.22421,4.76797 8.24508,7.21383c0.9151,2.19243 0.08172,4.67772 -1.86243,5.90449c-0.22474,0.14181 0.64765,3.74528 0.39422,3.85106c-0.47743,0.19927 -2.08072,-3.16284 -2.5699,-3.12282c-2.0169,0.16504 -3.99757,-0.96741 -4.81916,-2.93586z" fill="url(#color-65)" stroke="none" stroke-width="0" stroke-linecap="butt"/><path d="M246.95998,163.19051c-1.63852,2.08319 -8.60935,5.72207 -9.82633,4.78139c-1.21317,-0.93774 0.64392,-8.6318 2.28243,-10.71499c1.46874,-1.86734 4.04511,-2.35047 6.06367,-1.25042c0.23335,0.12715 2.9551,-2.3904 3.17096,-2.22062c0.40662,0.31984 -1.74823,3.35806 -1.47494,3.76576c1.12683,1.68089 1.10291,3.96231 -0.21578,5.63888z" fill="url(#color-66)" stroke="none" stroke-width="0" stroke-linecap="butt"/><g stroke="none" stroke-width="0" stroke-linecap="butt"><path d="M193.37789,150.09169c-0.09492,-2.64867 2.87566,-9.92944 4.4123,-9.99751c1.53185,-0.06786 5.08444,7.00508 5.17936,9.65375c0.08509,2.37421 -1.56951,4.40731 -3.821,4.87152c-0.26026,0.05366 -0.71165,3.73366 -0.9861,3.74348c-0.51701,0.01853 -0.83471,-3.69272 -1.30669,-3.82739c-1.946,-0.55522 -3.40148,-2.31221 -3.47788,-4.44386z" fill="url(#color-67)"/><path d="M209.95968,162.67536c2.64639,0.14518 9.62842,3.76254 9.55713,5.29904c-0.07107,1.5317 -7.43651,4.42956 -10.0829,4.28437c-2.37217,-0.13014 -4.24716,-1.96196 -4.5057,-4.24622c-0.02989,-0.26406 -3.65392,-1.04665 -3.63887,-1.32086c0.02834,-0.51657 3.75311,-0.49706 3.92994,-0.95492c0.72906,-1.88776 2.61057,-3.17826 4.74039,-3.06141z" fill="url(#color-68)"/><path d="M185.01689,169.5324c-2.26676,1.3734 -10.07223,2.32666 -10.88036,1.01792c-0.80561,-1.30466 3.64008,-7.85318 5.90685,-9.22658c2.03188,-1.2311 4.61348,-0.77676 6.11586,0.96323c0.17367,0.20114 3.60725,-1.19768 3.74955,-0.96279c0.26809,0.44247 -2.81806,2.52813 -2.7057,3.00591c0.46328,1.96991 -0.36189,4.09699 -2.18619,5.20231z" fill="url(#color-69)"/><path d="M184.22555,158.71579c-1.16261,-2.38175 -1.40551,-10.24148 -0.02898,-10.92785c1.37222,-0.68422 7.49149,4.33592 8.65409,6.71768c1.04214,2.13496 0.35602,4.66487 -1.5128,6.00359c-0.21604,0.15475 0.86627,3.70083 0.61948,3.82129c-0.46491,0.22694 -2.2627,-3.03531 -2.74868,-2.96666c-2.00375,0.28311 -4.04744,-0.73121 -4.9831,-2.64807z" fill="url(#color-70)"/><path d="M202.98561,166.34202c0.86322,2.50584 0.14505,10.33646 -1.30495,10.84969c-1.44547,0.51164 -6.90631,-5.21782 -7.76953,-7.72366c-0.77379,-2.2462 0.21598,-4.67344 2.23422,-5.77407c0.23331,-0.12723 -0.40812,-3.77889 -0.14847,-3.86834c0.48914,-0.16851 1.87533,3.28878 2.36607,3.27994c2.02331,-0.03643 3.92793,1.21972 4.62266,3.23643z" fill="url(#color-71)"/><path d="M188.26981,153.38196c-2.57369,0.63289 -10.30715,-0.79107 -10.68705,-2.28157c-0.37871,-1.48585 5.82147,-6.40571 8.39516,-7.0386c2.307,-0.56732 4.63472,0.63807 5.54817,2.74764c0.10559,0.24386 3.80031,-0.06444 3.86588,0.20225c0.12354,0.50238 -3.445,1.56997 -3.48061,2.0595c-0.14685,2.01831 -1.57023,3.80142 -3.64155,4.31077z" fill="url(#color-72)"/><path d="M208.81212,149.64024c1.7677,-1.97476 8.95588,-5.16287 10.11055,-4.14669c1.15107,1.01301 -1.19164,8.57337 -2.95934,10.54812c-1.58454,1.77013 -4.18643,2.08843 -6.13092,0.8622c-0.22478,-0.14175 -3.10116,2.1976 -3.30578,2.01443c-0.38547,-0.34505 1.95829,-3.24006 1.71148,-3.66431c-1.01763,-1.74916 -0.84865,-4.02446 0.574,-5.61374z" fill="url(#color-73)"/><path d="M205.16257,154.00916c1.80666,1.93918 4.33113,9.38639 3.21461,10.44437c-1.11303,1.05466 -8.43034,-1.96269 -10.23699,-3.90187c-1.61946,-1.73825 -1.70095,-4.35826 -0.30378,-6.1838c0.16151,-0.21103 -1.9079,-3.28734 -1.70695,-3.47455c0.37851,-0.35265 3.04952,2.2435 3.49437,2.03611c1.83409,-0.85514 4.08474,-0.48092 5.53875,1.07973z" fill="url(#color-74)"/></g><path d="M217.08885,187.72323c-1.72522,2.01197 -8.84384,5.35253 -10.01991,4.36118c-1.17239,-0.98826 1.00868,-8.59681 2.73392,-10.60877c1.54647,-1.80348 4.14098,-2.17715 6.11116,-0.99265c0.22775,0.13692 3.05362,-2.26317 3.2621,-2.0844c0.39273,0.33676 -1.88881,3.28106 -1.63302,3.69994c1.05468,1.72709 0.93421,4.00546 -0.45426,5.6247z" fill="url(#color-75)" stroke="none" stroke-width="0" stroke-linecap="butt"/><path d="M200.91455,178.93788c2.64639,0.14518 9.62842,3.76255 9.55713,5.29905c-0.07107,1.5317 -7.43651,4.42955 -10.0829,4.28436c-2.37217,-0.13014 -4.24716,-1.96196 -4.5057,-4.24622c-0.02989,-0.26406 -3.65393,-1.04664 -3.63888,-1.32086c0.02834,-0.51657 3.75311,-0.49707 3.92994,-0.95492c0.72906,-1.88776 2.61058,-3.17826 4.7404,-3.06141z" fill="url(#color-76)" stroke="none" stroke-width="0" stroke-linecap="butt"/><path d="M203.68316,177.10788c-2.26676,1.3734 -10.07224,2.32666 -10.88037,1.01792c-0.80561,-1.30466 3.64008,-7.85318 5.90685,-9.22658c2.03188,-1.2311 4.6135,-0.77676 6.11587,0.96324c0.17367,0.20114 3.60725,-1.19768 3.74955,-0.96279c0.26809,0.44247 -2.81806,2.52813 -2.70569,3.00592c0.46328,1.96991 -0.36189,4.097 -2.18619,5.20232z" fill="url(#color-77)" stroke="none" stroke-width="0" stroke-linecap="butt"/><path d="M232.00308,145.85083c-1.16261,-2.38175 -1.40551,-10.24147 -0.02899,-10.92784c1.37222,-0.68422 7.49149,4.33593 8.65411,6.71768c1.04214,2.13496 0.35601,4.66486 -1.51281,6.00358c-0.21604,0.15475 0.86628,3.70083 0.61948,3.8213c-0.46491,0.22694 -2.2627,-3.03532 -2.74869,-2.96666c-2.00375,0.28311 -4.04743,-0.73121 -4.9831,-2.64806z" fill="url(#color-78)" stroke="none" stroke-width="0" stroke-linecap="butt"/><path d="M226.75887,166.33703c0.86323,2.50584 0.14506,10.33645 -1.30494,10.84969c-1.44547,0.51164 -6.90631,-5.21782 -7.76954,-7.72366c-0.77379,-2.2462 0.21597,-4.67344 2.23422,-5.77407c0.23331,-0.12723 -0.40812,-3.77889 -0.14847,-3.86834c0.48914,-0.16851 1.87533,3.28878 2.36606,3.27994c2.02331,-0.03643 3.92794,1.21972 4.62266,3.23644z" fill="url(#color-79)" stroke="none" stroke-width="0" stroke-linecap="butt"/><path d="M212.47586,147.33339c-2.57369,0.63289 -10.30715,-0.79107 -10.68705,-2.28157c-0.37871,-1.48585 5.82147,-6.4057 8.39516,-7.03859c2.307,-0.56732 4.63472,0.63806 5.54817,2.74764c0.10559,0.24386 3.80031,-0.06443 3.86588,0.20225c0.12354,0.50238 -3.44501,1.56997 -3.48063,2.05949c-0.14685,2.01831 -1.57023,3.80142 -3.64154,4.31077z" fill="url(#color-80)" stroke="none" stroke-width="0" stroke-linecap="butt"/><path d="M218.88066,136.91492c-2.48578,-0.91941 -8.08995,-6.43551 -7.56857,-7.88259c0.51977,-1.44258 8.41228,-2.03863 10.89807,-1.11923c2.22821,0.82414 3.47937,3.12757 3.05253,5.38644c-0.04934,0.26112 3.18255,2.07799 3.08728,2.33557c-0.17947,0.48522 -3.73273,-0.63225 -4.03675,-0.24693c-1.25351,1.58867 -3.432,2.2667 -5.43256,1.52675z" fill="url(#color-81)" stroke="none" stroke-width="0" stroke-linecap="butt"/><path d="M232.10613,145.95666c1.80666,1.93918 4.33113,9.3864 3.21461,10.44437c-1.11303,1.05466 -8.43034,-1.9627 -10.23699,-3.90188c-1.61945,-1.73825 -1.70095,-4.35826 -0.30378,-6.18379c0.1615,-0.21103 -1.90789,-3.28734 -1.70696,-3.47454c0.37852,-0.35265 3.04952,2.24351 3.49437,2.03611c1.83409,-0.85514 4.08475,-0.48093 5.53875,1.07972z" fill="url(#color-82)" stroke="none" stroke-width="0" stroke-linecap="butt"/><path d="M176.37063,183.84469c-1.09959,2.4115 -7.01257,7.59519 -8.41744,6.96888c-1.40048,-0.62436 -1.41497,-8.53935 -0.31538,-10.95084c0.98566,-2.16162 3.37478,-3.24016 5.59617,-2.64848c0.25679,0.06839 2.30623,-3.02124 2.5561,-2.90731c0.47072,0.21463 -0.90482,3.67618 -0.54288,4.0077c1.49227,1.36686 2.00838,3.58927 1.12342,5.53005z" fill="url(#color-83)" stroke="none" stroke-width="0" stroke-linecap="butt"/><path d="M167.16682,165.174c-2.30209,-1.31333 -6.92935,-7.67121 -6.17845,-9.01362c0.74855,-1.33822 8.63237,-0.63629 10.93445,0.67704c2.06355,1.17724 2.92141,3.65419 2.13112,5.81292c-0.09135,0.24955 2.80011,2.5702 2.66402,2.80874c-0.25636,0.44935 -3.57918,-1.23383 -3.9421,-0.90338c-1.49631,1.36244 -3.75631,1.67528 -5.60904,0.6183z" fill="url(#color-84)" stroke="none" stroke-width="0" stroke-linecap="butt"/><path d="M192.54294,170.19536c2.64166,-0.21471 10.04942,2.4233 10.18696,3.95529c0.13711,1.52721 -6.76777,5.39628 -9.40944,5.61099c-2.36793,0.19246 -4.47383,-1.36841 -5.03947,-3.59659c-0.06538,-0.25757 -3.76204,-0.54194 -3.78428,-0.81566c-0.04191,-0.51565 3.65115,-1.00099 3.76432,-1.47858c0.46658,-1.96913 2.15589,-3.50265 4.28189,-3.67544z" fill="url(#color-85)" stroke="none" stroke-width="0" stroke-linecap="butt"/><path d="M188.4135,180.22397c-0.02526,2.65024 -3.3229,9.78885 -4.86106,9.78717c-1.53336,-0.00167 -4.76159,-7.22842 -4.73633,-9.87866c0.02265,-2.37563 1.76771,-4.33162 4.03794,-4.69326c0.26244,-0.04181 0.88021,-3.69754 1.15483,-3.69493c0.51731,0.00492 0.66641,3.72677 1.1318,3.88269c1.91882,0.64288 3.29316,2.46406 3.27283,4.59698z" fill="url(#color-86)" stroke="none" stroke-width="0" stroke-linecap="butt"/><path d="M175.0444,165.01324c0.34852,-2.62735 4.49277,-9.31011 6.0192,-9.12073c1.52169,0.1888 3.84379,7.75551 3.49527,10.38286c-0.31241,2.35511 -2.28315,4.08349 -4.58055,4.16536c-0.26557,0.00947 -1.3249,3.56248 -1.59714,3.52637c-0.51285,-0.06803 -0.2066,-3.78025 -0.64948,-3.9918c-1.82601,-0.87225 -2.96781,-2.84756 -2.6873,-4.96205z" fill="url(#color-87)" stroke="none" stroke-width="0" stroke-linecap="butt"/><path d="M197.67406,186.50343c1.27242,2.32495 1.88165,10.16478 0.53864,10.9146c-1.33881,0.74749 -7.68557,-3.98179 -8.958,-6.30672c-1.14058,-2.08403 -0.5732,-4.64319 1.23114,-6.06762c0.20858,-0.16467 -1.03795,-3.6564 -0.79704,-3.78823c0.45382,-0.24838 2.40179,2.92647 2.88406,2.83521c1.98836,-0.37625 4.07714,0.54164 5.1012,2.41276z" fill="url(#color-88)" stroke="none" stroke-width="0" stroke-linecap="butt"/><path d="M162.36386,177.34621c-2.46421,0.97576 -10.31929,0.61273 -10.89762,-0.81254c-0.57654,-1.42084 4.89988,-7.13539 7.36409,-8.11115c2.20888,-0.87465 4.67842,0.00424 5.86927,1.9706c0.13766,0.22731 3.75655,-0.57875 3.85766,-0.3234c0.19046,0.481 -3.20054,2.02226 -3.16951,2.51209c0.12796,2.0196 -1.0407,3.97912 -3.0239,4.76441z" fill="url(#color-89)" stroke="none" stroke-width="0" stroke-linecap="butt"/><path d="M167.58194,175.0706c-0.74872,-2.54241 0.32376,-10.3324 1.79553,-10.77936c1.46717,-0.44557 6.66263,5.52559 7.41135,8.06799c0.67114,2.27897 -0.42764,4.65883 -2.49371,5.66683c-0.23882,0.11653 0.23637,3.79351 -0.02707,3.87109c-0.49626,0.14614 -1.72429,-3.37042 -2.21492,-3.38386c-2.02289,-0.05534 -3.86859,-1.39656 -4.47117,-3.44269z" fill="url(#color-90)" stroke="none" stroke-width="0" stroke-linecap="butt"/><path d="M212.89919,104.55098c-1.09959,2.4115 -7.01257,7.59519 -8.41743,6.96889c-1.40048,-0.62435 -1.41497,-8.53934 -0.31538,-10.95085c0.98566,-2.16162 3.37478,-3.24016 5.59617,-2.64848c0.25679,0.06839 2.30622,-3.02124 2.5561,-2.9073c0.47072,0.21464 -0.90482,3.67618 -0.54287,4.0077c1.49227,1.36687 2.00837,3.58926 1.12342,5.53006z" fill="url(#color-91)" stroke="none" stroke-width="0" stroke-linecap="butt"/><path d="M203.69537,85.8803c-2.30209,-1.31333 -6.92935,-7.67121 -6.17845,-9.01362c0.74855,-1.33822 8.63236,-0.6363 10.93445,0.67704c2.06355,1.17724 2.92141,3.6542 2.13112,5.81293c-0.09135,0.24954 2.80011,2.57021 2.66402,2.80875c-0.25636,0.44935 -3.57919,-1.23383 -3.9421,-0.90339c-1.49631,1.36243 -3.75631,1.67528 -5.60904,0.6183z" fill="url(#color-92)" stroke="none" stroke-width="0" stroke-linecap="butt"/><path d="M224.94207,100.93027c-0.02526,2.65024 -3.32291,9.78886 -4.86106,9.78718c-1.53336,-0.00168 -4.76159,-7.22841 -4.73633,-9.87866c0.02265,-2.37563 1.76771,-4.33161 4.03794,-4.69326c0.26244,-0.04181 0.88021,-3.69754 1.15483,-3.69492c0.51731,0.00494 0.66641,3.72677 1.1318,3.88269c1.91882,0.64288 3.29316,2.46405 3.27283,4.59697z" fill="url(#color-93)" stroke="none" stroke-width="0" stroke-linecap="butt"/><path d="M211.57295,85.71954c0.34852,-2.62735 4.49277,-9.31011 6.01921,-9.12072c1.52169,0.1888 3.84379,7.75551 3.49527,10.38285c-0.31241,2.3551 -2.28316,4.0835 -4.58055,4.16537c-0.26557,0.00947 -1.3249,3.56248 -1.59713,3.52636c-0.51285,-0.06803 -0.2066,-3.78024 -0.64948,-3.9918c-1.82601,-0.87225 -2.96782,-2.84755 -2.68731,-4.96206z" fill="url(#color-94)" stroke="none" stroke-width="0" stroke-linecap="butt"/><path d="M218.93943,103.89241c2.58502,0.5849 8.86529,5.31696 8.53851,6.82c-0.32574,1.49835 -8.07157,3.12608 -10.65659,2.54118c-2.31716,-0.52429 -3.86009,-2.64337 -3.7337,-4.93874c0.0146,-0.26534 -3.42795,-1.64189 -3.36733,-1.90974c0.11417,-0.50459 3.78342,0.1364 4.0342,-0.28552c1.03394,-1.73957 3.10448,-2.6979 5.18491,-2.22718z" fill="url(#color-95)" stroke="none" stroke-width="0" stroke-linecap="butt"/><path d="M198.89242,98.05251c-2.46421,0.97576 -10.31929,0.61274 -10.89763,-0.81254c-0.57654,-1.42083 4.89988,-7.13539 7.36409,-8.11115c2.20888,-0.87466 4.67843,0.00423 5.86928,1.9706c0.13766,0.22731 3.75656,-0.57875 3.85766,-0.3234c0.19046,0.481 -3.20054,2.02226 -3.16951,2.51208c0.12796,2.0196 -1.0407,3.97911 -3.0239,4.76441z" fill="url(#color-96)" stroke="none" stroke-width="0" stroke-linecap="butt"/><path d="M204.1105,95.77691c-0.74872,-2.54241 0.32376,-10.33239 1.79553,-10.77936c1.46717,-0.44558 6.66263,5.52558 7.41135,8.06799c0.67114,2.27896 -0.42764,4.65883 -2.49372,5.66683c-0.23882,0.11653 0.23637,3.79351 -0.02707,3.87109c-0.49626,0.14615 -1.72429,-3.37042 -2.21491,-3.38385c-2.02289,-0.05535 -3.8686,-1.39656 -4.47118,-3.4427z" fill="url(#color-97)" stroke="none" stroke-width="0" stroke-linecap="butt"/><path d="M261.84829,83.80009c1.75851,-1.98295 8.93178,-5.20449 10.09117,-4.19367c1.15577,1.00764 -1.15175,8.57882 -2.91026,10.56177c-1.57628,1.77749 -4.17667,2.10787 -6.12685,0.89071c-0.22544,-0.14069 -3.09091,2.21198 -3.29637,2.02977c-0.38707,-0.34325 1.9432,-3.24912 1.69443,-3.67222c-1.02576,-1.74442 -0.86736,-4.02047 0.54789,-5.61635z" fill="url(#color-98)" stroke="none" stroke-width="0" stroke-linecap="butt"/><path d="M236.50843,139.8339c-2.58231,0.59673 -10.29505,-0.93554 -10.65401,-2.43122c-0.35783,-1.49101 5.91074,-6.32343 8.49305,-6.92015c2.31474,-0.53491 4.62532,0.70301 5.50909,2.82518c0.10217,0.24532 3.80084,-0.01111 3.86267,0.25646c0.11648,0.50406 -3.46669,1.52149 -3.50918,2.01047c-0.17513,2.01605 -1.62338,3.77902 -3.70163,4.25928z" fill="url(#color-99)" stroke="none" stroke-width="0" stroke-linecap="butt"/><path d="M237.34743,121.21959c1.75851,-1.98295 8.93177,-5.20449 10.09116,-4.19367c1.15577,1.00764 -1.15175,8.57882 -2.91026,10.56177c-1.57629,1.77749 -4.17667,2.10787 -6.12685,0.89071c-0.22545,-0.14069 -3.09092,2.21198 -3.29638,2.02976c-0.38707,-0.34325 1.94321,-3.24912 1.69443,-3.67222c-1.02576,-1.74442 -0.86736,-4.02047 0.54789,-5.61635z" fill="url(#color-100)" stroke="none" stroke-width="0" stroke-linecap="butt"/><path d="M248.8752,141.44858c-2.60207,-0.50363 -9.02748,-5.03664 -8.74796,-6.54918c0.27865,-1.50782 7.96969,-3.3774 10.57176,-2.87377c2.33245,0.45145 3.941,2.52115 3.88657,4.81936c-0.00629,0.26567 3.47769,1.5337 3.42551,1.80333c-0.0983,0.50791 -3.78584,-0.0178 -4.02328,0.41176c-0.97894,1.77111 -3.01843,2.79382 -5.1126,2.3885z" fill="url(#color-101)" stroke="none" stroke-width="0" stroke-linecap="butt"/><g stroke="none" stroke-width="0" stroke-linecap="butt"><path d="M154.10632,115.42334c-2.09884,-1.61844 -5.80447,-8.55402 -4.87552,-9.77997c0.92605,-1.22212 8.63759,0.56099 10.73642,2.17943c1.88136,1.45073 2.38921,4.02235 1.30858,6.05138c-0.12492,0.23455 2.41866,2.93201 2.25096,3.14949c-0.31591,0.40968 -3.3747,-1.71592 -3.77974,-1.43872c-1.66999,1.14292 -3.95154,1.14091 -5.64068,-0.16163z" fill="url(#color-102)"/><path d="M174.37919,110.69944c1.80176,-1.94374 9.04426,-5.00645 10.1811,-3.97036c1.1333,1.03286 -1.34046,8.55136 -3.14222,10.4951c-1.61506,1.74232 -4.22209,2.01535 -6.14499,0.75553c-0.22229,-0.14563 -3.13888,2.14336 -3.34028,1.95667c-0.3794,-0.3517 2.0143,-3.20554 1.7749,-3.63402c-0.98708,-1.76659 -0.77857,-4.0386 0.67149,-5.60292z" fill="url(#color-103)"/><path d="M163.7269,134.27253c-0.39073,2.62142 -4.64192,9.23666 -6.16511,9.02275c-1.51845,-0.21325 -3.71856,-7.81631 -3.32783,-10.43773c0.35025,-2.34978 2.34853,-4.04625 4.64694,-4.09116c0.26568,-0.00519 1.38201,-3.54071 1.65365,-3.50022c0.5117,0.07627 0.14578,3.78308 0.5852,4.00174c1.81175,0.90151 2.92162,2.8949 2.60716,5.00462z" fill="url(#color-104)"/><path d="M154.8979,127.97379c-2.57527,-0.62638 -8.77862,-5.45884 -8.42773,-6.95643c0.34979,-1.49291 8.12081,-2.99586 10.69608,-2.36948c2.30844,0.56148 3.81707,2.70511 3.65378,4.99814c-0.01887,0.26507 3.40109,1.6968 3.33618,1.96365c-0.12228,0.50268 -3.78073,-0.19722 -4.03827,0.22061c-1.06178,1.72272 -3.14746,2.64763 -5.22006,2.14351z" fill="url(#color-105)"/><path d="M172.747,118.40776c2.47958,0.93601 8.04677,6.48943 7.51573,7.933c-0.52939,1.43906 -8.42574,1.98237 -10.90532,1.04636c-2.22266,-0.83902 -3.45839,-3.15075 -3.01647,-5.40672c0.05109,-0.26078 -3.16858,-2.09922 -3.07159,-2.35614c0.18272,-0.484 3.72841,0.65718 4.03501,0.2739c1.2641,-1.58025 3.44706,-2.24371 5.44263,-1.4904z" fill="url(#color-106)"/><path d="M153.37615,121.45535c-1.15659,2.38468 -7.1911,7.4264 -8.58068,6.76688c-1.38524,-0.65746 -1.21164,-8.57057 -0.05505,-10.95525c1.03673,-2.13759 3.45083,-3.15904 5.65754,-2.51475c0.2551,0.07448 2.37738,-2.96557 2.62447,-2.84573c0.46548,0.22576 -0.99192,3.65363 -0.63798,3.99366c1.45935,1.40193 1.9225,3.63598 0.99168,5.55519z" fill="url(#color-107)"/><path d="M163.61551,103.25805c-0.39073,-2.62141 1.74645,-10.18887 3.26583,-10.42847c1.51463,-0.23885 5.8364,6.39212 6.22713,9.01352c0.35025,2.34977 -1.06645,4.55527 -3.25185,5.2685c-0.25262,0.08245 -0.28937,3.78983 -0.561,3.83032c-0.51168,0.07627 -1.2427,-3.57613 -1.72679,-3.65712c-1.99589,-0.33396 -3.63886,-1.91704 -3.95333,-4.02676z" fill="url(#color-108)"/><path d="M164.64684,108.85654c2.64601,-0.15187 9.98898,2.66145 10.09007,4.19628c0.10079,1.53003 -6.89411,5.23391 -9.54011,5.38578c-2.37184,0.13613 -4.44004,-1.47436 -4.95257,-3.71534c-0.05926,-0.25905 -3.74809,-0.63119 -3.76382,-0.90537c-0.02964,-0.51649 3.67391,-0.91392 3.7984,-1.38869c0.51323,-1.95749 2.23852,-3.45043 4.36804,-3.57265z" fill="url(#color-109)"/></g><path d="M325.53528,142.1524c-1.68914,1.30253 -3.97068,1.30454 -5.64069,0.16162c-0.40505,-0.2772 -3.46384,1.8484 -3.77974,1.43872c-0.1677,-0.21748 2.37588,-2.91494 2.25096,-3.14949c-1.08062,-2.02902 -0.57278,-4.60064 1.30858,-6.05139c2.09884,-1.61844 9.81037,-3.40155 10.73642,-2.17943c0.92895,1.22595 -2.77668,8.16154 -4.87552,9.77998z" data-paper-data="{&quot;index&quot;:null}" fill="url(#color-110)" stroke="none" stroke-width="0" stroke-linecap="butt"/><path d="M304.90196,161.92852c1.80176,-1.94373 9.04426,-5.00645 10.1811,-3.97035c1.13329,1.03286 -1.34046,8.55136 -3.14222,10.49509c-1.61506,1.74232 -4.22209,2.01535 -6.14498,0.75553c-0.22228,-0.14563 -3.13889,2.14336 -3.34029,1.95666c-0.37941,-0.3517 2.0143,-3.20555 1.7749,-3.63402c-0.98708,-1.76658 -0.77857,-4.0386 0.67149,-5.60292z" fill="url(#color-111)" stroke="none" stroke-width="0" stroke-linecap="butt"/><path d="M294.24967,185.50161c-0.39074,2.62142 -4.64191,9.23666 -6.16511,9.02275c-1.51846,-0.21325 -3.71857,-7.81632 -3.32783,-10.43772c0.35024,-2.34978 2.34853,-4.04625 4.64694,-4.09116c0.26569,-0.00519 1.38201,-3.54071 1.65364,-3.50022c0.51169,0.07628 0.14578,3.78309 0.5852,4.00174c1.81174,0.90151 2.92163,2.8949 2.60717,5.00461z" fill="url(#color-112)" stroke="none" stroke-width="0" stroke-linecap="butt"/><path d="M318.23789,155.70287c-2.07259,0.50412 -4.15828,-0.42079 -5.22006,-2.14351c-0.25752,-0.41782 -3.91599,0.28208 -4.03827,-0.22061c-0.06491,-0.26684 3.35505,-1.69858 3.33618,-1.96365c-0.16329,-2.29304 1.34535,-4.43667 3.65378,-4.99814c2.57527,-0.62638 10.34628,0.87656 10.69608,2.36948c0.35089,1.49759 -5.85246,6.33005 -8.42773,6.95643z" data-paper-data="{&quot;index&quot;:null}" fill="url(#color-113)" stroke="none" stroke-width="0" stroke-linecap="butt"/><path d="M303.26979,169.63684c2.47958,0.93601 8.04677,6.48943 7.51572,7.933c-0.5294,1.43906 -8.42574,1.98237 -10.90531,1.04636c-2.22264,-0.83902 -3.4584,-3.15075 -3.01647,-5.40672c0.05109,-0.26078 -3.16858,-2.09921 -3.07159,-2.35614c0.1827,-0.48401 3.72842,0.65719 4.03502,0.2739c1.2641,-1.58025 3.44706,-2.24371 5.44263,-1.4904z" fill="url(#color-114)" stroke="none" stroke-width="0" stroke-linecap="butt"/><path d="M283.89892,172.68442c-1.15659,2.38469 -7.19109,7.4264 -8.58067,6.76688c-1.38524,-0.65746 -1.21164,-8.57056 -0.05505,-10.95525c1.03674,-2.13759 3.45083,-3.15904 5.65755,-2.51475c0.25509,0.07449 2.37737,-2.96558 2.62447,-2.84573c0.46548,0.22575 -0.99192,3.65364 -0.63797,3.99366c1.45935,1.40193 1.92251,3.63599 0.99168,5.55519z" fill="url(#color-115)" stroke="none" stroke-width="0" stroke-linecap="butt"/><path d="M294.13829,154.48713c-0.39073,-2.62142 1.74645,-10.18887 3.26583,-10.42846c1.51463,-0.23884 5.8364,6.3921 6.22713,9.01351c0.35024,2.34977 -1.06646,4.55527 -3.25185,5.26852c-0.25263,0.08246 -0.28936,3.78983 -0.56099,3.83033c-0.51168,0.07628 -1.2427,-3.57612 -1.72679,-3.65713c-1.9959,-0.33396 -3.63887,-1.91703 -3.95333,-4.02676z" fill="url(#color-116)" stroke="none" stroke-width="0" stroke-linecap="butt"/><path d="M320.16961,121.58562c2.64601,-0.15187 9.98899,2.66145 10.09009,4.19628c0.10078,1.53003 -6.89411,5.2339 -9.54012,5.38578c-2.37183,0.13613 -4.44004,-1.47436 -4.95257,-3.71533c-0.05926,-0.25905 -3.74809,-0.63117 -3.76383,-0.90536c-0.02964,-0.51649 3.67391,-0.91393 3.7984,-1.3887c0.51322,-1.95749 2.23851,-3.45043 4.36803,-3.57266z" fill="url(#color-117)" stroke="none" stroke-width="0" stroke-linecap="butt"/><path d="M182.94279,200.28909c0,2.65037 -3.22946,9.82007 -4.76755,9.83306c-1.5333,0.01295 -4.83028,-7.18269 -4.83028,-9.83306c0,-2.37573 1.72635,-4.34827 3.99302,-4.73155c0.26201,-0.04431 0.84492,-3.70576 1.11954,-3.70576c0.51734,0 0.70192,3.72025 1.16878,3.87173c1.92486,0.62456 3.31648,2.43255 3.31648,4.56557z" fill="url(#color-118)" stroke="none" stroke-width="0" stroke-linecap="butt"/><path d="M249.32233,183.6196c-2.63948,-0.23988 -9.48748,-4.10498 -9.36121,-5.63795c0.12588,-1.52818 7.5904,-4.16036 10.22987,-3.92049c2.36599,0.21502 4.17417,2.11282 4.35073,4.40488c0.02041,0.26495 3.61408,1.17684 3.58922,1.45034c-0.04683,0.51522 -3.76851,0.36232 -3.96162,0.81356c-0.7962,1.86043 -2.72273,3.08271 -4.847,2.88966z" fill="url(#color-119)" stroke="none" stroke-width="0" stroke-linecap="butt"/><path d="M274.4947,177.66031c2.3145,-1.29133 10.14911,-1.96442 10.90985,-0.62757c0.75837,1.33268 -3.91902,7.71777 -6.23352,9.00911c-2.07467,1.15753 -4.63836,0.61102 -6.07745,-1.18167c-0.16636,-0.20723 -3.64782,1.0677 -3.78163,0.82788c-0.25207,-0.45179 2.90682,-2.42557 2.81164,-2.90707c-0.39243,-1.98524 0.50839,-4.0814 2.3711,-5.12068z" fill="url(#color-120)" stroke="none" stroke-width="0" stroke-linecap="butt"/><path d="M274.89813,188.49832c1.07656,2.42187 1.0378,10.28524 -0.36242,10.92187c-1.39585,0.63464 -7.33139,-4.60145 -8.40795,-7.02332c-0.96501,-2.17092 -0.18871,-4.67462 1.72687,-5.94555c0.22143,-0.14693 -0.73316,-3.72949 -0.48222,-3.84104c0.47274,-0.21014 2.15252,3.11441 2.64066,3.0632c2.0126,-0.21114 4.01865,0.87571 4.88507,2.82484z" fill="url(#color-121)" stroke="none" stroke-width="0" stroke-linecap="butt"/><path d="M256.42326,180.20506c-0.77292,-2.53516 0.22525,-10.33501 1.69269,-10.79598c1.46287,-0.45954 6.715,5.46183 7.48792,7.99698c0.69284,2.27247 -0.38322,4.6627 -2.43959,5.69035c-0.23771,0.1188 0.27252,3.79108 0.00982,3.87117c-0.49485,0.15087 -1.75633,-3.35384 -2.24707,-3.36259c-2.02332,-0.03607 -3.88173,-1.35962 -4.50377,-3.39992z" fill="url(#color-122)" stroke="none" stroke-width="0" stroke-linecap="butt"/><path d="M257.07585,155.13989c2.63417,0.2926 9.40353,4.29381 9.24663,5.82394c-0.15641,1.52535 -7.67203,4.00779 -10.3062,3.71521c-2.36121,-0.26227 -4.1311,-2.19582 -4.2618,-4.49095c-0.01511,-0.26531 -3.58984,-1.24886 -3.55951,-1.52181c0.05712,-0.51417 3.77499,-0.28691 3.97709,-0.73419c0.83325,-1.84415 2.78381,-3.02768 4.9038,-2.7922z" fill="url(#color-123)" stroke="none" stroke-width="0" stroke-linecap="butt"/><path d="M211.0023,203.18744c-1.8373,1.91018 -9.13506,4.83881 -10.2526,3.78192c-1.11406,-1.05359 1.49794,-8.5252 3.33524,-10.43537c1.64691,-1.71224 4.25854,-1.93714 6.15788,-0.64206c0.21956,0.14971 3.17787,-2.0851 3.3758,-1.89472c0.37286,0.35864 -2.07308,3.16785 -1.84161,3.60067c0.95433,1.78449 0.70396,4.05226 -0.77471,5.58957z" fill="url(#color-124)" stroke="none" stroke-width="0" stroke-linecap="butt"/><path d="M253.80597,192.45203c-1.73604,-2.00264 -3.99215,-9.53551 -2.83846,-10.55281c1.15009,-1.01412 8.35462,2.26338 10.09067,4.26602c1.55616,1.79513 1.54376,4.4164 0.08209,6.19071c-0.16897,0.20511 1.78893,3.35356 1.58142,3.53343c-0.39091,0.33887 -2.96721,-2.35128 -3.4192,-2.15995c-1.86354,0.7889 -4.09934,0.33432 -5.49652,-1.27742z" fill="url(#color-125)" stroke="none" stroke-width="0" stroke-linecap="butt"/><path d="M226.84414,82.43773c2.64165,-0.21471 10.04942,2.42331 10.18696,3.9553c0.13711,1.5272 -6.76778,5.39627 -9.40944,5.61098c-2.36793,0.19246 -4.47382,-1.36841 -5.03946,-3.59659c-0.06538,-0.25757 -3.76205,-0.54193 -3.78429,-0.81566c-0.04191,-0.51565 3.65116,-1.00099 3.76433,-1.47858c0.46658,-1.96912 2.15589,-3.50264 4.28189,-3.67544z" fill="url(#color-126)" stroke="none" stroke-width="0" stroke-linecap="butt"/><path d="M261.0093,102.41441c-2.58231,0.59673 -10.29505,-0.93554 -10.65401,-2.43122c-0.35783,-1.49102 5.91075,-6.32344 8.49306,-6.92016c2.31473,-0.5349 4.62531,0.70302 5.50909,2.82519c0.10217,0.24532 3.80084,-0.01112 3.86267,0.25646c0.11647,0.50406 -3.46668,1.5215 -3.50917,2.01047c-0.17513,2.01605 -1.62338,3.77903 -3.70164,4.25928z" fill="url(#color-127)" stroke="none" stroke-width="0" stroke-linecap="butt"/><path d="M238.45676,91.82811c1.56755,-2.1371 8.41214,-6.00826 9.66004,-5.10902c1.24402,0.89643 -0.35337,8.64856 -1.92093,10.78566c-1.40513,1.91567 -3.96381,2.48513 -6.01821,1.45356c-0.23749,-0.11925 -2.87306,2.48838 -3.0945,2.32596c-0.41716,-0.30599 1.63435,-3.41493 1.34751,-3.8132c-1.18269,-1.64205 -1.23549,-3.92301 0.02609,-5.64295z" fill="url(#color-128)" stroke="none" stroke-width="0" stroke-linecap="butt"/><path d="M227.09683,102.57917c-2.16854,-1.52378 -6.17811,-8.2882 -5.30445,-9.55414c0.87094,-1.26199 8.65397,0.17739 10.82251,1.70116c1.94384,1.36588 2.56525,3.91245 1.57567,5.98739c-0.1144,0.23986 2.54631,2.82187 2.38842,3.04657c-0.29743,0.42329 -3.44747,-1.56457 -3.83982,-1.26968c-1.61767,1.21585 -3.89706,1.31502 -5.64232,0.08868z" fill="url(#color-129)" stroke="none" stroke-width="0" stroke-linecap="butt"/><path d="M230.274,114.21984c-2.64398,-0.18395 -9.57226,-3.90322 -9.47846,-5.43851c0.0935,-1.5305 7.50062,-4.32011 10.14459,-4.13616c2.37001,0.16488 4.21796,2.02398 4.44299,4.31177c0.02602,0.26447 3.63819,1.10008 3.61912,1.37404c-0.03591,0.5161 -3.75999,0.44202 -3.9435,0.89723c-0.75665,1.87687 -2.65686,3.13967 -4.78474,2.99162z" fill="url(#color-130)" stroke="none" stroke-width="0" stroke-linecap="butt"/><path d="M224.79568,116.77445c1.56755,-2.1371 8.41214,-6.00826 9.66004,-5.10903c1.24402,0.89643 -0.35337,8.64856 -1.92093,10.78566c-1.40513,1.91567 -3.96381,2.48513 -6.0182,1.45357c-0.23749,-0.11925 -2.87306,2.48837 -3.0945,2.32595c-0.41716,-0.30599 1.63436,-3.41492 1.34751,-3.81319c-1.18269,-1.64205 -1.2355,-3.92301 0.02608,-5.64295z" fill="url(#color-131)" stroke="none" stroke-width="0" stroke-linecap="butt"/><path d="M213.43575,127.52551c-2.16854,-1.52378 -6.17811,-8.2882 -5.30444,-9.55414c0.87094,-1.26199 8.65397,0.17739 10.82251,1.70115c1.94384,1.36588 2.56525,3.91245 1.57566,5.9874c-0.1144,0.23986 2.54631,2.82187 2.38842,3.04657c-0.29744,0.42329 -3.44747,-1.56457 -3.83982,-1.26968c-1.61766,1.21585 -3.89707,1.31502 -5.64232,0.08869z" fill="url(#color-132)" stroke="none" stroke-width="0" stroke-linecap="butt"/><path d="M194.93337,138.57221c-2.64398,-0.18394 -9.57226,-3.90322 -9.47846,-5.43851c0.0935,-1.5305 7.50062,-4.32012 10.14459,-4.13617c2.37001,0.16488 4.21796,2.02398 4.44299,4.31178c0.02602,0.26447 3.63818,1.10008 3.61913,1.37405c-0.03591,0.5161 -3.76,0.44201 -3.94351,0.89723c-0.75665,1.87688 -2.65686,3.13967 -4.78474,2.99162z" fill="url(#color-133)" stroke="none" stroke-width="0" stroke-linecap="butt"/><path d="M219.09081,287.71759l-1.32748,0.12682c0,0 -0.90381,-1.20325 -0.49537,-1.62055c0.4228,-0.43196 -0.1661,-1.38442 -1.03898,-5.27478c-0.77572,-3.45739 0.96545,1.78279 1.44855,2.45135c1.19376,1.6521 0.578,2.44133 1.02794,2.29374c0.49357,-0.1619 -0.03675,-5.33044 0.52641,-7.3776c0.21111,-0.76736 0.53765,6.52816 0.90652,6.23723c0.9776,-0.77103 1.25171,-6.97277 1.75672,-4.67037c0.72206,3.29194 -1.07986,6.9098 -1.07986,6.9098z" data-paper-data="{&quot;index&quot;:null}" fill="url(#color-134)" stroke="#000000" stroke-width="0.5" stroke-linecap="butt"/><path d="M214.89595,287.6c0,1.32548 1.61177,0.6 3.6,0.6c1.98823,0 5,-1.67452 5,-3c0,-1.32548 -2.41177,0.6 -4.4,0.6c-1.98823,0 -4.2,0.47452 -4.2,1.8z" fill="url(#color-135)" stroke="none" stroke-width="0" stroke-linecap="butt"/><path d="M237.49595,284.1c0,-1.29365 1.3867,-1.19453 2.669,-1.92878c1.07168,-0.61365 1.94983,-2.17122 3.031,-2.17122c2.37482,0 2.9,1.32518 2.9,3.7c0,2.37482 -2.32518,2.5 -4.7,2.5c-2.37482,0 -3.9,0.27482 -3.9,-2.1z" fill="url(#color-136)" stroke="#000000" stroke-width="1" stroke-linecap="butt"/></g></g></svg>