<svg version="1.1" xmlns="http://www.w3.org/2000/svg" xmlns:xlink="http://www.w3.org/1999/xlink" width="182.41539" height="223.42578" viewBox="0,0,182.41539,223.42578"><defs><linearGradient x1="220.57319" y1="270.88572" x2="220.57319" y2="276.04435" gradientUnits="userSpaceOnUse" id="color-1"><stop offset="0" stop-color="#bfbfbf"/><stop offset="1" stop-color="#7d7d7d"/></linearGradient><linearGradient x1="268.35807" y1="249.75528" x2="263.64129" y2="268.26391" gradientUnits="userSpaceOnUse" id="color-2"><stop offset="0" stop-color="#41cb1e"/><stop offset="1" stop-color="#287d13"/></linearGradient><linearGradient x1="245.79925" y1="59.16893" x2="245.79925" y2="199.03648" gradientUnits="userSpaceOnUse" id="color-3"><stop offset="0" stop-color="#4caf33"/><stop offset="1" stop-color="#309516"/></linearGradient><linearGradient x1="255.41836" y1="112.16922" x2="255.41836" y2="287.98994" gradientUnits="userSpaceOnUse" id="color-4"><stop offset="0" stop-color="#c47c00"/><stop offset="1" stop-color="#643f00"/></linearGradient><linearGradient x1="218.49595" y1="285.2" x2="218.49595" y2="290.00003" gradientUnits="userSpaceOnUse" id="color-5"><stop offset="0" stop-color="#643f00"/><stop offset="1" stop-color="#684201"/></linearGradient><linearGradient x1="242.63495" y1="251.07881" x2="243.07658" y2="270.17389" gradientUnits="userSpaceOnUse" id="color-6"><stop offset="0" stop-color="#41cb1e"/><stop offset="1" stop-color="#287d13"/></linearGradient><linearGradient x1="259.41566" y1="263.78842" x2="259.41566" y2="269.10092" gradientUnits="userSpaceOnUse" id="color-7"><stop offset="0" stop-color="#bfbfbf"/><stop offset="1" stop-color="#7d7d7d"/></linearGradient><linearGradient x1="248.98429" y1="150.4336" x2="248.98429" y2="140.83577" gradientUnits="userSpaceOnUse" id="color-8"><stop offset="0" stop-color="#52d930"/><stop offset="1" stop-color="#4ba634"/></linearGradient><linearGradient x1="233.31787" y1="127.25164" x2="242.8763" y2="128.12033" gradientUnits="userSpaceOnUse" id="color-9"><stop offset="0" stop-color="#52d930"/><stop offset="1" stop-color="#4ba634"/></linearGradient><linearGradient x1="269.36406" y1="128.35851" x2="260.98252" y2="133.03482" gradientUnits="userSpaceOnUse" id="color-10"><stop offset="0" stop-color="#52d930"/><stop offset="1" stop-color="#4ba634"/></linearGradient><linearGradient x1="260.80263" y1="143.67839" x2="256.90408" y2="134.90802" gradientUnits="userSpaceOnUse" id="color-11"><stop offset="0" stop-color="#52d930"/><stop offset="1" stop-color="#4ba634"/></linearGradient><linearGradient x1="247.95448" y1="123.06083" x2="250.75348" y2="132.24147" gradientUnits="userSpaceOnUse" id="color-12"><stop offset="0" stop-color="#52d930"/><stop offset="1" stop-color="#4ba634"/></linearGradient><linearGradient x1="264.68227" y1="146.24932" x2="255.286" y2="148.20592" gradientUnits="userSpaceOnUse" id="color-13"><stop offset="0" stop-color="#52d930"/><stop offset="1" stop-color="#4ba634"/></linearGradient><linearGradient x1="231.5573" y1="145.665" x2="238.21075" y2="138.74765" gradientUnits="userSpaceOnUse" id="color-14"><stop offset="0" stop-color="#52d930"/><stop offset="1" stop-color="#4ba634"/></linearGradient><linearGradient x1="242.62911" y1="134.52814" x2="248.91589" y2="141.78034" gradientUnits="userSpaceOnUse" id="color-15"><stop offset="0" stop-color="#52d930"/><stop offset="1" stop-color="#4ba634"/></linearGradient><linearGradient x1="304.0566" y1="166.26202" x2="296.86422" y2="159.90688" gradientUnits="userSpaceOnUse" id="color-16"><stop offset="0" stop-color="#52d930"/><stop offset="1" stop-color="#4ba634"/></linearGradient><linearGradient x1="276.31117" y1="162.6523" x2="283.29119" y2="156.06461" gradientUnits="userSpaceOnUse" id="color-17"><stop offset="0" stop-color="#52d930"/><stop offset="1" stop-color="#4ba634"/></linearGradient><linearGradient x1="301.00837" y1="136.37301" x2="298.96292" y2="145.75034" gradientUnits="userSpaceOnUse" id="color-18"><stop offset="0" stop-color="#52d930"/><stop offset="1" stop-color="#4ba634"/></linearGradient><linearGradient x1="306.81983" y1="152.9327" x2="297.66612" y2="150.04693" gradientUnits="userSpaceOnUse" id="color-19"><stop offset="0" stop-color="#52d930"/><stop offset="1" stop-color="#4ba634"/></linearGradient><linearGradient x1="282.86221" y1="148.90906" x2="291.5953" y2="152.89043" gradientUnits="userSpaceOnUse" id="color-20"><stop offset="0" stop-color="#52d930"/><stop offset="1" stop-color="#4ba634"/></linearGradient><linearGradient x1="311.31532" y1="151.7277" x2="306.55989" y2="160.0646" gradientUnits="userSpaceOnUse" id="color-21"><stop offset="0" stop-color="#52d930"/><stop offset="1" stop-color="#4ba634"/></linearGradient><linearGradient x1="288.94396" y1="176.16391" x2="288.16578" y2="166.59768" gradientUnits="userSpaceOnUse" id="color-22"><stop offset="0" stop-color="#52d930"/><stop offset="1" stop-color="#4ba634"/></linearGradient><linearGradient x1="287.92938" y1="160.49275" x2="297.52678" y2="160.58359" gradientUnits="userSpaceOnUse" id="color-23"><stop offset="0" stop-color="#52d930"/><stop offset="1" stop-color="#4ba634"/></linearGradient><linearGradient x1="221.96193" y1="76.31216" x2="217.586" y2="84.85437" gradientUnits="userSpaceOnUse" id="color-24"><stop offset="0" stop-color="#52d930"/><stop offset="1" stop-color="#4ba634"/></linearGradient><linearGradient x1="225.33594" y1="104.08723" x2="217.22485" y2="98.95611" gradientUnits="userSpaceOnUse" id="color-25"><stop offset="0" stop-color="#52d930"/><stop offset="1" stop-color="#4ba634"/></linearGradient><linearGradient x1="193.75894" y1="86.66757" x2="203.35071" y2="86.32695" gradientUnits="userSpaceOnUse" id="color-26"><stop offset="0" stop-color="#52d930"/><stop offset="1" stop-color="#4ba634"/></linearGradient><linearGradient x1="208.36353" y1="76.93606" x2="207.83461" y2="86.51929" gradientUnits="userSpaceOnUse" id="color-27"><stop offset="0" stop-color="#52d930"/><stop offset="1" stop-color="#4ba634"/></linearGradient><linearGradient x1="210.39843" y1="101.14385" x2="212.09298" y2="91.69679" gradientUnits="userSpaceOnUse" id="color-28"><stop offset="0" stop-color="#52d930"/><stop offset="1" stop-color="#4ba634"/></linearGradient><linearGradient x1="206.08275" y1="72.87904" x2="215.33765" y2="75.42169" gradientUnits="userSpaceOnUse" id="color-29"><stop offset="0" stop-color="#52d930"/><stop offset="1" stop-color="#4ba634"/></linearGradient><linearGradient x1="235.29808" y1="88.50177" x2="226.22258" y2="91.62482" gradientUnits="userSpaceOnUse" id="color-30"><stop offset="0" stop-color="#52d930"/><stop offset="1" stop-color="#4ba634"/></linearGradient><linearGradient x1="220.36636" y1="93.36577" x2="218.07755" y2="84.04487" gradientUnits="userSpaceOnUse" id="color-31"><stop offset="0" stop-color="#52d930"/><stop offset="1" stop-color="#4ba634"/></linearGradient><linearGradient x1="174.8363" y1="165.50662" x2="183.64586" y2="161.69744" gradientUnits="userSpaceOnUse" id="color-32"><stop offset="0" stop-color="#52d930"/><stop offset="1" stop-color="#4ba634"/></linearGradient><linearGradient x1="189.89668" y1="141.92645" x2="192.89288" y2="151.04461" gradientUnits="userSpaceOnUse" id="color-33"><stop offset="0" stop-color="#52d930"/><stop offset="1" stop-color="#4ba634"/></linearGradient><linearGradient x1="203.18668" y1="175.45148" x2="195.56796" y2="169.61425" gradientUnits="userSpaceOnUse" id="color-34"><stop offset="0" stop-color="#52d930"/><stop offset="1" stop-color="#4ba634"/></linearGradient><linearGradient x1="185.72716" y1="173.67333" x2="192.22999" y2="166.61419" gradientUnits="userSpaceOnUse" id="color-35"><stop offset="0" stop-color="#52d930"/><stop offset="1" stop-color="#4ba634"/></linearGradient><linearGradient x1="199.55224" y1="153.69772" x2="192.23648" y2="159.91045" gradientUnits="userSpaceOnUse" id="color-36"><stop offset="0" stop-color="#52d930"/><stop offset="1" stop-color="#4ba634"/></linearGradient><linearGradient x1="184.90713" y1="178.2547" x2="179.38203" y2="170.40666" gradientUnits="userSpaceOnUse" id="color-37"><stop offset="0" stop-color="#52d930"/><stop offset="1" stop-color="#4ba634"/></linearGradient><linearGradient x1="172.29686" y1="147.61834" x2="181.28671" y2="150.98" gradientUnits="userSpaceOnUse" id="color-38"><stop offset="0" stop-color="#52d930"/><stop offset="1" stop-color="#4ba634"/></linearGradient><linearGradient x1="186.91323" y1="153.36085" x2="182.75172" y2="162.00954" gradientUnits="userSpaceOnUse" id="color-39"><stop offset="0" stop-color="#52d930"/><stop offset="1" stop-color="#4ba634"/></linearGradient><linearGradient x1="317.87712" y1="114.58621" x2="313.50119" y2="123.12843" gradientUnits="userSpaceOnUse" id="color-40"><stop offset="0" stop-color="#52d930"/><stop offset="1" stop-color="#4ba634"/></linearGradient><linearGradient x1="321.25113" y1="142.3613" x2="313.14003" y2="137.2302" gradientUnits="userSpaceOnUse" id="color-41"><stop offset="0" stop-color="#52d930"/><stop offset="1" stop-color="#4ba634"/></linearGradient><linearGradient x1="289.67412" y1="124.94163" x2="299.2659" y2="124.60103" gradientUnits="userSpaceOnUse" id="color-42"><stop offset="0" stop-color="#52d930"/><stop offset="1" stop-color="#4ba634"/></linearGradient><linearGradient x1="304.27871" y1="115.21012" x2="303.7498" y2="124.79336" gradientUnits="userSpaceOnUse" id="color-43"><stop offset="0" stop-color="#52d930"/><stop offset="1" stop-color="#4ba634"/></linearGradient><linearGradient x1="306.31362" y1="139.4179" x2="308.00817" y2="129.97087" gradientUnits="userSpaceOnUse" id="color-44"><stop offset="0" stop-color="#52d930"/><stop offset="1" stop-color="#4ba634"/></linearGradient><linearGradient x1="301.99793" y1="111.1531" x2="311.25284" y2="113.69574" gradientUnits="userSpaceOnUse" id="color-45"><stop offset="0" stop-color="#52d930"/><stop offset="1" stop-color="#4ba634"/></linearGradient><linearGradient x1="331.21326" y1="126.77584" x2="322.13776" y2="129.89889" gradientUnits="userSpaceOnUse" id="color-46"><stop offset="0" stop-color="#52d930"/><stop offset="1" stop-color="#4ba634"/></linearGradient><linearGradient x1="316.28155" y1="131.63984" x2="313.99272" y2="122.31892" gradientUnits="userSpaceOnUse" id="color-47"><stop offset="0" stop-color="#52d930"/><stop offset="1" stop-color="#4ba634"/></linearGradient><linearGradient x1="131.47976" y1="23.60433" x2="128.8106" y2="32.8235" gradientUnits="userSpaceOnUse" id="color-48"><stop offset="0" stop-color="#52d930"/><stop offset="1" stop-color="#4ba634"/></linearGradient><linearGradient x1="316.21016" y1="158.11674" x2="313.21171" y2="148.99931" gradientUnits="userSpaceOnUse" id="color-49"><stop offset="0" stop-color="#52d930"/><stop offset="1" stop-color="#4ba634"/></linearGradient><linearGradient x1="110.12961" y1="47.46686" x2="119.481" y2="45.30592" gradientUnits="userSpaceOnUse" id="color-50"><stop offset="0" stop-color="#52d930"/><stop offset="1" stop-color="#4ba634"/></linearGradient><linearGradient x1="132.81292" y1="38.77058" x2="123.2677" y2="39.77405" gradientUnits="userSpaceOnUse" id="color-51"><stop offset="0" stop-color="#52d930"/><stop offset="1" stop-color="#4ba634"/></linearGradient><linearGradient x1="106.8683" y1="50.78729" x2="106.73285" y2="41.19042" gradientUnits="userSpaceOnUse" id="color-52"><stop offset="0" stop-color="#52d930"/><stop offset="1" stop-color="#4ba634"/></linearGradient><linearGradient x1="278.12967" y1="126.65049" x2="279.82099" y2="136.09813" gradientUnits="userSpaceOnUse" id="color-53"><stop offset="0" stop-color="#52d930"/><stop offset="1" stop-color="#4ba634"/></linearGradient><linearGradient x1="122.56652" y1="32.69962" x2="114.2518" y2="37.49378" gradientUnits="userSpaceOnUse" id="color-54"><stop offset="0" stop-color="#52d930"/><stop offset="1" stop-color="#4ba634"/></linearGradient><linearGradient x1="196.38392" y1="104.11628" x2="205.80687" y2="105.94008" gradientUnits="userSpaceOnUse" id="color-55"><stop offset="0" stop-color="#52d930"/><stop offset="1" stop-color="#4ba634"/></linearGradient><linearGradient x1="145.28933" y1="36.07746" x2="142.62017" y2="45.29669" gradientUnits="userSpaceOnUse" id="color-56"><stop offset="0" stop-color="#52d930"/><stop offset="1" stop-color="#4ba634"/></linearGradient><linearGradient x1="135.12572" y1="42.30101" x2="132.12726" y2="33.18357" gradientUnits="userSpaceOnUse" id="color-57"><stop offset="0" stop-color="#52d930"/><stop offset="1" stop-color="#4ba634"/></linearGradient><linearGradient x1="301.43318" y1="134.4648" x2="292.35875" y2="131.33861" gradientUnits="userSpaceOnUse" id="color-58"><stop offset="0" stop-color="#52d930"/><stop offset="1" stop-color="#4ba634"/></linearGradient><linearGradient x1="268.34616" y1="130.32261" x2="272.28079" y2="121.56836" gradientUnits="userSpaceOnUse" id="color-59"><stop offset="0" stop-color="#52d930"/><stop offset="1" stop-color="#4ba634"/></linearGradient><linearGradient x1="266.69011" y1="109.02458" x2="268.38144" y2="118.47218" gradientUnits="userSpaceOnUse" id="color-60"><stop offset="0" stop-color="#52d930"/><stop offset="1" stop-color="#4ba634"/></linearGradient><linearGradient x1="290.89178" y1="115.96592" x2="281.32984" y2="116.79522" gradientUnits="userSpaceOnUse" id="color-61"><stop offset="0" stop-color="#52d930"/><stop offset="1" stop-color="#4ba634"/></linearGradient><linearGradient x1="287.40051" y1="162.28325" x2="277.9756" y2="164.09688" gradientUnits="userSpaceOnUse" id="color-62"><stop offset="0" stop-color="#52d930"/><stop offset="1" stop-color="#4ba634"/></linearGradient><linearGradient x1="276.59656" y1="174.5479" x2="275.6434" y2="164.99755" gradientUnits="userSpaceOnUse" id="color-63"><stop offset="0" stop-color="#52d930"/><stop offset="1" stop-color="#4ba634"/></linearGradient><linearGradient x1="266.82531" y1="179.65875" x2="270.52218" y2="188.51601" gradientUnits="userSpaceOnUse" id="color-64"><stop offset="0" stop-color="#52d930"/><stop offset="1" stop-color="#4ba634"/></linearGradient><linearGradient x1="285.98249" y1="162.52947" x2="291.9161" y2="154.98555" gradientUnits="userSpaceOnUse" id="color-65"><stop offset="0" stop-color="#52d930"/><stop offset="1" stop-color="#4ba634"/></linearGradient><linearGradient x1="189.09644" y1="98.32446" x2="189.4402" y2="107.91612" gradientUnits="userSpaceOnUse" id="color-66"><stop offset="0" stop-color="#52d930"/><stop offset="1" stop-color="#4ba634"/></linearGradient><linearGradient x1="205.5831" y1="120.93041" x2="195.99968" y2="120.40465" gradientUnits="userSpaceOnUse" id="color-67"><stop offset="0" stop-color="#52d930"/><stop offset="1" stop-color="#4ba634"/></linearGradient><linearGradient x1="169.52038" y1="121.11531" x2="177.72906" y2="116.14179" gradientUnits="userSpaceOnUse" id="color-68"><stop offset="0" stop-color="#52d930"/><stop offset="1" stop-color="#4ba634"/></linearGradient><linearGradient x1="177.52763" y1="105.49863" x2="181.73778" y2="114.12374" gradientUnits="userSpaceOnUse" id="color-69"><stop offset="0" stop-color="#52d930"/><stop offset="1" stop-color="#4ba634"/></linearGradient><linearGradient x1="191.10598" y1="125.64276" x2="187.97996" y2="116.56828" gradientUnits="userSpaceOnUse" id="color-70"><stop offset="0" stop-color="#52d930"/><stop offset="1" stop-color="#4ba634"/></linearGradient><linearGradient x1="173.55839" y1="103.0683" x2="182.87855" y2="100.77641" gradientUnits="userSpaceOnUse" id="color-71"><stop offset="0" stop-color="#52d930"/><stop offset="1" stop-color="#4ba634"/></linearGradient><linearGradient x1="206.68304" y1="102.46582" x2="200.28161" y2="109.61705" gradientUnits="userSpaceOnUse" id="color-72"><stop offset="0" stop-color="#52d930"/><stop offset="1" stop-color="#4ba634"/></linearGradient><linearGradient x1="196.01721" y1="113.9921" x2="189.47472" y2="106.9697" gradientUnits="userSpaceOnUse" id="color-73"><stop offset="0" stop-color="#52d930"/><stop offset="1" stop-color="#4ba634"/></linearGradient><linearGradient x1="256.08333" y1="186.77624" x2="262.33092" y2="179.49024" gradientUnits="userSpaceOnUse" id="color-74"><stop offset="0" stop-color="#52d930"/><stop offset="1" stop-color="#4ba634"/></linearGradient><linearGradient x1="58.53798" y1="83.19294" x2="48.95457" y2="82.66719" gradientUnits="userSpaceOnUse" id="color-75"><stop offset="0" stop-color="#52d930"/><stop offset="1" stop-color="#4ba634"/></linearGradient><linearGradient x1="50.18666" y1="74.69079" x2="58.39533" y2="69.71725" gradientUnits="userSpaceOnUse" id="color-76"><stop offset="0" stop-color="#52d930"/><stop offset="1" stop-color="#4ba634"/></linearGradient><linearGradient x1="87.30517" y1="38.63365" x2="91.51533" y2="47.25878" gradientUnits="userSpaceOnUse" id="color-77"><stop offset="0" stop-color="#52d930"/><stop offset="1" stop-color="#4ba634"/></linearGradient><linearGradient x1="269.54591" y1="170.9711" x2="266.41987" y2="161.89661" gradientUnits="userSpaceOnUse" id="color-78"><stop offset="0" stop-color="#52d930"/><stop offset="1" stop-color="#4ba634"/></linearGradient><linearGradient x1="59.76443" y1="43.01974" x2="69.0846" y2="40.72785" gradientUnits="userSpaceOnUse" id="color-79"><stop offset="0" stop-color="#52d930"/><stop offset="1" stop-color="#4ba634"/></linearGradient><linearGradient x1="69.1391" y1="29.94975" x2="78.14092" y2="33.27922" gradientUnits="userSpaceOnUse" id="color-80"><stop offset="0" stop-color="#52d930"/><stop offset="1" stop-color="#4ba634"/></linearGradient><linearGradient x1="84.96077" y1="51.93959" x2="78.41827" y2="44.9172" gradientUnits="userSpaceOnUse" id="color-81"><stop offset="0" stop-color="#52d930"/><stop offset="1" stop-color="#4ba634"/></linearGradient><linearGradient x1="217.35665" y1="191.4662" x2="215.71882" y2="182.00916" gradientUnits="userSpaceOnUse" id="color-82"><stop offset="0" stop-color="#52d930"/><stop offset="1" stop-color="#4ba634"/></linearGradient><linearGradient x1="197.96412" y1="171.29768" x2="207.5306" y2="170.52251" gradientUnits="userSpaceOnUse" id="color-83"><stop offset="0" stop-color="#52d930"/><stop offset="1" stop-color="#4ba634"/></linearGradient><linearGradient x1="227.84891" y1="182.79334" x2="222.51092" y2="174.81686" gradientUnits="userSpaceOnUse" id="color-84"><stop offset="0" stop-color="#52d930"/><stop offset="1" stop-color="#4ba634"/></linearGradient><linearGradient x1="211.6709" y1="164.67067" x2="215.99548" y2="173.239" gradientUnits="userSpaceOnUse" id="color-85"><stop offset="0" stop-color="#52d930"/><stop offset="1" stop-color="#4ba634"/></linearGradient><linearGradient x1="48.86292" y1="92.21753" x2="44.25504" y2="83.79815" gradientUnits="userSpaceOnUse" id="color-86"><stop offset="0" stop-color="#52d930"/><stop offset="1" stop-color="#4ba634"/></linearGradient><linearGradient x1="199.37154" y1="189.74138" x2="204.74698" y2="181.79011" gradientUnits="userSpaceOnUse" id="color-87"><stop offset="0" stop-color="#52d930"/><stop offset="1" stop-color="#4ba634"/></linearGradient><linearGradient x1="208.38049" y1="176.87851" x2="215.81262" y2="182.95154" gradientUnits="userSpaceOnUse" id="color-88"><stop offset="0" stop-color="#52d930"/><stop offset="1" stop-color="#4ba634"/></linearGradient><linearGradient x1="234.28156" y1="92.67665" x2="241.58223" y2="86.44619" gradientUnits="userSpaceOnUse" id="color-89"><stop offset="0" stop-color="#52d930"/><stop offset="1" stop-color="#4ba634"/></linearGradient><linearGradient x1="241.7452" y1="65.71124" x2="247.28931" y2="73.54584" gradientUnits="userSpaceOnUse" id="color-90"><stop offset="0" stop-color="#52d930"/><stop offset="1" stop-color="#4ba634"/></linearGradient><linearGradient x1="247.09187" y1="97.28121" x2="251.23238" y2="88.62241" gradientUnits="userSpaceOnUse" id="color-91"><stop offset="0" stop-color="#52d930"/><stop offset="1" stop-color="#4ba634"/></linearGradient><linearGradient x1="254.43436" y1="74.1242" x2="249.26802" y2="82.21293" gradientUnits="userSpaceOnUse" id="color-92"><stop offset="0" stop-color="#52d930"/><stop offset="1" stop-color="#4ba634"/></linearGradient><linearGradient x1="247.65477" y1="101.90119" x2="240.06684" y2="96.024" gradientUnits="userSpaceOnUse" id="color-93"><stop offset="0" stop-color="#52d930"/><stop offset="1" stop-color="#4ba634"/></linearGradient><linearGradient x1="226.59606" y1="76.32513" x2="236.1769" y2="76.89571" gradientUnits="userSpaceOnUse" id="color-94"><stop offset="0" stop-color="#52d930"/><stop offset="1" stop-color="#4ba634"/></linearGradient><linearGradient x1="242.2547" y1="77.51746" x2="240.81932" y2="87.00734" gradientUnits="userSpaceOnUse" id="color-95"><stop offset="0" stop-color="#52d930"/><stop offset="1" stop-color="#4ba634"/></linearGradient><linearGradient x1="300.49053" y1="97.59728" x2="291.68361" y2="101.41254" gradientUnits="userSpaceOnUse" id="color-96"><stop offset="0" stop-color="#52d930"/><stop offset="1" stop-color="#4ba634"/></linearGradient><linearGradient x1="83.84686" y1="35.43916" x2="93.19826" y2="33.27823" gradientUnits="userSpaceOnUse" id="color-97"><stop offset="0" stop-color="#52d930"/><stop offset="1" stop-color="#4ba634"/></linearGradient><linearGradient x1="97.21654" y1="20.01367" x2="90.84844" y2="27.19458" gradientUnits="userSpaceOnUse" id="color-98"><stop offset="0" stop-color="#52d930"/><stop offset="1" stop-color="#4ba634"/></linearGradient><linearGradient x1="98.17023" y1="35.02566" x2="107.59318" y2="36.84948" gradientUnits="userSpaceOnUse" id="color-99"><stop offset="0" stop-color="#52d930"/><stop offset="1" stop-color="#4ba634"/></linearGradient><linearGradient x1="159.77319" y1="136.91246" x2="169.3551" y2="137.4648" gradientUnits="userSpaceOnUse" id="color-100"><stop offset="0" stop-color="#52d930"/><stop offset="1" stop-color="#4ba634"/></linearGradient><linearGradient x1="183.8183" y1="122.60609" x2="182.40099" y2="132.09868" gradientUnits="userSpaceOnUse" id="color-101"><stop offset="0" stop-color="#52d930"/><stop offset="1" stop-color="#4ba634"/></linearGradient><linearGradient x1="180.63885" y1="158.52883" x2="176.45262" y2="149.89207" gradientUnits="userSpaceOnUse" id="color-102"><stop offset="0" stop-color="#52d930"/><stop offset="1" stop-color="#4ba634"/></linearGradient><linearGradient x1="165.83706" y1="149.09996" x2="174.81726" y2="145.7126" gradientUnits="userSpaceOnUse" id="color-103"><stop offset="0" stop-color="#52d930"/><stop offset="1" stop-color="#4ba634"/></linearGradient><linearGradient x1="187.15983" y1="137.45961" x2="177.83334" y2="139.72564" gradientUnits="userSpaceOnUse" id="color-104"><stop offset="0" stop-color="#52d930"/><stop offset="1" stop-color="#4ba634"/></linearGradient><linearGradient x1="163.04713" y1="152.82521" x2="161.6345" y2="143.33193" gradientUnits="userSpaceOnUse" id="color-105"><stop offset="0" stop-color="#52d930"/><stop offset="1" stop-color="#4ba634"/></linearGradient><linearGradient x1="165.53679" y1="119.78877" x2="172.05977" y2="126.82928" gradientUnits="userSpaceOnUse" id="color-106"><stop offset="0" stop-color="#52d930"/><stop offset="1" stop-color="#4ba634"/></linearGradient><linearGradient x1="176.01801" y1="131.48314" x2="168.41601" y2="137.34214" gradientUnits="userSpaceOnUse" id="color-107"><stop offset="0" stop-color="#52d930"/><stop offset="1" stop-color="#4ba634"/></linearGradient><linearGradient x1="233.16637" y1="112.62218" x2="225.56584" y2="118.48305" gradientUnits="userSpaceOnUse" id="color-108"><stop offset="0" stop-color="#52d930"/><stop offset="1" stop-color="#4ba634"/></linearGradient><linearGradient x1="218.44506" y1="138.87194" x2="211.9203" y2="145.9108" gradientUnits="userSpaceOnUse" id="color-109"><stop offset="0" stop-color="#52d930"/><stop offset="1" stop-color="#4ba634"/></linearGradient><linearGradient x1="240.22364" y1="162.0744" x2="241.6386" y2="152.58146" gradientUnits="userSpaceOnUse" id="color-110"><stop offset="0" stop-color="#52d930"/><stop offset="1" stop-color="#4ba634"/></linearGradient><linearGradient x1="228.52794" y1="127.1062" x2="219.20202" y2="129.37455" gradientUnits="userSpaceOnUse" id="color-111"><stop offset="0" stop-color="#52d930"/><stop offset="1" stop-color="#4ba634"/></linearGradient><linearGradient x1="212.82594" y1="153.02179" x2="203.84657" y2="149.6322" gradientUnits="userSpaceOnUse" id="color-112"><stop offset="0" stop-color="#52d930"/><stop offset="1" stop-color="#4ba634"/></linearGradient><linearGradient x1="276.9148" y1="134.10858" x2="281.10317" y2="125.47285" gradientUnits="userSpaceOnUse" id="color-113"><stop offset="0" stop-color="#52d930"/><stop offset="1" stop-color="#4ba634"/></linearGradient><linearGradient x1="204.93857" y1="126.23365" x2="206.35352" y2="135.72661" gradientUnits="userSpaceOnUse" id="color-114"><stop offset="0" stop-color="#52d930"/><stop offset="1" stop-color="#4ba634"/></linearGradient><linearGradient x1="220.99688" y1="115.30214" x2="211.41483" y2="115.8521" gradientUnits="userSpaceOnUse" id="color-115"><stop offset="0" stop-color="#52d930"/><stop offset="1" stop-color="#4ba634"/></linearGradient><linearGradient x1="290.73873" y1="176.93986" x2="300.29715" y2="177.80851" gradientUnits="userSpaceOnUse" id="color-116"><stop offset="0" stop-color="#52d930"/><stop offset="1" stop-color="#4ba634"/></linearGradient><linearGradient x1="230.78491" y1="149.71338" x2="222.40337" y2="154.38972" gradientUnits="userSpaceOnUse" id="color-117"><stop offset="0" stop-color="#52d930"/><stop offset="1" stop-color="#4ba634"/></linearGradient><linearGradient x1="228.55681" y1="150.03327" x2="224.65827" y2="141.26289" gradientUnits="userSpaceOnUse" id="color-118"><stop offset="0" stop-color="#52d930"/><stop offset="1" stop-color="#4ba634"/></linearGradient><linearGradient x1="307.07691" y1="158.97307" x2="297.53774" y2="157.9135" gradientUnits="userSpaceOnUse" id="color-119"><stop offset="0" stop-color="#52d930"/><stop offset="1" stop-color="#4ba634"/></linearGradient><linearGradient x1="57.31149" y1="102.51988" x2="63.96493" y2="95.60252" gradientUnits="userSpaceOnUse" id="color-120"><stop offset="0" stop-color="#52d930"/><stop offset="1" stop-color="#4ba634"/></linearGradient><linearGradient x1="286.07304" y1="192.5695" x2="280.06983" y2="185.08085" gradientUnits="userSpaceOnUse" id="color-121"><stop offset="0" stop-color="#52d930"/><stop offset="1" stop-color="#4ba634"/></linearGradient><linearGradient x1="265.86263" y1="85.23661" x2="256.86466" y2="81.89678" gradientUnits="userSpaceOnUse" id="color-122"><stop offset="0" stop-color="#52d930"/><stop offset="1" stop-color="#4ba634"/></linearGradient><linearGradient x1="281.85289" y1="105.9239" x2="291.24103" y2="107.91917" gradientUnits="userSpaceOnUse" id="color-123"><stop offset="0" stop-color="#52d930"/><stop offset="1" stop-color="#4ba634"/></linearGradient><linearGradient x1="276.10208" y1="94.38859" x2="267.68576" y2="99.00206" gradientUnits="userSpaceOnUse" id="color-124"><stop offset="0" stop-color="#52d930"/><stop offset="1" stop-color="#4ba634"/></linearGradient><linearGradient x1="256.51565" y1="90.87515" x2="261.29934" y2="99.19589" gradientUnits="userSpaceOnUse" id="color-125"><stop offset="0" stop-color="#52d930"/><stop offset="1" stop-color="#4ba634"/></linearGradient><linearGradient x1="250.83313" y1="102.79627" x2="259.22837" y2="107.44795" gradientUnits="userSpaceOnUse" id="color-126"><stop offset="0" stop-color="#52d930"/><stop offset="1" stop-color="#4ba634"/></linearGradient><linearGradient x1="253.17511" y1="111.22009" x2="244.75879" y2="115.83354" gradientUnits="userSpaceOnUse" id="color-127"><stop offset="0" stop-color="#52d930"/><stop offset="1" stop-color="#4ba634"/></linearGradient><linearGradient x1="65.3629" y1="20.04048" x2="73.21587" y2="25.55853" gradientUnits="userSpaceOnUse" id="color-128"><stop offset="0" stop-color="#52d930"/><stop offset="1" stop-color="#4ba634"/></linearGradient><linearGradient x1="204.49129" y1="136.34969" x2="212.77315" y2="131.49903" gradientUnits="userSpaceOnUse" id="color-129"><stop offset="0" stop-color="#52d930"/><stop offset="1" stop-color="#4ba634"/></linearGradient><linearGradient x1="238.25" y1="209.99328" x2="238.25" y2="251.24328" gradientUnits="userSpaceOnUse" id="color-130"><stop offset="0" stop-color="#b07000"/><stop offset="1" stop-color="#754a00"/></linearGradient><linearGradient x1="233.67048" y1="166.23719" x2="226.20988" y2="172.27519" gradientUnits="userSpaceOnUse" id="color-131"><stop offset="0" stop-color="#52d930"/><stop offset="1" stop-color="#4ba634"/></linearGradient><linearGradient x1="243.25" y1="214.99328" x2="243.25" y2="256.24328" gradientUnits="userSpaceOnUse" id="color-132"><stop offset="0" stop-color="#b07000"/><stop offset="1" stop-color="#754a00"/></linearGradient><linearGradient x1="252.71307" y1="168.45981" x2="247.29929" y2="160.53459" gradientUnits="userSpaceOnUse" id="color-133"><stop offset="0" stop-color="#52d930"/><stop offset="1" stop-color="#4ba634"/></linearGradient><linearGradient x1="241.625" y1="218.24328" x2="241.625" y2="239.24328" gradientUnits="userSpaceOnUse" id="color-134"><stop offset="0" stop-color="#925c00"/><stop offset="1" stop-color="#422a00"/></linearGradient><linearGradient x1="234.73602" y1="258.59598" x2="240.97545" y2="276.64831" gradientUnits="userSpaceOnUse" id="color-135"><stop offset="0" stop-color="#41cb1e"/><stop offset="1" stop-color="#287d13"/></linearGradient><linearGradient x1="228.8161" y1="269.64878" x2="224.05384" y2="275.68356" gradientUnits="userSpaceOnUse" id="color-136"><stop offset="0" stop-color="#c47c00"/><stop offset="1" stop-color="#643f00"/></linearGradient></defs><g transform="translate(-154.74496,-59.40434)"><g data-paper-data="{&quot;isPaintingLayer&quot;:true}" fill-rule="nonzero" stroke-linejoin="miter" stroke-miterlimit="10" stroke-dasharray="" stroke-dashoffset="0" style="mix-blend-mode: normal"><path d="M220.75526,271.31055c1.42452,0 3.00414,1.94377 3.00414,3.36829c0,1.42451 -1.7617,1.36552 -3.18621,1.36552c-0.83721,0 -2.55229,0.51147 -3.0235,-0.10662c-0.29589,-0.38812 0.35454,-1.16725 0.48149,-1.83674c0.00884,-0.04659 0.60491,-0.71884 1.23814,-1.50349c0.43289,-0.5364 0.90754,-1.28697 1.48594,-1.28697z" fill="url(#color-1)" stroke="#000000" stroke-width="0.5" stroke-linecap="butt"/><path d="M261.88962,266.62491c-0.33315,-1.07502 -0.43939,-1.12033 -1.0039,-2.30484c-0.26189,-0.54953 -1.03082,-2.19331 -1.23043,-2.76799c-0.77578,-2.23334 -1.03101,-4.5781 -1.09936,-6.14935c-0.04611,-1.05995 2.49023,8.06583 3.64687,8.51315c0.64787,0.25056 0.18322,-7.92792 0.23859,-8.29806c0.38934,-2.60261 0.86303,8.92258 0.86303,8.92258c0,0 0.4084,-1.02491 1.06455,-2.19364c1.15542,-2.058 2.85261,-4.74881 2.82185,-4.411c-0.03629,0.39857 -1.44311,3.74787 -2.53488,6.22989c-1.08817,2.47385 -1.46819,3.20961 -1.46819,3.20961c0,0 -0.73696,1.06048 -1.29813,-0.75035z" data-paper-data="{&quot;index&quot;:null}" fill="url(#color-2)" stroke="#000000" stroke-width="0.5" stroke-linecap="butt"/><path d="M336.66035,130.46291c0,17.69561 -9.59109,22.93211 -23.87687,35.62432c-7.44774,6.61694 -12.62513,13.10882 -20.61984,17.31027c-11.88326,6.24499 -22.48877,14.63898 -41.30811,14.63898c-28.63027,0 -41.84439,0.31775 -60.21988,-13.63039c-17.4164,-13.22013 -33.67499,-19.17081 -33.67499,-38.94318c0,-22.90224 18.12542,-59.44658 20.49468,-60.63574c16.26226,-8.16223 37.99327,-24.92282 59.23351,-24.92282c25.01154,0 43.67028,30.10126 63.32918,37.74438c24.17296,9.39812 36.64233,10.40506 36.64233,32.81418z" fill="url(#color-3)" stroke="#000000" stroke-width="1" stroke-linecap="butt"/><path d="M234.47966,217.20279c-0.37612,-14.98 3.83297,-30.99012 -4.6242,-46.80819c-8.45717,-15.81807 -14.12612,-2.16195 -20.41103,-10.943c-6.28491,-8.78105 -6.04353,-23.21656 -4.11543,-23.32446c2.87837,-0.16109 4.03229,16.68376 5.14404,18.3027c3.43884,5.00768 12.76136,6.05711 15.6395,1.77165c2.87814,-4.28546 2.40191,-16.85708 3.46109,-30.21184c0.69865,-8.80902 -2.30142,-8.39833 -1.31741,-14.4807c0.31075,-1.92078 2.24028,-0.94729 3.08077,2.20627c0.98215,3.68508 1.02545,9.7988 3.59609,9.41463c5.42988,-0.81147 18.09612,-17.76393 17.42862,-11.13894c-0.49852,4.94795 -9.61925,7.06474 -14.87981,15.6806c-1.69332,2.77336 -2.66944,11.64798 -3.1278,16.43766c-1.06107,11.08765 -0.84759,19.89952 1.16637,20.72061c1.42133,0.57947 1.31436,12.15399 4.57523,11.14954c3.26086,-1.00445 7.9883,-15.2384 11.75472,-16.17966c3.67867,-0.91933 0.14625,-12.46415 1.34511,-14.33372c4.59449,-7.16491 6.6887,1.14409 5.78835,7.94839c-0.09831,0.74294 4.53095,-0.56856 9.13969,-3.18893c5.95106,-3.38358 12.20157,-8.28216 11.68201,-6.78464c-1.17001,3.37224 0.87788,3.89703 -5.33573,8.45733c-2.64737,1.94296 -14.97916,9.52931 -16.33637,10.3633c-2.95246,1.81425 -5.51707,3.65859 -6.40056,6.12606c-0.64425,1.79932 -6.88104,40.0609 -5.18488,61.40024c1.69617,21.33934 5.93653,20.70686 14.15382,32.42396c4.38801,6.25691 16.72708,11.1345 14.13076,11.15993c-2.02224,0.01981 -13.733,-6.31312 -20.84343,-8.37054c-6.71468,-1.94291 -8.894,0.35987 -9.24177,1.12173c-1.07611,2.3574 -1.61093,5.48999 -0.94434,8.34086c0.95041,4.06473 1.16509,9.47603 -0.98316,7.41273c-2.14824,-2.0633 -3.34935,-15.12948 -6.91218,-14.99589c-1.66585,0.06246 -1.15941,3.09554 -3.30755,5.10855c-4.42478,4.14644 -9.86096,5.69712 -13.30794,5.46941c-5.67262,-0.37473 3.04834,-3.09941 7.32035,-7.25867c2.58415,-2.51595 3.28496,-9.19545 5.37369,-14.94018c5.09953,-14.02543 2.86952,-23.07678 2.4934,-38.05678z" fill="url(#color-4)" stroke="#000000" stroke-width="1" stroke-linecap="butt"/><path d="" fill="url(#color-5)" stroke="none" stroke-width="0" stroke-linecap="butt"/><path d="M243.65553,270.90973l0.58517,-4.28872c0,0 3.04874,-11.12472 2.84392,-8.50113c-0.02913,0.37312 -2.3178,8.23857 -1.63022,8.13984c1.22754,-0.17626 5.74768,-8.4998 5.46481,-7.47724c-0.41932,1.51581 -1.19439,3.74343 -2.4517,5.74563c-0.32353,0.51521 -1.44182,1.94443 -1.82038,2.42115c-0.816,1.02756 -0.92971,1.04786 -1.49567,2.02066c-0.95334,1.63864 -1.32893,3.63121 -1.32893,3.63121z" data-paper-data="{&quot;index&quot;:null}" fill="url(#color-6)" stroke="#000000" stroke-width="0.5" stroke-linecap="butt"/><path d="M259.60316,264.22592c1.467,0 3.09375,2.00175 3.09375,3.46875c0,1.467 -1.81425,1.40625 -3.28125,1.40625c-0.86219,0 -2.62842,0.52673 -3.11369,-0.10979c-0.30471,-0.3997 0.36512,-1.20207 0.49585,-1.89153c0.0091,-0.04798 0.62294,-0.74027 1.27507,-1.54833c0.4458,-0.55239 0.93461,-1.32535 1.53027,-1.32535z" fill="url(#color-7)" stroke="#000000" stroke-width="0.5" stroke-linecap="butt"/><g stroke="none" stroke-width="0" stroke-linecap="butt"><path d="M253.7832,145.63468c0,2.65037 -3.22946,9.82008 -4.76755,9.83306c-1.5333,0.01295 -4.83027,-7.1827 -4.83027,-9.83306c0,-2.37573 1.72635,-4.34826 3.99302,-4.73154c0.26202,-0.04431 0.84492,-3.70577 1.11954,-3.70577c0.51734,0 0.70192,3.72026 1.16878,3.87174c1.92486,0.62456 3.31648,2.43255 3.31648,4.56557z" fill="url(#color-8)"/><path d="M237.66275,132.4652c-2.63948,-0.23988 -9.48749,-4.10498 -9.36121,-5.63795c0.12588,-1.52818 7.5904,-4.16036 10.22987,-3.92049c2.36599,0.21502 4.17417,2.11282 4.35073,4.40488c0.02041,0.26495 3.61408,1.17684 3.58922,1.45034c-0.04683,0.51522 -3.76851,0.36232 -3.96162,0.81355c-0.7962,1.86043 -2.72273,3.08271 -4.847,2.88966z" fill="url(#color-9)"/><path d="M262.83512,126.5059c2.3145,-1.29133 10.14911,-1.96442 10.90985,-0.62757c0.75837,1.33268 -3.91902,7.71776 -6.23352,9.0091c-2.07467,1.15753 -4.63836,0.61102 -6.07745,-1.18167c-0.16636,-0.20723 -3.64782,1.0677 -3.78163,0.82788c-0.25207,-0.45179 2.90682,-2.42557 2.81164,-2.90707c-0.39243,-1.98524 0.50839,-4.0814 2.3711,-5.12068z" fill="url(#color-10)"/><path d="M263.23854,137.34393c1.07656,2.42187 1.0378,10.28524 -0.36242,10.92187c-1.39585,0.63464 -7.33139,-4.60146 -8.40795,-7.02332c-0.96501,-2.17092 -0.18871,-4.67462 1.72687,-5.94554c0.22143,-0.14693 -0.73316,-3.72949 -0.48222,-3.84104c0.47274,-0.21014 2.15252,3.11441 2.64066,3.0632c2.0126,-0.21114 4.01865,0.8757 4.88507,2.82484z" fill="url(#color-11)"/><path d="M244.76368,129.05067c-0.77292,-2.53516 0.22525,-10.33501 1.69269,-10.79598c1.46287,-0.45954 6.715,5.46183 7.48792,7.99698c0.69284,2.27247 -0.38322,4.6627 -2.43959,5.69034c-0.23771,0.1188 0.27252,3.79108 0.00982,3.87118c-0.49485,0.15087 -1.75633,-3.35384 -2.24707,-3.36259c-2.02332,-0.03607 -3.88173,-1.35962 -4.50377,-3.39992z" fill="url(#color-12)"/><path d="M259.00583,142.52948c2.59472,-0.5403 10.27221,1.15972 10.59848,2.66287c0.32524,1.49846 -6.04716,6.1931 -8.64187,6.7334c-2.32585,0.48432 -4.60888,-0.80366 -5.44619,-2.9446c-0.09679,-0.24749 -3.80019,-0.07172 -3.85617,-0.34058c-0.10546,-0.50647 3.49904,-1.44558 3.55217,-1.93351c0.21904,-2.01176 1.70536,-3.74275 3.79359,-4.17759z" fill="url(#color-13)"/><path d="M238.34271,145.53304c-1.83731,1.91018 -9.13506,4.8388 -10.25259,3.78192c-1.11406,-1.05359 1.49794,-8.5252 3.33523,-10.43537c1.64691,-1.71224 4.25854,-1.93714 6.15788,-0.64205c0.21956,0.14971 3.17788,-2.0851 3.37581,-1.89473c0.37286,0.35864 -2.07308,3.16785 -1.84161,3.60067c0.95433,1.78449 0.70395,4.05227 -0.77471,5.58959z" fill="url(#color-14)"/><path d="M242.14639,141.29762c-1.73604,-2.00264 -3.99215,-9.53551 -2.83846,-10.5528c1.15009,-1.01412 8.35462,2.26338 10.09067,4.26602c1.55616,1.79513 1.54376,4.41638 0.08209,6.19071c-0.16897,0.20511 1.78893,3.35356 1.58142,3.53343c-0.39091,0.33887 -2.96721,-2.35128 -3.4192,-2.15995c-1.86354,0.7889 -4.09935,0.33432 -5.49652,-1.27742z" fill="url(#color-15)"/></g><g stroke="none" stroke-width="0" stroke-linecap="butt"><path d="M303.63798,159.48826c1.98613,1.75491 5.22057,8.92237 4.21187,10.08358c-1.00556,1.15759 -8.58088,-1.13629 -10.56701,-2.8912c-1.78033,-1.57307 -2.11541,-4.17286 -0.90175,-6.12523c0.1403,-0.22569 -2.21756,-3.08691 -2.03571,-3.2927c0.34255,-0.38768 3.25264,1.93734 3.67528,1.68779c1.74257,-1.02891 4.01888,-0.87461 5.61732,0.53776z" fill="url(#color-16)"/><path d="M283.09502,162.84846c-1.92748,1.81914 -9.35825,4.39162 -10.42341,3.28196c-1.06182,-1.1062 1.90825,-8.44284 3.83572,-10.26198c1.72775,-1.63063 4.34719,-1.72904 6.18171,-0.34368c0.21208,0.16014 3.27494,-1.92906 3.46343,-1.72933c0.35508,0.37624 -2.22377,3.06392 -2.01349,3.50742c0.86696,1.82853 0.50727,4.08155 -1.04397,5.5456z" fill="url(#color-17)"/><path d="M295.29697,140.03896c0.56484,-2.58948 5.24808,-8.90622 6.75359,-8.59112c1.50083,0.31412 3.18857,8.04709 2.62373,10.63657c-0.5063,2.32116 -2.61337,3.88046 -4.90965,3.77187c-0.26543,-0.01255 -1.61527,3.44056 -1.88358,3.38204c-0.50547,-0.11026 0.10706,-3.78437 -0.31679,-4.03186c-1.74753,-1.02042 -2.72188,-3.08347 -2.2673,-5.16748z" fill="url(#color-18)"/><path d="M303.68587,146.91296c2.52772,0.79688 8.39468,6.03261 7.94462,7.50343c-0.44867,1.46624 -8.30267,2.44716 -10.83039,1.65028c-2.26581,-0.71432 -3.62801,-2.95385 -3.31202,-5.23087c0.03652,-0.26322 -3.28025,-1.92004 -3.19769,-2.18195c0.15555,-0.4934 3.75916,0.44913 4.04399,0.04942c1.1744,-1.64801 3.31716,-2.43165 5.35149,-1.79031z" fill="url(#color-19)"/><path d="M285.23805,155.26629c-2.41158,-1.09942 -7.59568,-7.01206 -6.96946,-8.41697c0.62426,-1.40053 8.53925,-1.41555 10.95083,-0.31612c2.1617,0.9855 3.24038,3.37455 2.64886,5.596c-0.06838,0.25679 3.02138,2.30602 2.90747,2.55591c-0.21461,0.47072 -3.67623,-0.90457 -4.00772,-0.54261c-1.36676,1.49235 -3.58915,2.00862 -5.53,1.12379z" fill="url(#color-20)"/><path d="M304.76917,153.51842c1.31319,-2.30217 7.67075,-6.92986 9.0132,-6.17906c1.33827,0.74846 0.63687,8.63234 -0.67631,10.9345c-1.1771,2.06363 -3.65398,2.92165 -5.81277,2.1315c-0.24956,-0.09134 -2.57001,2.80029 -2.80855,2.66422c-0.44937,-0.25633 1.23358,-3.57927 0.90311,-3.94217c-1.36253,-1.49622 -1.67553,-3.75621 -0.61868,-5.609z" fill="url(#color-21)"/><path d="M293.33797,170.99171c0.2149,2.64165 -2.42262,10.04958 -3.95459,10.18723c-1.5272,0.13722 -5.39673,-6.76741 -5.61163,-9.40905c-0.19262,-2.36792 1.36812,-4.47393 3.59625,-5.03972c0.25757,-0.0654 0.54168,-3.76207 0.81542,-3.78433c0.51564,-0.04194 1.00121,3.65109 1.47883,3.76422c1.96916,0.46643 3.5028,2.15564 3.67574,4.28166z" fill="url(#color-22)"/><path d="M292.68265,165.33686c-2.65024,-0.02508 -9.78906,-3.32224 -9.7875,-4.86039c0.00156,-1.53335 7.22809,-4.76209 9.87833,-4.737c2.37563,0.02248 4.33173,1.76741 4.69354,4.03762c0.04183,0.26244 3.69761,0.87996 3.695,1.15459c-0.0049,0.51731 -3.72671,0.66667 -3.88262,1.13207c-0.64274,1.91887 -2.46383,3.29331 -4.59676,3.27313z" fill="url(#color-23)"/></g><g stroke="none" stroke-width="0" stroke-linecap="butt"><path d="M215.50287,78.39528c1.20838,-2.35886 7.35153,-7.2676 8.72638,-6.57789c1.37056,0.68756 1.02421,8.59499 -0.18417,10.95385c-1.08318,2.11445 -3.51898,3.08292 -5.71109,2.3906c-0.25341,-0.08002 -2.44156,2.91298 -2.68599,2.78776c-0.46044,-0.23587 1.07145,-3.63112 0.72501,-3.9788c-1.4284,-1.43347 -1.84265,-3.67709 -0.87014,-5.57551z" fill="url(#color-24)"/><path d="M223.84594,97.46614c2.23982,1.41692 6.57242,7.97914 5.76111,9.28592c-0.80878,1.30271 -8.65239,0.2421 -10.89221,-1.17482c-2.00773,-1.27009 -2.75179,-3.78357 -1.8639,-5.90403c0.10263,-0.24511 -2.68003,-2.69518 -2.53321,-2.92726c0.27658,-0.43721 3.51923,1.3957 3.89684,1.08215c1.55686,-1.29281 3.82877,-1.50228 5.63139,-0.36194z" fill="url(#color-25)"/><path d="M198.72513,91.29316c-2.6487,0.09405 -9.92849,-2.87892 -9.99605,-4.41559c-0.06734,-1.53187 7.00674,-5.08212 9.65545,-5.1762c2.37424,-0.08432 4.4068,1.57095 4.87026,3.82259c0.05357,0.26028 3.73342,0.71288 3.74317,0.98734c0.01837,0.51702 -3.693,0.83349 -3.82782,1.30542c-0.55586,1.94581 -2.31332,3.40073 -4.44501,3.47643z" fill="url(#color-26)"/><path d="M203.30747,81.4632c0.14605,-2.64633 3.76571,-9.62719 5.30219,-9.5554c1.53168,0.07158 4.42711,7.43798 4.28106,10.08431c-0.13091,2.37212 -1.96335,4.24653 -4.24769,4.50431c-0.26407,0.0298 -1.04785,3.65357 -1.32207,3.63844c-0.51655,-0.02851 -0.49583,-3.75326 -0.95362,-3.93026c-1.88751,-0.72969 -3.1774,-2.61162 -3.05985,-4.74141z" fill="url(#color-27)"/><path d="M215.96922,97.26759c-0.46794,2.60872 -4.91251,9.09562 -6.42874,8.83683c-1.5115,-0.25796 -3.48625,-7.92268 -3.0183,-10.53141c0.41947,-2.33842 2.46695,-3.97516 4.76568,-3.95221c0.26574,0.00266 1.48593,-3.49837 1.75624,-3.44989c0.50922,0.09135 0.03404,3.78573 0.46683,4.01727c1.78434,0.95459 2.83491,2.97989 2.4583,5.07939z" fill="url(#color-28)"/><path d="M209.43889,78.7778c-2.55566,-0.70213 -8.61368,-5.71558 -8.21873,-7.20216c0.39371,-1.48194 8.20569,-2.75488 10.76136,-2.05274c2.29085,0.62937 3.73556,2.8166 3.50467,5.10382c-0.02669,0.26439 3.34953,1.79645 3.27676,2.06128c-0.13706,0.49885 -3.77327,-0.30873 -4.04301,0.1013c-1.11217,1.69062 -3.22424,2.55357 -5.28105,1.9885z" fill="url(#color-29)"/><path d="M229.19881,85.52556c2.50613,-0.86241 10.33651,-0.14166 10.84927,1.3085c0.51116,1.44564 -5.22009,6.9046 -7.72622,7.76701c-2.24645,0.77305 -4.67337,-0.21752 -5.77334,-2.23612c-0.12715,-0.23335 -3.77903,0.40689 -3.86839,0.1472c-0.16834,-0.48919 3.2894,-1.87426 3.28072,-2.36499c-0.03575,-2.02333 1.221,-3.92753 3.23794,-4.62159z" fill="url(#color-30)"/><path d="M223.88241,87.56091c0.63205,2.5739 -0.79445,10.30688 -2.28507,10.6863c-1.48596,0.37822 -6.40379,-5.82358 -7.03584,-8.39747c-0.56655,-2.30719 0.6396,-4.63449 2.74948,-5.54725c0.24389,-0.10551 -0.06319,-3.80034 0.20352,-3.86583c0.50241,-0.12337 1.56884,3.44552 2.05835,3.48131c2.01827,0.1475 3.8009,1.57147 4.30957,3.64295z" fill="url(#color-31)"/></g><g stroke="none" stroke-width="0" stroke-linecap="butt"><path d="M181.14566,168.00681c-2.43269,1.05187 -10.29525,0.93314 -10.91761,-0.47347c-0.62042,-1.40223 4.67576,-7.28422 7.10845,-8.33609c2.18062,-0.94288 4.67629,-0.14118 5.92767,1.78723c0.14466,0.22292 3.73674,-0.69519 3.84573,-0.44313c0.20532,0.47485 -3.13612,2.12074 -3.08989,2.60937c0.19067,2.01465 -0.91652,4.00953 -2.87436,4.8561z" fill="url(#color-32)"/><path d="M186.83569,147.98364c-0.82738,-2.51792 0.00247,-10.33747 1.45964,-10.82996c1.45262,-0.49096 6.83114,5.31584 7.65852,7.83374c0.74165,2.257 -0.28265,4.66988 -2.31638,5.7416c-0.2351,0.1239 0.35415,3.78433 0.09325,3.87006c-0.49149,0.1615 -1.82819,-3.31521 -2.31901,-3.31338c-2.02364,0.00755 -3.91014,-1.27566 -4.57601,-3.30208z" fill="url(#color-33)"/><path d="M202.29595,168.7235c2.10385,1.61192 5.83105,8.53593 4.90591,9.76477c-0.92225,1.22501 -8.6393,-0.53413 -10.74314,-2.14605c-1.88585,-1.44487 -2.4017,-4.01493 -1.32739,-6.0473c0.12418,-0.23494 -2.42776,-2.92447 -2.26073,-3.14248c0.31464,-0.41066 3.38001,1.70541 3.78419,1.42695c1.66644,-1.1481 3.94798,-1.15317 5.64117,0.1441z" fill="url(#color-34)"/><path d="M192.50813,173.39517c-1.7957,1.94932 -9.02865,5.03455 -10.16871,4.00199c-1.13649,-1.02934 1.31387,-8.55549 3.10958,-10.50481c1.60963,-1.74734 4.21581,-2.02847 6.1426,-0.77463c0.22274,0.14494 3.13222,-2.1531 3.33419,-1.96703c0.3805,0.35052 -2.00434,3.21177 -1.7636,3.6395c0.99257,1.7635 0.79113,4.03615 -0.65407,5.60497z" fill="url(#color-35)"/><path d="M192.78799,153.14619c2.02019,-1.7156 9.57562,-3.89498 10.58112,-2.73101c1.00239,1.16036 -2.34822,8.33117 -4.36841,10.04677c-1.81086,1.53782 -4.43186,1.49879 -6.19122,0.01915c-0.20337,-0.17104 -3.37157,1.75474 -3.54934,1.54541c-0.33488,-0.39434 2.38134,-2.94315 2.1946,-3.39705c-0.76991,-1.87145 -0.29262,-4.10255 1.33324,-5.48326z" fill="url(#color-36)"/><path d="M186.06861,171.56812c1.52571,2.16717 3.01234,9.88882 1.76213,10.78486c-1.2463,0.89324 -8.08444,-3.09261 -9.61015,-5.25978c-1.36764,-1.94261 -1.09152,-4.54932 0.54128,-6.16755c0.18875,-0.18706 -1.44238,-3.51655 -1.21782,-3.67463c0.42303,-0.29782 2.71556,2.63793 3.1845,2.49305c1.93347,-0.59737 4.11217,0.0799 5.34008,1.82406z" fill="url(#color-37)"/><path d="M175.11096,153.79408c-2.48249,-0.9283 -8.06689,-6.46438 -7.54035,-7.90959c0.52491,-1.4407 8.41953,-2.00856 10.90201,-1.08027c2.22525,0.8321 3.46817,3.13998 3.03326,5.39732c-0.05027,0.26094 3.17509,2.08935 3.07891,2.34658c-0.1812,0.48456 -3.73044,-0.64558 -4.03585,-0.26136c-1.25918,1.58418 -3.44007,2.25441 -5.43798,1.5073z" fill="url(#color-38)"/><path d="M180.50813,155.60443c1.14916,-2.38826 7.16797,-7.44872 8.55958,-6.79352c1.38728,0.65314 1.23827,8.56676 0.08911,10.95502c-1.03009,2.14079 -3.44099,3.16975 -5.64969,2.53231c-0.25532,-0.07368 -2.36815,2.97295 -2.61562,2.85388c-0.46618,-0.22431 0.98056,-3.65669 0.62555,-3.99563c-1.46371,-1.3974 -1.9338,-3.62998 -1.00895,-5.55208z" fill="url(#color-39)"/></g><g stroke="none" stroke-width="0" stroke-linecap="butt"><path d="M311.41807,116.66935c1.20839,-2.35886 7.35153,-7.26761 8.72637,-6.57791c1.37056,0.68756 1.02422,8.59498 -0.18417,10.95384c-1.08318,2.11445 -3.51897,3.08292 -5.71109,2.39061c-0.25341,-0.08002 -2.44156,2.91297 -2.68598,2.78776c-0.46045,-0.23588 1.07145,-3.6311 0.725,-3.97877c-1.4284,-1.43347 -1.84265,-3.67709 -0.87013,-5.57552z" fill="url(#color-40)"/><path d="M319.76115,135.74019c2.23982,1.41692 6.57241,7.97913 5.7611,9.28592c-0.80878,1.30271 -8.6524,0.2421 -10.89222,-1.17481c-2.00773,-1.27009 -2.75178,-3.78358 -1.8639,-5.90403c0.10264,-0.24511 -2.68004,-2.69519 -2.53322,-2.92727c0.27659,-0.4372 3.51923,1.3957 3.89684,1.08216c1.55686,-1.2928 3.82877,-1.50228 5.63139,-0.36194z" fill="url(#color-41)"/><path d="M294.64031,129.56722c-2.6487,0.09405 -9.9285,-2.87893 -9.99606,-4.41559c-0.06734,-1.53187 7.00674,-5.08213 9.65546,-5.17619c2.37425,-0.08432 4.40679,1.57094 4.87027,3.82258c0.05357,0.26028 3.73342,0.71287 3.74317,0.98734c0.01837,0.51702 -3.693,0.83349 -3.82783,1.30543c-0.55586,1.94581 -2.31332,3.40073 -4.44499,3.47642z" fill="url(#color-42)"/><path d="M299.22263,119.73728c0.14605,-2.64633 3.76571,-9.6272 5.30218,-9.5554c1.53168,0.07158 4.4271,7.43798 4.28105,10.08431c-0.13092,2.37212 -1.96335,4.24652 -4.24768,4.5043c-0.26407,0.0298 -1.04785,3.65358 -1.32206,3.63844c-0.51655,-0.02851 -0.49583,-3.75326 -0.95363,-3.93026c-1.88751,-0.72969 -3.17741,-2.61162 -3.05986,-4.7414z" fill="url(#color-43)"/><path d="M311.88442,135.54168c-0.46794,2.60872 -4.91253,9.09562 -6.42874,8.83683c-1.51148,-0.25797 -3.48625,-7.92267 -3.01829,-10.5314c0.41946,-2.33843 2.46694,-3.97516 4.76566,-3.95222c0.26574,0.00266 1.48593,-3.49836 1.75624,-3.44988c0.50922,0.09135 0.03404,3.78572 0.46684,4.01727c1.78435,0.9546 2.8349,2.97989 2.4583,5.07939z" fill="url(#color-44)"/><path d="M305.35407,117.05187c-2.55567,-0.70214 -8.61367,-5.71557 -8.21874,-7.20215c0.39371,-1.48194 8.20569,-2.75487 10.76137,-2.05273c2.29085,0.62937 3.73556,2.8166 3.50466,5.10383c-0.02668,0.2644 3.34954,1.79645 3.27677,2.06127c-0.13705,0.49885 -3.77328,-0.30873 -4.04302,0.1013c-1.11217,1.69062 -3.22423,2.55357 -5.28105,1.98849z" fill="url(#color-45)"/><path d="M325.114,123.79961c2.50613,-0.86241 10.33649,-0.14165 10.84925,1.30851c0.51116,1.44564 -5.22007,6.9046 -7.72621,7.76701c-2.24644,0.77305 -4.67338,-0.21752 -5.77335,-2.23612c-0.12716,-0.23335 -3.77902,0.40688 -3.86838,0.1472c-0.16834,-0.48919 3.2894,-1.87425 3.28073,-2.36499c-0.03575,-2.02333 1.22101,-3.92754 3.23796,-4.6216z" fill="url(#color-46)"/><path d="M319.7976,125.83496c0.63204,2.57389 -0.79444,10.30689 -2.28507,10.68629c-1.48597,0.37822 -6.4038,-5.82357 -7.03585,-8.39747c-0.56655,-2.30719 0.63961,-4.63449 2.74947,-5.54725c0.2439,-0.10551 -0.06318,-3.80035 0.20352,-3.86584c0.50241,-0.12337 1.56884,3.44552 2.05836,3.4813c2.01826,0.1475 3.8009,1.57148 4.30957,3.64296z" fill="url(#color-47)"/></g><path d="" fill="url(#color-48)" stroke="none" stroke-width="0" stroke-linecap="butt"/><path d="M319.26965,152.0588c0.82799,2.51772 0.00008,10.33746 -1.45698,10.83031c-1.4525,0.49132 -6.83246,-5.31416 -7.66045,-7.83187c-0.74221,-2.25682 0.28151,-4.66995 2.31499,-5.74217c0.23507,-0.12395 -0.35508,-3.78426 -0.09421,-3.87005c0.49145,-0.16162 1.82902,3.31475 2.31983,3.31282c2.02363,-0.00804 3.91045,1.2747 4.57682,3.30095z" fill="url(#color-49)" stroke="none" stroke-width="0" stroke-linecap="butt"/><path d="" fill="url(#color-50)" stroke="none" stroke-width="0" stroke-linecap="butt"/><path d="" fill="url(#color-51)" stroke="none" stroke-width="0" stroke-linecap="butt"/><path d="" fill="url(#color-52)" stroke="none" stroke-width="0" stroke-linecap="butt"/><path d="M274.25151,132.21998c-0.46705,-2.60889 1.44842,-10.23548 2.96015,-10.51931c1.50702,-0.28294 6.02043,6.2191 6.48748,8.82798c0.41865,2.33855 -0.93308,4.58444 -3.09674,5.36114c-0.25011,0.08979 -0.17867,3.79666 -0.44899,3.84506c-0.50925,0.09115 -1.34652,-3.53834 -1.83276,-3.60519c-2.00479,-0.27558 -3.69326,-1.81005 -4.06914,-3.90969z" fill="url(#color-53)" stroke="none" stroke-width="0" stroke-linecap="butt"/><path d="" fill="url(#color-54)" stroke="none" stroke-width="0" stroke-linecap="butt"/><path d="M200.1835,109.73966c-2.60207,-0.50363 -9.02749,-5.03665 -8.74796,-6.54918c0.27865,-1.50782 7.96969,-3.37739 10.57176,-2.87376c2.33245,0.45145 3.941,2.52116 3.88657,4.81936c-0.00629,0.26566 3.47769,1.5337 3.4255,1.80333c-0.0983,0.50791 -3.78583,-0.01781 -4.02327,0.41175c-0.97894,1.77111 -3.01844,2.79383 -5.1126,2.3885z" fill="url(#color-55)" stroke="none" stroke-width="0" stroke-linecap="butt"/><path d="" fill="url(#color-56)" stroke="none" stroke-width="0" stroke-linecap="butt"/><path d="" fill="url(#color-57)" stroke="none" stroke-width="0" stroke-linecap="butt"/><path d="M298.45904,128.3645c2.50584,0.86326 8.23267,6.2519 7.74397,7.71035c-0.48717,1.4539 -8.3643,2.22735 -10.87014,1.36409c-2.24619,-0.77381 -3.54885,-3.0485 -3.17293,-5.31641c0.04345,-0.26216 -3.22848,-2.00586 -3.13903,-2.26551c0.1685,-0.48914 3.74599,0.5481 4.04129,0.15605c1.21745,-1.61647 3.38013,-2.34331 5.39683,-1.64856z" fill="url(#color-58)" stroke="none" stroke-width="0" stroke-linecap="butt"/><path d="M274.69059,127.91281c-1.08651,2.41742 -6.97135,7.63304 -8.37958,7.01435c-1.40384,-0.61677 -1.46117,-8.53156 -0.37466,-10.94898c0.97393,-2.16693 3.35718,-3.25837 5.58175,-2.67874c0.25716,0.067 2.28983,-3.03369 2.54032,-2.9211c0.47188,0.21207 -0.8849,3.68102 -0.52118,4.01057c1.49963,1.35876 2.02778,3.57834 1.15335,5.5239z" fill="url(#color-59)" stroke="none" stroke-width="0" stroke-linecap="butt"/><path d="M262.81196,114.59404c-0.46705,-2.6089 1.44842,-10.23549 2.96015,-10.51932c1.50702,-0.28294 6.02043,6.2191 6.48748,8.828c0.41865,2.33855 -0.93308,4.58443 -3.09674,5.36113c-0.25011,0.08979 -0.17867,3.79666 -0.44899,3.84507c-0.50925,0.09117 -1.34651,-3.53833 -1.83275,-3.60518c-2.00479,-0.27558 -3.69326,-1.81006 -4.06914,-3.90969z" fill="url(#color-60)" stroke="none" stroke-width="0" stroke-linecap="butt"/><path d="M285.69615,111.59961c2.64045,-0.229 10.06238,2.36886 10.20821,3.90008c0.1454,1.52643 -6.73847,5.43283 -9.37891,5.66184c-2.36685,0.20528 -4.48117,-1.34418 -5.05885,-3.56925c-0.06678,-0.25722 -3.76491,-0.52156 -3.78863,-0.79515c-0.04469,-0.51541 3.64569,-1.02074 3.75627,-1.49894c0.4559,-1.97162 2.13689,-3.51427 4.26193,-3.69858z" fill="url(#color-61)" stroke="none" stroke-width="0" stroke-linecap="butt"/><path d="M281.78125,158.47761c2.60261,-0.50081 10.25341,1.31566 10.5568,2.82359c0.30244,1.50323 -6.14056,6.10051 -8.74318,6.60132c-2.33293,0.44892 -4.59614,-0.87359 -5.40082,-3.02701c-0.09303,-0.24893 -3.79867,-0.12946 -3.85056,-0.39914c-0.09776,-0.50803 3.5206,-1.39225 3.58114,-1.87933c0.24959,-2.0082 1.76203,-3.71639 3.85663,-4.11945z" fill="url(#color-62)" stroke="none" stroke-width="0" stroke-linecap="butt"/><path d="M280.89517,169.29616c0.2632,2.63727 -2.23827,10.09223 -3.76746,10.2579c-1.52444,0.16515 -5.5197,-6.66749 -5.7829,-9.30476c-0.23593,-2.36399 1.28599,-4.49821 3.50339,-5.10469c0.25633,-0.07011 0.47273,-3.77136 0.746,-3.79863c0.51478,-0.05138 1.06789,3.63215 1.54749,3.73653c1.97736,0.43031 3.54166,2.09116 3.75349,4.21364z" fill="url(#color-63)" stroke="none" stroke-width="0" stroke-linecap="butt"/><path d="M264.24512,185.93582c-1.02087,-2.44586 -0.80223,-10.3063 0.61219,-10.91073c1.41,-0.60253 7.22421,4.76797 8.24508,7.21383c0.9151,2.19243 0.08172,4.67772 -1.86243,5.90449c-0.22474,0.14181 0.64765,3.74528 0.39422,3.85106c-0.47743,0.19927 -2.08072,-3.16284 -2.5699,-3.12282c-2.0169,0.16504 -3.99757,-0.96741 -4.81916,-2.93586z" fill="url(#color-64)" stroke="none" stroke-width="0" stroke-linecap="butt"/><path d="M292.72125,161.72432c-1.63852,2.08319 -8.60935,5.72207 -9.82633,4.78139c-1.21317,-0.93774 0.64392,-8.6318 2.28243,-10.71499c1.46874,-1.86734 4.04511,-2.35047 6.06367,-1.25042c0.23335,0.12715 2.9551,-2.3904 3.17096,-2.22062c0.40662,0.31984 -1.74823,3.35806 -1.47494,3.76576c1.12683,1.68089 1.10291,3.96231 -0.21578,5.63888z" fill="url(#color-65)" stroke="none" stroke-width="0" stroke-linecap="butt"/><g stroke="none" stroke-width="0" stroke-linecap="butt"><path d="M184.47249,103.29217c-0.09492,-2.64867 2.87566,-9.92944 4.4123,-9.99751c1.53185,-0.06786 5.08444,7.00508 5.17936,9.65375c0.08509,2.37421 -1.56951,4.40731 -3.821,4.87152c-0.26026,0.05366 -0.71165,3.73366 -0.9861,3.74348c-0.51701,0.01853 -0.83471,-3.69272 -1.30669,-3.82739c-1.946,-0.55522 -3.40148,-2.31221 -3.47788,-4.44386z" fill="url(#color-66)"/><path d="M201.05428,115.87584c2.64639,0.14518 9.62842,3.76254 9.55713,5.29904c-0.07107,1.5317 -7.43651,4.42956 -10.0829,4.28437c-2.37217,-0.13014 -4.24716,-1.96196 -4.5057,-4.24622c-0.02989,-0.26406 -3.65392,-1.04665 -3.63887,-1.32086c0.02834,-0.51657 3.75311,-0.49706 3.92994,-0.95492c0.72906,-1.88776 2.61057,-3.17826 4.74039,-3.06141z" fill="url(#color-67)"/><path d="M176.11149,122.73288c-2.26676,1.3734 -10.07223,2.32666 -10.88036,1.01792c-0.80561,-1.30466 3.64008,-7.85318 5.90685,-9.22658c2.03188,-1.2311 4.61348,-0.77676 6.11586,0.96323c0.17367,0.20114 3.60725,-1.19768 3.74955,-0.96279c0.26809,0.44247 -2.81806,2.52813 -2.7057,3.00591c0.46328,1.96991 -0.36189,4.09699 -2.18619,5.20231z" fill="url(#color-68)"/><path d="M175.32015,111.91627c-1.16261,-2.38175 -1.40551,-10.24148 -0.02898,-10.92785c1.37222,-0.68422 7.49149,4.33592 8.65409,6.71768c1.04214,2.13496 0.35602,4.66487 -1.5128,6.00359c-0.21604,0.15475 0.86627,3.70083 0.61948,3.82129c-0.46491,0.22694 -2.2627,-3.03531 -2.74868,-2.96666c-2.00375,0.28311 -4.04744,-0.73121 -4.9831,-2.64807z" fill="url(#color-69)"/><path d="M194.08021,119.5425c0.86322,2.50584 0.14505,10.33646 -1.30495,10.84969c-1.44547,0.51164 -6.90631,-5.21782 -7.76953,-7.72366c-0.77379,-2.2462 0.21598,-4.67344 2.23422,-5.77407c0.23331,-0.12723 -0.40812,-3.77889 -0.14847,-3.86834c0.48914,-0.16851 1.87533,3.28878 2.36607,3.27994c2.02331,-0.03643 3.92793,1.21972 4.62266,3.23643z" fill="url(#color-70)"/><path d="M179.3644,106.58244c-2.57369,0.63289 -10.30715,-0.79107 -10.68705,-2.28157c-0.37871,-1.48585 5.82147,-6.40571 8.39516,-7.0386c2.307,-0.56732 4.63472,0.63807 5.54817,2.74764c0.10559,0.24386 3.80031,-0.06444 3.86588,0.20225c0.12354,0.50238 -3.445,1.56997 -3.48061,2.0595c-0.14685,2.01831 -1.57023,3.80142 -3.64155,4.31077z" fill="url(#color-71)"/><path d="M199.90672,102.84072c1.7677,-1.97476 8.95588,-5.16287 10.11055,-4.14669c1.15107,1.01301 -1.19164,8.57337 -2.95934,10.54812c-1.58454,1.77013 -4.18643,2.08843 -6.13092,0.8622c-0.22478,-0.14175 -3.10116,2.1976 -3.30578,2.01443c-0.38547,-0.34505 1.95829,-3.24006 1.71148,-3.66431c-1.01763,-1.74916 -0.84865,-4.02446 0.574,-5.61374z" fill="url(#color-72)"/><path d="M196.25717,107.20964c1.80666,1.93918 4.33113,9.38639 3.21461,10.44437c-1.11303,1.05466 -8.43034,-1.96269 -10.23699,-3.90187c-1.61946,-1.73825 -1.70095,-4.35826 -0.30378,-6.1838c0.16151,-0.21103 -1.9079,-3.28734 -1.70695,-3.47455c0.37851,-0.35265 3.04952,2.2435 3.49437,2.03611c1.83409,-0.85514 4.08474,-0.48092 5.53875,1.07973z" fill="url(#color-73)"/></g><path d="M262.85012,186.25704c-1.72522,2.01197 -8.84384,5.35253 -10.01991,4.36118c-1.17239,-0.98826 1.00868,-8.59681 2.73392,-10.60877c1.54647,-1.80348 4.14098,-2.17715 6.11116,-0.99265c0.22775,0.13692 3.05362,-2.26317 3.2621,-2.0844c0.39273,0.33676 -1.88881,3.28106 -1.63302,3.69994c1.05468,1.72709 0.93421,4.00546 -0.45426,5.6247z" fill="url(#color-74)" stroke="none" stroke-width="0" stroke-linecap="butt"/><path d="" fill="url(#color-75)" stroke="none" stroke-width="0" stroke-linecap="butt"/><path d="" fill="url(#color-76)" stroke="none" stroke-width="0" stroke-linecap="butt"/><path d="" fill="url(#color-77)" stroke="none" stroke-width="0" stroke-linecap="butt"/><path d="M272.52014,164.87084c0.86323,2.50584 0.14506,10.33645 -1.30494,10.84969c-1.44547,0.51164 -6.90631,-5.21782 -7.76954,-7.72366c-0.77379,-2.2462 0.21597,-4.67344 2.23422,-5.77407c0.23331,-0.12723 -0.40812,-3.77889 -0.14847,-3.86834c0.48914,-0.16851 1.87533,3.28878 2.36606,3.27994c2.02331,-0.03643 3.92794,1.21972 4.62266,3.23644z" fill="url(#color-78)" stroke="none" stroke-width="0" stroke-linecap="butt"/><path d="" fill="url(#color-79)" stroke="none" stroke-width="0" stroke-linecap="butt"/><path d="" fill="url(#color-80)" stroke="none" stroke-width="0" stroke-linecap="butt"/><path d="" fill="url(#color-81)" stroke="none" stroke-width="0" stroke-linecap="butt"/><path d="M221.26626,185.91877c0.45227,2.61149 -1.50633,10.22712 -3.01966,10.50239c-1.5086,0.27441 -5.98512,-6.25308 -6.43739,-8.86456c-0.4054,-2.34089 0.95901,-4.5791 3.12703,-5.34353c0.25062,-0.08838 0.20015,-3.79559 0.47074,-3.84246c0.50976,-0.08829 1.32646,3.54592 1.81233,3.61551c2.00321,0.28692 3.68295,1.83092 4.04694,3.93265z" fill="url(#color-82)" stroke="none" stroke-width="0" stroke-linecap="butt"/><path d="M203.13495,175.69332c-2.64171,0.21407 -10.04883,-2.42577 -10.18599,-3.9578c-0.13674,-1.52724 6.76911,-5.39461 9.41081,-5.60867c2.36798,-0.19189 4.47349,1.36952 5.03859,3.59783c0.06533,0.25759 3.7619,0.54286 3.78408,0.81659c0.04178,0.51565 -3.65141,1.00007 -3.76469,1.47764c-0.46705,1.96902 -2.15674,3.50213 -4.2828,3.67441z" fill="url(#color-83)" stroke="none" stroke-width="0" stroke-linecap="butt"/><path d="M229.16814,176.13609c1.47404,2.20263 2.7777,9.95729 1.50665,10.82352c-1.26709,0.86354 -8.00908,-3.2829 -9.48313,-5.48553c-1.3213,-1.97441 -0.98365,-4.57385 0.68696,-6.15302c0.19312,-0.18256 -1.35883,-3.54967 -1.13059,-3.70242c0.42994,-0.28773 2.65241,2.70141 3.12464,2.56766c1.94706,-0.55149 4.10915,0.1771 5.29547,1.94978z" fill="url(#color-84)" stroke="none" stroke-width="0" stroke-linecap="butt"/><path d="M209.54904,171.11712c-1.19421,-2.36607 -1.54167,-10.22186 -0.17443,-10.92649c1.363,-0.70243 7.54854,4.23583 8.74275,6.60191c1.07047,2.12091 0.41807,4.65971 -1.43278,6.02319c-0.21395,0.15762 0.91545,3.68898 0.67029,3.81273c-0.46185,0.2331 -2.30289,-3.00494 -2.78792,-2.92981c-1.9998,0.30974 -4.05682,-0.67729 -5.0179,-2.58151z" fill="url(#color-85)" stroke="none" stroke-width="0" stroke-linecap="butt"/><path d="" fill="url(#color-86)" stroke="none" stroke-width="0" stroke-linecap="butt"/><path d="M206.03488,188.45347c-1.48439,2.19568 -8.17534,6.32668 -9.45683,5.47601c-1.27751,-0.84803 0.02117,-8.65576 1.50556,-10.85145c1.33059,-1.96818 3.86551,-2.63542 5.95799,-1.68346c0.24188,0.11005 2.77545,-2.59682 3.00297,-2.443c0.42858,0.28975 -1.50211,3.47515 -1.20019,3.86212c1.24484,1.59547 1.38513,3.8727 0.19049,5.63979z" fill="url(#color-87)" stroke="none" stroke-width="0" stroke-linecap="butt"/><path d="M209.06003,183.6311c-2.05232,-1.67702 -5.56079,-8.71441 -4.59761,-9.91365c0.96016,-1.1955 8.61833,0.80451 10.67065,2.48152c1.83966,1.50325 2.27476,4.08817 1.13732,6.0859c-0.13147,0.23093 2.33495,2.99909 2.16118,3.21175c-0.32735,0.4006 -3.32493,-1.81045 -3.73764,-1.5448c-1.70158,1.09534 -3.98217,1.02894 -5.63388,-0.32072z" fill="url(#color-88)" stroke="none" stroke-width="0" stroke-linecap="butt"/><path d="M241.04712,93.21176c-2.01602,1.72049 -9.56612,3.91822 -10.57446,2.7567c-1.00519,-1.1579 2.32798,-8.33684 4.34401,-10.05734c1.80713,-1.54221 4.42822,-1.50953 6.19116,-0.03418c0.2038,0.17055 3.3673,-1.76292 3.54558,-1.55402c0.33584,0.39352 -2.3742,2.94893 -2.18635,3.40239c0.77445,1.86961 0.30257,4.1018 -1.31993,5.48648z" fill="url(#color-89)" stroke="none" stroke-width="0" stroke-linecap="butt"/><path d="M240.59995,72.40059c-1.53098,-2.16347 -3.03634,-9.88149 -1.78831,-10.78056c1.24414,-0.89626 8.09193,3.07297 9.6229,5.23644c1.37234,1.93928 1.10254,4.54667 -0.52631,6.16886c-0.18829,0.18752 1.45091,3.51304 1.22673,3.67168c-0.4223,0.29883 -2.72194,-2.63135 -3.19052,-2.48533c-1.93202,0.60206 -4.11236,-0.06991 -5.34449,-1.81108z" fill="url(#color-90)" stroke="none" stroke-width="0" stroke-linecap="butt"/><path d="M253.49153,95.02206c-1.14336,2.39105 -7.14988,7.46611 -8.54309,6.81429c-1.38887,-0.6498 -1.25906,-8.56373 -0.11569,-10.95479c1.0249,-2.14329 3.43328,-3.17809 5.64353,-2.54601c0.25551,0.07306 2.36093,-2.9787 2.60869,-2.86021c0.46671,0.22319 -0.97169,3.65906 -0.61586,3.99712c1.4671,1.39384 1.94261,3.62529 1.02242,5.54961z" fill="url(#color-91)" stroke="none" stroke-width="0" stroke-linecap="butt"/><path d="M247.80683,75.5854c1.42664,-2.23364 8.00764,-6.53765 9.31087,-5.72067c1.29918,0.81444 0.20448,8.65337 -1.22216,10.887c-1.27881,2.00218 -3.7955,2.73532 -5.91208,1.83822c-0.24467,-0.1037 -2.70681,2.66828 -2.93825,2.52046c-0.436,-0.27848 1.41099,-3.51312 1.09908,-3.89209c-1.28601,-1.56247 -1.48565,-3.83528 -0.33746,-5.63292z" fill="url(#color-92)" stroke="none" stroke-width="0" stroke-linecap="butt"/><path d="M246.79941,95.16865c2.09534,1.62296 5.78609,8.56648 4.8545,9.79042c-0.92867,1.22013 -8.63637,-0.57956 -10.73171,-2.20251c-1.87822,-1.45478 -2.38057,-4.02748 -1.29559,-6.05419c0.12541,-0.23428 -2.41236,-2.9372 -2.24418,-3.15431c0.3168,-0.409 3.37099,1.72317 3.77663,1.44684c1.67245,-1.13932 3.954,-1.13241 5.64034,0.17374z" fill="url(#color-93)" stroke="none" stroke-width="0" stroke-linecap="butt"/><path d="M231.10118,81.40083c-2.64568,-0.15756 -9.61072,-3.80752 -9.53225,-5.34367c0.07822,-1.53135 7.45713,-4.39474 10.10281,-4.23718c2.37154,0.14123 4.23796,1.98179 4.4858,4.26725c0.02865,0.2642 3.64899,1.06372 3.63266,1.33787c-0.03075,0.51642 -3.7554,0.47951 -3.93437,0.93652c-0.73789,1.88433 -2.62541,3.166 -4.75466,3.0392z" fill="url(#color-94)" stroke="none" stroke-width="0" stroke-linecap="butt"/><path d="M236.79205,81.54472c0.39637,-2.62055 4.66174,-9.22666 6.18448,-9.00948c1.51798,0.21649 3.70177,7.8243 3.3054,10.44485c-0.3553,2.34901 -2.35721,4.04118 -4.65572,4.08116c-0.26569,0.00463 -1.38962,3.53773 -1.66115,3.49666c-0.51152,-0.07737 -0.13766,-3.78338 -0.57659,-4.00298c-1.80981,-0.9054 -2.91541,-2.90118 -2.59641,-5.01022z" fill="url(#color-95)" stroke="none" stroke-width="0" stroke-linecap="butt"/><path d="M294.17944,95.10142c2.43197,-1.05354 10.29462,-0.94027 10.91794,0.46593c0.62138,1.40179 -4.67073,7.28746 -7.10269,8.341c-2.17996,0.9444 -4.6762,0.1444 -5.92892,-1.78314c-0.14482,-0.22281 -3.73627,0.69779 -3.84542,0.4458c-0.20565,-0.47471 3.13466,-2.12291 3.0881,-2.61151c-0.19207,-2.01452 0.91375,-4.01018 2.871,-4.85807z" fill="url(#color-96)" stroke="none" stroke-width="0" stroke-linecap="butt"/><path d="" fill="url(#color-97)" stroke="none" stroke-width="0" stroke-linecap="butt"/><path d="" fill="url(#color-98)" stroke="none" stroke-width="0" stroke-linecap="butt"/><path d="" fill="url(#color-99)" stroke="none" stroke-width="0" stroke-linecap="butt"/><g stroke="none" stroke-width="0" stroke-linecap="butt"><path d="M164.28797,141.97957c-2.64598,-0.15252 -9.61795,-3.78924 -9.5424,-5.32553c0.07531,-1.5315 7.44877,-4.40892 10.09474,-4.25639c2.3718,0.13671 4.2417,1.97371 4.4939,4.25869c0.02915,0.26414 3.651,1.05677 3.6352,1.33095c-0.02977,0.51648 -3.75448,0.48666 -3.93258,0.94402c-0.73428,1.88573 -2.61936,3.171 -4.74885,3.04824z" fill="url(#color-100)"/><path d="M178.36334,126.64372c0.39138,-2.62131 4.64418,-9.23552 6.16733,-9.02124c1.5184,0.21361 3.71665,7.81723 3.32527,10.43854c-0.35083,2.34968 -2.34953,4.04567 -4.64795,4.09003c-0.26569,0.00513 -1.38288,3.54037 -1.65449,3.49981c-0.51166,-0.0764 -0.14486,-3.78311 -0.58423,-4.00188c-1.81153,-0.90195 -2.92092,-2.89563 -2.60593,-5.00527z" fill="url(#color-101)"/><path d="M182.86411,152.11732c1.15601,2.38499 1.37708,10.24534 -0.00133,10.92789c-1.37412,0.68042 -7.47942,-4.35667 -8.63544,-6.74166c-1.03621,-2.13785 -0.34309,-4.66584 1.52945,-5.99937c0.21645,-0.15414 -0.85601,-3.70321 -0.60887,-3.823c0.46555,-0.22565 2.25427,3.04158 2.74045,2.97428c2.00453,-0.27754 4.04538,0.74243 4.97573,2.66187z" fill="url(#color-102)"/><path d="M172.02084,151.89638c-2.4798,0.93539 -10.32791,0.44415 -10.8829,-0.99038c-0.55327,-1.43005 5.01575,-7.05443 7.49555,-7.98982c2.22286,-0.83847 4.67773,0.08062 5.83631,2.06616c0.13394,0.22952 3.76549,-0.51732 3.86241,-0.26037c0.18258,0.48405 -3.23311,1.96972 -3.21009,2.46001c0.09498,2.02141 -1.10553,3.96159 -3.10129,4.7144z" fill="url(#color-103)"/><path d="M181.36357,133.92938c2.57543,-0.62574 10.30492,0.81965 10.68069,2.31118c0.37458,1.48689 -5.83922,6.38956 -8.41465,7.0153c-2.30858,0.56091 -4.63293,-0.65093 -5.54053,-2.76302c-0.10491,-0.24415 -3.80049,0.05389 -3.86532,-0.21297c-0.12213,-0.50272 3.44936,-1.5604 3.48633,-2.04983c0.15245,-2.0179 1.58075,-3.79707 3.65347,-4.30066z" fill="url(#color-104)"/><path d="M167.08748,147.37226c0.39007,2.6215 -1.74896,10.18845 -3.26839,10.42767c-1.51469,0.23847 -5.83483,-6.39355 -6.22491,-9.01505c-0.34967,-2.34985 1.06756,-4.555 3.25313,-5.26771c0.25266,-0.08239 0.29031,-3.78975 0.56194,-3.83017c0.51171,-0.07614 1.24182,3.57642 1.72588,3.65755c1.99581,0.33445 3.63839,1.91793 3.95234,4.02773z" fill="url(#color-105)"/><path d="M165.27801,126.57052c-1.80128,-1.94419 -4.30507,-9.39839 -3.18562,-10.45325c1.11595,-1.05157 8.42486,1.98608 10.22613,3.93026c1.61463,1.74272 1.68886,4.36297 0.28661,6.18461c-0.16209,0.21058 1.89876,3.29261 1.69731,3.47926c-0.37949,0.3516 -3.0433,-2.25196 -3.48871,-2.04578c-1.83644,0.85004 -4.08606,0.46958 -5.53574,-1.0951z" fill="url(#color-106)"/><path d="M169.28752,130.61164c2.09923,-1.61792 9.74944,-3.43677 10.69865,-2.22644c0.94626,1.20654 -2.74043,8.21052 -4.83965,9.82844c-1.88172,1.45028 -4.49792,1.28704 -6.18518,-0.27431c-0.19505,-0.18048 -3.45095,1.59296 -3.61859,1.37544c-0.31581,-0.40976 2.51816,-2.82697 2.35315,-3.28922c-0.68036,-1.90586 -0.09784,-4.1118 1.59163,-5.4139z" fill="url(#color-107)"/></g><path d="M232.29655,119.35288c-1.68914,1.30253 -3.97068,1.30454 -5.64069,0.16162c-0.40505,-0.2772 -3.46384,1.8484 -3.77974,1.43872c-0.1677,-0.21748 2.37588,-2.91494 2.25096,-3.14949c-1.08062,-2.02902 -0.57278,-4.60064 1.30858,-6.05139c2.09884,-1.61844 9.81037,-3.40155 10.73642,-2.17943c0.92895,1.22595 -2.77668,8.16154 -4.87552,9.77998z" data-paper-data="{&quot;index&quot;:null}" fill="url(#color-108)" stroke="none" stroke-width="0" stroke-linecap="butt"/><path d="M211.66323,139.129c1.80176,-1.94373 9.04426,-5.00645 10.1811,-3.97035c1.13329,1.03286 -1.34046,8.55136 -3.14222,10.49509c-1.61506,1.74232 -4.22209,2.01535 -6.14498,0.75553c-0.22228,-0.14563 -3.13889,2.14336 -3.34029,1.95666c-0.37941,-0.3517 2.0143,-3.20555 1.7749,-3.63402c-0.98708,-1.76658 -0.77857,-4.0386 0.67149,-5.60292z" fill="url(#color-109)" stroke="none" stroke-width="0" stroke-linecap="butt"/><path d="M245.6776,158.03542c-0.39074,2.62142 -4.64191,9.23666 -6.16511,9.02275c-1.51846,-0.21325 -3.71857,-7.81632 -3.32783,-10.43772c0.35024,-2.34978 2.34853,-4.04625 4.64694,-4.09116c0.26569,-0.00519 1.38201,-3.54071 1.65364,-3.50022c0.51169,0.07628 0.14578,3.78309 0.5852,4.00174c1.81174,0.90151 2.92163,2.8949 2.60717,5.00461z" fill="url(#color-110)" stroke="none" stroke-width="0" stroke-linecap="butt"/><path d="M224.99916,132.90335c-2.07259,0.50412 -4.15828,-0.42079 -5.22006,-2.14351c-0.25752,-0.41782 -3.91599,0.28208 -4.03827,-0.22061c-0.06491,-0.26684 3.35505,-1.69858 3.33618,-1.96365c-0.16329,-2.29304 1.34535,-4.43667 3.65378,-4.99814c2.57527,-0.62638 10.34628,0.87656 10.69608,2.36948c0.35089,1.49759 -5.85246,6.33005 -8.42773,6.95643z" data-paper-data="{&quot;index&quot;:null}" fill="url(#color-111)" stroke="none" stroke-width="0" stroke-linecap="butt"/><path d="M210.03106,146.83731c2.47958,0.93601 8.04677,6.48943 7.51572,7.933c-0.5294,1.43906 -8.42574,1.98237 -10.90531,1.04636c-2.22264,-0.83902 -3.4584,-3.15075 -3.01647,-5.40672c0.05109,-0.26078 -3.16858,-2.09921 -3.07159,-2.35614c0.1827,-0.48401 3.72842,0.65719 4.03502,0.2739c1.2641,-1.58025 3.44706,-2.24371 5.44263,-1.4904z" fill="url(#color-112)" stroke="none" stroke-width="0" stroke-linecap="butt"/><path d="M283.32685,131.88488c-1.15659,2.38469 -7.19109,7.4264 -8.58067,6.76688c-1.38524,-0.65746 -1.21164,-8.57056 -0.05505,-10.95525c1.03674,-2.13759 3.45083,-3.15904 5.65755,-2.51475c0.25509,0.07449 2.37737,-2.96558 2.62447,-2.84573c0.46548,0.22575 -0.99192,3.65364 -0.63797,3.99366c1.45935,1.40193 1.92251,3.63599 0.99168,5.55519z" fill="url(#color-113)" stroke="none" stroke-width="0" stroke-linecap="butt"/><path d="M200.89956,131.68761c-0.39073,-2.62142 1.74645,-10.18887 3.26583,-10.42846c1.51463,-0.23884 5.8364,6.3921 6.22713,9.01351c0.35024,2.34977 -1.06646,4.55527 -3.25185,5.26852c-0.25263,0.08246 -0.28936,3.78983 -0.56099,3.83033c-0.51168,0.07628 -1.2427,-3.57612 -1.72679,-3.65713c-1.9959,-0.33396 -3.63887,-1.91703 -3.95333,-4.02676z" fill="url(#color-114)" stroke="none" stroke-width="0" stroke-linecap="butt"/><path d="M215.93088,110.7861c2.64601,-0.15187 9.98899,2.66145 10.09009,4.19628c0.10078,1.53003 -6.89411,5.2339 -9.54012,5.38578c-2.37183,0.13613 -4.44004,-1.47436 -4.95257,-3.71533c-0.05926,-0.25905 -3.74809,-0.63117 -3.76383,-0.90536c-0.02964,-0.51649 3.67391,-0.91393 3.7984,-1.3887c0.51322,-1.95749 2.23851,-3.45043 4.36803,-3.57266z" fill="url(#color-115)" stroke="none" stroke-width="0" stroke-linecap="butt"/><path d="M295.0836,182.15341c-2.63948,-0.23988 -9.48748,-4.10498 -9.36121,-5.63795c0.12588,-1.52818 7.5904,-4.16036 10.22987,-3.92049c2.36599,0.21502 4.17417,2.11282 4.35073,4.40488c0.02041,0.26495 3.61408,1.17684 3.58922,1.45034c-0.04683,0.51522 -3.76851,0.36232 -3.96162,0.81356c-0.7962,1.86043 -2.72273,3.08271 -4.847,2.88966z" fill="url(#color-116)" stroke="none" stroke-width="0" stroke-linecap="butt"/><path d="M224.25597,147.86079c2.3145,-1.29133 10.14911,-1.96442 10.90985,-0.62757c0.75837,1.33268 -3.91902,7.71777 -6.23352,9.00911c-2.07467,1.15753 -4.63836,0.61102 -6.07745,-1.18167c-0.16636,-0.20723 -3.64782,1.0677 -3.78163,0.82788c-0.25207,-0.45179 2.90682,-2.42557 2.81164,-2.90707c-0.39243,-1.98524 0.50839,-4.0814 2.3711,-5.12068z" fill="url(#color-117)" stroke="none" stroke-width="0" stroke-linecap="butt"/><path d="M230.99273,143.69879c1.07656,2.42187 1.0378,10.28524 -0.36242,10.92187c-1.39585,0.63464 -7.33139,-4.60145 -8.40795,-7.02332c-0.96501,-2.17092 -0.18871,-4.67462 1.72687,-5.94555c0.22143,-0.14693 -0.73316,-3.72949 -0.48222,-3.84104c0.47274,-0.21014 2.15252,3.11441 2.64066,3.0632c2.0126,-0.21114 4.01865,0.87571 4.88507,2.82484z" fill="url(#color-118)" stroke="none" stroke-width="0" stroke-linecap="butt"/><path d="M302.83712,153.6737c2.63417,0.2926 9.40353,4.29381 9.24663,5.82394c-0.15641,1.52535 -7.67203,4.00779 -10.3062,3.71521c-2.36121,-0.26227 -4.1311,-2.19582 -4.2618,-4.49095c-0.01511,-0.26531 -3.58984,-1.24886 -3.55951,-1.52181c0.05712,-0.51417 3.77499,-0.28691 3.97709,-0.73419c0.83325,-1.84415 2.78381,-3.02768 4.9038,-2.7922z" fill="url(#color-119)" stroke="none" stroke-width="0" stroke-linecap="butt"/><path d="" fill="url(#color-120)" stroke="none" stroke-width="0" stroke-linecap="butt"/><path d="M286.81576,185.82357c1.65774,2.06793 3.62246,9.682 2.4305,10.65417c-1.18824,0.96913 -8.26139,-2.58303 -9.91914,-4.65096c-1.48597,-1.85365 -1.37276,-4.47251 0.15607,-6.18929c0.17674,-0.19846 -1.65863,-3.41988 -1.44435,-3.59164c0.40366,-0.32359 2.87458,2.46366 3.3336,2.28985c1.89251,-0.71664 4.10916,-0.17641 5.44332,1.48788z" fill="url(#color-121)" stroke="none" stroke-width="0" stroke-linecap="butt"/><path d="M263.03355,79.0677c2.48472,0.92226 8.08257,6.44479 7.55952,7.89128c-0.52142,1.44196 -8.41462,2.02898 -10.89935,1.10671c-2.22726,-0.82671 -3.47578,-3.13155 -3.04634,-5.38994c0.04964,-0.26106 -3.18017,-2.08164 -3.0846,-2.33911c0.18003,-0.48502 3.73199,0.63652 4.03647,0.25155c1.25534,-1.58722 3.43459,-2.26273 5.4343,-1.52049z" fill="url(#color-122)" stroke="none" stroke-width="0" stroke-linecap="butt"/><path d="M285.54932,111.61561c-2.59245,-0.55098 -8.93417,-5.20038 -8.62713,-6.70757c0.3061,-1.50249 8.02995,-3.23154 10.6224,-2.68055c2.32382,0.49388 3.89437,2.5926 3.79807,4.88942c-0.01112,0.26551 3.44914,1.59685 3.39204,1.86548c-0.10756,0.50603 -3.78487,-0.08682 -4.03011,0.33834c-1.01105,1.75297 -3.06886,2.73834 -5.15529,2.29491z" fill="url(#color-123)" stroke="none" stroke-width="0" stroke-linecap="butt"/><path d="M269.5872,92.48717c2.32409,-1.27398 10.16352,-1.88838 10.91423,-0.54587c0.74838,1.33832 -3.97668,7.6882 -6.30078,8.96217c-2.08328,1.14198 -4.6428,0.57627 -6.06843,-1.22713c-0.16481,-0.20848 -3.6557,1.04037 -3.78771,0.79956c-0.24867,-0.45367 2.92487,-2.40374 2.83331,-2.88594c-0.37756,-1.9881 0.53893,-4.0775 2.40938,-5.10279z" fill="url(#color-124)" stroke="none" stroke-width="0" stroke-linecap="butt"/><path d="M254.74712,97.42735c-1.32098,-2.29771 -2.0947,-10.12302 -0.76775,-10.90089c1.32282,-0.77544 7.76751,3.8195 9.08848,6.1172c1.1841,2.05962 0.6706,4.63013 -1.10344,6.09213c-0.20508,0.169 1.11451,3.6338 0.87643,3.77068c-0.4485,0.25785 -2.46274,-2.87539 -2.94297,-2.77403c-1.98003,0.41792 -4.08761,-0.45589 -5.15074,-2.3051z" fill="url(#color-125)" stroke="none" stroke-width="0" stroke-linecap="butt"/><path d="M252.70491,109.31974c-2.31829,-1.28453 -7.02447,-7.5842 -6.29038,-8.93587c0.7318,-1.34745 8.62376,-0.7439 10.94204,0.54063c2.07807,1.15142 2.96675,3.61747 2.20344,5.78588c-0.08823,0.25067 2.83195,2.53509 2.69885,2.7753c-0.25074,0.45252 -3.59431,-1.18909 -3.95306,-0.85415c-1.4792,1.38098 -3.73513,1.722 -5.60089,0.6882z" fill="url(#color-126)" stroke="none" stroke-width="0" stroke-linecap="butt"/><path d="M246.66024,109.31867c2.32409,-1.27398 10.16352,-1.88837 10.91424,-0.54587c0.74838,1.33832 -3.97669,7.6882 -6.30079,8.96217c-2.08328,1.14198 -4.64279,0.57627 -6.06842,-1.22711c-0.16481,-0.20848 -3.6557,1.04036 -3.78771,0.79955c-0.24867,-0.45367 2.92487,-2.40373 2.8333,-2.88593c-0.37756,-1.9881 0.53893,-4.0775 2.40937,-5.10279z" fill="url(#color-127)" stroke="none" stroke-width="0" stroke-linecap="butt"/><path d="" fill="url(#color-128)" stroke="none" stroke-width="0" stroke-linecap="butt"/><path d="M211.05758,138.06529c-2.28697,1.33948 -10.10578,2.17634 -10.89433,0.8557c-0.78609,-1.31652 3.75668,-7.79808 6.04364,-9.13755c2.04999,-1.20069 4.62455,-0.70793 6.10083,1.05425c0.17067,0.20371 3.62468,-1.14379 3.76348,-0.90682c0.26146,0.44642 -2.85543,2.48586 -2.75019,2.96526c0.43389,1.9766 -0.42288,4.09116 -2.26345,5.16917z" fill="url(#color-129)" stroke="none" stroke-width="0" stroke-linecap="butt"/><path d="M234.5,253.74328c0,0 3.99753,-12.47336 4.30021,-18.97089c0.30267,-6.49752 -1.06669,-7.53746 -1.14114,-13.77803c-0.08116,-6.80255 0.20574,-19.28498 -0.29308,-28.98132c-0.65243,-12.68226 -2.11598,-22.01976 -2.11598,-22.01976" fill="none" stroke="url(#color-130)" stroke-width="1" stroke-linecap="round"/><path d="M226.92118,165.52588c2.06019,-1.66735 9.66502,-3.66751 10.64273,-2.48008c0.97466,1.18373 -2.54452,8.27333 -4.60472,9.94069c-1.84671,1.49458 -4.46606,1.39358 -6.18995,-0.12724c-0.19927,-0.1758 -3.41212,1.67453 -3.58488,1.46106c-0.32547,-0.40215 2.45025,-2.88603 2.27431,-3.34422c-0.72545,-1.88915 -0.19553,-4.10831 1.46251,-5.45019z" fill="url(#color-131)" stroke="none" stroke-width="0" stroke-linecap="butt"/><path d="M249,254.24328c0,0 -6.56945,-7.39333 -8.44979,-13.22089c-1.88035,-5.82755 -3.15342,-11.84059 -2.64114,-19.52803c0.51228,-7.68744 2.71147,-20.95212 6.20692,-33.98132c3.49545,-13.0292 8.88402,-22.26976 8.88402,-22.26976" fill="none" stroke="url(#color-132)" stroke-width="1" stroke-linecap="round"/><path d="M253.96879,161.79032c1.49498,2.18849 2.87247,9.93036 1.60975,10.80867c-1.25879,0.87557 -8.04001,-3.20639 -9.53498,-5.39488c-1.34006,-1.96171 -1.0272,-4.56427 0.62827,-6.1593c0.19135,-0.18438 -1.3926,-3.53655 -1.16584,-3.69146c0.42719,-0.29181 2.67806,2.676 3.149,2.53775c1.94171,-0.57002 4.11063,0.13793 5.31379,1.89923z" fill="url(#color-133)" stroke="none" stroke-width="0" stroke-linecap="butt"/><path d="M245.5,230.49328v-28.5" fill="none" stroke="none" stroke-width="0.5" stroke-linecap="round"/><path d="M246.75,197.49328c0,0 -2.75203,13.66614 -4.19395,22.46914c-1.44192,8.80301 -1.15187,20.5805 -5.30638,35.53086c-4.15451,14.95035 -9.49967,17.75 -9.49967,17.75" fill="none" stroke="url(#color-134)" stroke-width="1" stroke-linecap="round"/><path d="M240.20977,276.29393c0,0 -5.60968,-6.13365 -7.19122,-9.54769c-1.10613,-2.38781 -2.53014,-6.68216 -2.53014,-6.68216c0,0 7.2817,13.23426 8.57975,12.78562c0.49965,-0.17269 -5.48595,-11.3042 -5.5406,-13.57911c-0.02212,-0.9206 1.47797,1.28794 3.12354,4.88531c1.85165,4.04787 4.28808,13.19637 4.28808,13.19637z" fill="url(#color-135)" stroke="#000000" stroke-width="0.5" stroke-linecap="butt"/><path d="M231.2677,276.47986c-0.46327,0.58706 -0.94663,0.0428 -1.57858,-0.24137c-1.16195,-0.5225 -2.67284,-1.56106 -4.40165,-2.92532c-0.39451,-0.31132 -3.53419,0.722 -5.07872,0.94505c-1.25898,0.18181 -0.97361,-0.43617 -1.24465,-0.61903c-0.94941,-0.64053 2.95177,-0.61091 3.90175,-1.65139c0.6971,-0.76351 -2.9071,-2.76924 -2.49984,-3.28532c0.75614,-0.95819 1.93368,-0.23509 2.73517,0.73104c0.59245,0.71415 1.91137,1.59266 3.04576,2.48785c2.66904,2.10624 6.43582,2.89203 5.12076,4.55848z" data-paper-data="{&quot;index&quot;:null}" fill="url(#color-136)" stroke="#000000" stroke-width="1" stroke-linecap="butt"/></g></g></svg>